/* XPM */
static char *result[] = {
/* columns rows colors chars-per-pixel */
"64 64 98 2 ",
"   c #221E1C",
".  c #4D4748",
"X  c #504B45",
"o  c #575351",
"O  c #585150",
"+  c #5D5855",
"@  c #797A77",
"#  c #827E7B",
"$  c #89827D",
"%  c #8D8D8B",
"&  c #948D84",
"*  c #8E918F",
"=  c #94928D",
"-  c #9C948C",
";  c #959492",
":  c #9A9694",
">  c #9D9B96",
",  c #9C9C9B",
"<  c #A0978E",
"1  c #A39C94",
"2  c #A89D95",
"3  c #A29F9A",
"4  c #9EA09E",
"5  c #A3A29D",
"6  c #AAA39C",
"7  c #B2A99F",
"8  c #9EA1A2",
"9  c #A5A5A2",
"0  c #AAA6A1",
"q  c #A9A9A4",
"w  c #A5A5AA",
"e  c #A7A8A8",
"r  c #ABACAB",
"t  c #B3A4A0",
"y  c #B3ADA5",
"u  c #B4AFA9",
"i  c #B8B0A7",
"p  c #B4B2AB",
"a  c #BCB5AD",
"s  c #BDB8AF",
"d  c #AEB1B1",
"f  c #B4B4B5",
"g  c #BDB7B0",
"h  c #BFBCB3",
"j  c #B6B6B9",
"k  c #B6BABC",
"l  c #B9BBBB",
"z  c #C3BBB3",
"x  c #CABFB7",
"c  c #C6C1B5",
"v  c #C9C1B5",
"b  c #CCC4BB",
"n  c #CEC9BD",
"m  c #D1C8BE",
"M  c #BEC3C3",
"N  c #C2C4C5",
"B  c #CFC8C0",
"V  c #C6CACC",
"C  c #C8CCCF",
"Z  c #D4CDC3",
"A  c #D9CFC4",
"S  c #D6D1C5",
"D  c #D9D0C6",
"F  c #DDD4CB",
"G  c #DFD8CE",
"H  c #CBCFD0",
"J  c #CED2D4",
"K  c #D1D5D6",
"L  c #DFD8D0",
"P  c #D3D6D9",
"I  c #D6DBDE",
"U  c #D9DCDF",
"Y  c #E0D6CD",
"T  c #E1D9CE",
"R  c #E4DDD3",
"E  c #E8DED3",
"W  c #E7E0D5",
"Q  c #EAE3D6",
"!  c #EFE8D7",
"~  c #EEE6DA",
"^  c #EFE8DB",
"/  c #F1E7D7",
"(  c #F2E8D7",
")  c #F1E5D9",
"_  c #F2E9DC",
"`  c #DADEE2",
"'  c #DDE2E4",
"]  c #DFE5E9",
"[  c #E1E6EA",
"{  c #E4EAEE",
"}  c #F1E9E0",
"|  c #E6EDF1",
" . c #E9EEF2",
".. c #EBF2F6",
"X. c #EFF6FE",
"o. c #EEF8FE",
"O. c #F0F6FD",
"+. c #F1F9FF",
/* pixels */
"X.X.X.X.X.X.X.X.X.O.X.X.X.X.X.X.X.X.X.X.X.X.X.X.X.X.X.X.O.X.X.X.X.X.X.X.X.X.X.X.X.X.X.X.X.X.X.X.X.X.X.X.X.X.X.X.X.X.O.X.X.X.X.X.",
"X.X.X.X.X.X.X.X.X.X.X.X.X.X.X.X.X.X.X.X.X.X.X.X.X.X.X.X.X.X.X.X.X.X.X.X.X.X.X.X.X.X.X.X.X.X.X.X.X.X.X.X.X.X.X.X.X.X.X.X.X.X.X.X.",
"X.X.X.X.X.X.X.X.X.X.X.X.X.X.X.X.X.X.X.X.X.X.X.X.X.X.X.X.X.X.X.X.X.X.X.X.X.X.X.X.X.X.X.X.X.X.X.X.X.X.X.X.X.X.X.X.X.X.X.X.X.X.X.X.",
"X.X.X.X.X.X.X.X.X.X.X.X.X.X.X.X.O.X.X.X.X.X.X.X.X.X.X.X.X.X.X.X.X.X.X.X.X.X.X.X.X.X.X.X.X.X.O.X.X.X.X.X.X.X.X.X.X.X.X.X.X.X.X.X.",
"X.X.X.X.X.X.X.X.X.X.X.X.X.X.X.X.X.X.X.X.X.X.X.X.X.X.X.X.X.X.X.X.X.X.X.X.X.X.X.X.X.X.X.X.X.X.X.X.X.X.X.X.X.X.X.X.X.X.X.X.X.X.X.X.",
"X.X.X.X.X.X.X.X.X.X.X.X.X.X.X.X.X.X.X.X.X.X.X.X.X.X.X.X.X.X.X.X.X.X.X.X.X.X.X.X.X.X.X.X.X.X.X.X.X.X.X.X.X.X.X.X.X.X.X.X.X.X.X.X.",
"X.X.X.X.X.X.X.X.X.X.X.X.X.X.X.X.X.X.X.X.X.X.X.X.X.X.X.X.X.X.X.X.X.X.X.X.X.X.X.X.X.X.X.X.X.X.X.X.X.X.X.X.X.X.X.X.X.X.X.X.X.X.X.X.",
"X.X.X.X.X.X.X.X.X.X.X.X.X.X.X.X.X.X.X.X.X.X.X.X.X.X.X.X.X.X.X.X.X.X.X.X.X.X.X.X.X.X.X.X.X.X.X.X.X.X.X.X.X.X.X.X.X.X.X.X.X.X.X.X.",
"X.X.X.X.X.X.X.X.X.X.X.X.X.X.X.X.X.X.X.X.X.X.X.X.X.X.X.X.X.X.X.X.X.X.X.X.X.X.X.X.X.X.X.X.X.X.X.X.X.X.X.X.X.X.X.X.X.X.X.X.X.X.X.X.",
"O.X.X.X.X.X.X.X.X.X.X.X.X.X.X.O.X.X.X.X.X.X.X.X.X.X.X.X.X.X.X.X.X.X.X.X.X.X.X.X.X.X.X.X.X.X.X.X.X.X.X.X.X.X.X.X.X.X.X.X.X.X.X.X.",
"X.X.X.X.X.X.X.X.X.X.X.X.X.X.X.X.X.X.X.X.X.X.X.X.X.X.X.X.X.X.X.X.X.X.X.X.X.X.X.X.X.X.X.X.X.X.X.X.X.X.X.X.X.X.X.X.X.X.X.X.X.X.X.X.",
"X.X.X.X.X.X.X.X.X.X.X.X.X.X.X.X.X.X.X.X.X.X.X.X.X.X.X.X.X.X.X.X.O.X.X.X.X.X.X.X.X.X.X.X.X.X.X.X.X.X.X.X.X.X.X.X.X.X.X.X.X.X.X.X.",
"X.X.X.X.X.X.X.X.X.X.X.X.X.X.X.X.X.X.X.X.X.X.X.X.X.X.X.X.X.X.X.X.X.X.X.X.X.X.X.X.X.X.X.X.X.X.X.X.X.X.X.X.X.X.X.X.X.X.X.X.X.O.X.X.",
"X.X.X.X.X.X.X.X.X.X.X.X.X.X.X.X.X.X.X.X.X.X.X.X.X.X.X.X.X.X.X.X.X.X.X.X.X.X.X.X.X.X.X.X.X.X.X.X.X.X.X.X.X.X.X.X.X.X.X.X.X.X.X.X.",
"X.X.X.X.X.X.X.X.X.X.X.X.X.X.X.X.X.X.X.X.X.X.X.X.X.X.X.X.X.X.X.X.X.X.X.X.X.X.X.X.X.X.X.X.O.X.X.X.X.X.O.X.X.X.X.X.X.X.X.X.X.X.X.X.",
"X.X.X.X.X.X.X.X.X.X.X.X.X.X.X.X.X.X.X.O.X.X.X.X.X.X.X.X.X.X.X.X.X.X.X.X.X.X.X.X.X.X.X.X.X.X.X.X.X.X.X.X.X.X.X.X.X.X.X.X.X.X.X.X.",
"X.X.X.X.X.X.X.X.O.X.X.X.X.X.X.X.X.X.X.X.X.X.X.X.X.X.X.X.X.X.X.X.X.X.X.X.X.X.X.X.X.X.X.X.X.X.X.X.X.X.X.X.X.X.X.X.X.X.X.X.X.X.X.X.",
"X.X.X.X.X.X.X.X.X.X.X.X.X.X.X.X.X.X.X.X.X.X.X.X.X.X.X.X.X.X.X.X.X.X.O.X.X.X.X.X.X.X.X.X.X.X.X.X.X.X.X.X.X.X.X.X.X.X.O.X.X.X.X.X.",
"X.X.X.X.X.X.X.X.X.X.X.X.X.X.X.X.X.X.X.X.X.X.X.X.X.X.X.X.X.X.X.O.X.X.X.X.X.X.X.X.X.X.X.X.X.X.O.X.X.X.X.X.X.X.X.X.X.X.X.X.X.X.X.X.",
"X.X.X.X.X.X.X.X.X.X.X.X.X.X.X.X.X.X.X.X.X.X.X.X.X.X.X.X.X.X.X.X.X.X.X.X.X.X.X.X.X.X.X.X.X.X.X.X.X.X.X.X.X.X.X.X.X.X.X.X.X.X.X.X.",
"X.X.X.X.X.X.X.X.X.X.X.X.X.X.X.X.X.X.X.X.X.X.X.X.X.X.X.X.X.X.X.X.X.X.X.X.X.X.X.X.X.X.X.X.X.X.X.X.X.X.X.X.X.X.X.X.X.X.X.X.X.X.X.X.",
"X.X.X.X.X.X.X.X.X.X.X.X.X.X.X.X.X.X.X.X.X.X.X.X.X.X.X.X.X.X.X.X.X.X.X.X.X.X.X.X.X.X.X.X.X.X.X.X.X.X.X.X.X.X.X.X.X.X.X.X.X.X.X.X.",
"X.X.X.X.X.X.X.X.X.X.X.X.X.X.X.X.X.X.X.X.X.X.X.X.X.X.X.X.X.X.X.X.X.X.X.X.X.X.X.X.X.X.X.X.X.X.X.X.X.X.X.X.X.X.X.X.X.X.X.X.X.X.X.X.",
"X.X.X.X.X.X.X.X.X.X.X.X.X.X.X.X.O.X.X.X.X.X.X.X.X.X.X.X.X.X.X.X.X.X.X.X.X.X.X.X.X.X.X.X.X.X.X.X.X.X.X.X.X.X.X.X.X.X.X.X.X.X.X.X.",
"O.X.X.X.X.X.X.X.X.X.X.X.X.X.X.X.X.X.X.X.X.X.X.X.X.X.X.X.X.X.X.X.X.X.X.X.X.X.X.X.X.X.X.X.X.X.X.X.X.X.X.X.X.X.X.X.X.X.X.X.X.X.X.X.",
"X.X.X.X.X.X.X.X.X.X.X.X.X.X.X.X.X.X.X.X.X.X.X.X.X.X.X.X.X.X.X.X.X.X.X.X.X.X.X.X.X.X.X.X.X.X.X.X.X.X.X.X.X.X.X.X.X.X.X.X.X.X.X.X.",
"X.X.X.X.X.X.X.X.X.X.X.X.X.X.X.X.X.X.X.X.X.X.X.X.X.X.X.X.X.X.X.X.X.X.X.X.X.X.X.X.X.X.X.X.X.X.X.X.X.X.X.X.X.X.X.X.X.X.X.X.X.X.X.X.",
"X.X.X.X.X.X.X.X.X.X.X.X.X.X.X.X.X.X.X.X.X.X.X.X.X.X.X.X.X.X.X.X.X.X.X.X.X.X.X.X.X.X.X.X.X.X.X.X.X.X.X.X.X.X.X.X.X.X.X.X.X.X.X.X.",
"X.X.X.X.X.X.X.X.X.X.X.X.X.X.X.X.X.X.X.X.X.X.X.X.X.X.X.X.X.X.X.X.X.X.X.X.X.X.X.X.X.X.X.X.X.X.X.X.X.X.X.X.X.X.X.X.X.X.X.X.X.X.X.X.",
"X.X.X.X.X.X.X.X.X.X.X.X.X.X.X.X.X.X.X.X.X.X.X.X.X.X.X.X.X.X.X.X.X.X.X.X.X.X.X.X.X.X.X.X.X.X.X.X.X.X.X.X.X.X.X.X.X.X.X.X.X.O.X.X.",
"X.X.X.X.X.X.X.X.X.X.X.X.X.X.X.X.X.X.X.X.X.X.X.X.O.X.X.X.X.X.X.X.O.X.X.X.X.X.X.X.X.X.X.X.X.X.X.X.X.O.X.X.X.X.X.X.X.O.O.O.X.X.X.X.",
"X.X.X.X.X.X.X.X.O.X.X.X.X.X.X.X.X.X.X.X.X.X.X.X.X.X.O.X.X.X.X.X.X.X.X.X.X.X.X.X.X.X.X.X.X.X.X.X.X.X.X.X.X.X.X.X.O. . .X.X.X.X.X.",
"X.X.X.X.X.X.X.X.X.X.X.X.X.X.X.X.X.X.X.X.O.o.O.+.N 8 { X.X.X.O.X.X.X.O.O.O.O.O.O.+.+.O.O.O.O.O.X.X.X.X.X.X.X.o.o.U , k o.X.X.X.X.",
"X.X.X.X.X.X.X.X.X.X.X.X.X.X.X.X.X.X.X.X.X.o.O...8 = d O.X.X.X.O.O.O.O.O. .| ` ` P P ` [ {  .X.O.o.o.X.X.X.X.O.' 4 h , ..X.X.X.X.",
"X.X.X.X.X.X.X.X.X.X.X.X.X.X.X.X.X.X.X.X.X.X.O.[ > R = P O.+...[ P l r e e r u u t u 7 z f q q l V P  .X.o.o.| 4 n Q , { X.X.X.X.",
"X.X.X.X.X.X.X.X.X.X.X.X.X.X.X.X.X.X.X.X.X.X.+.K > ! b , ` l 5 5 g b A T E ~ _ _ ) ) ) ) ~ E T A x y q f J | d g _ ! 5 ' o.X.X.X.",
"X.X.X.X.X.X.X.X.X.X.O.X.X.X.X.X.X.X.X.X.X.O.O.J 6 ~ ^ 5 - g D ~ _ ) ) ) ) ) ) ) ) ) ) ) ) ) ) ) _ ~ Q S s 0 > W ~ ) q ` o.X.X.X.",
"X.X.X.X.X.X.X.X.X.X.X.X.X.X.X.X.X.X.X.X.X.X.O.C p ^ _ W E _ _ ~ ) ) ) ) ) ) ) ) ) ) ) ) ) ) ) ) ) ~ ~ ~ ~ R R ^ ! ) 6 P O.X.X.X.",
"X.X.X.X.X.X.X.X.X.X.X.X.X.X.X.X.X.X.X.X.X.X.O.N p _ ~ ~ ! ~ ) ) ) ) ) ) ) ) ) ) ) ) ) ) ) ) ) ) ) ) ~ ~ ~ ~ ^ ! ! _ u C O.X.X.X.",
"X.X.X.X.X.X.X.X.X.X.X.X.X.X.X.X.X.X.X.X.o.o.+.N a _ ! ! ~ ~ ) ) ) ) ) ) ) ) ) ) ) ) ) ) ) ) ) ) ) ) ~ ~ ~ ! ! ~ ! _ b M +.X.X.X.",
"X.X.X.X.X.X.X.X.X.X.X.X.X.X.X.X.X.X.X.X.X.X.O.N x _ ~ ) ) ) ) ) ) ) ) ) ) ) ) ) ) ) ) ) ) ) ) ) ) ) ) ) ) ) ) ) ) ) m j +.O.O.O.",
"X.X.X.X.X.X.X.X.X.X.X.X.X.X.X.X.X.X.X.X.X.X.+.l b _ ) ) ) ) ) ) ) ) ) ) ) ) ) ) ) ) ) ) ) E ) ) ) ) ) ) ) ) ) ) ) ) Z j O.O.X.X.",
"X.X.X.X.X.X.X.X.X.X.X.X.X.X.X.X.X.X.X.X.O.O.+.j b _ ) ) ) ) ) ) ) ) ) ) ) ) ) ) ) ) ) ) ) ) ) ) ) ) ) ) / ) ) ) ) _ F r O.X.X.X.",
"X.X.O.X.X.X.X.X.X.X.X.X.X.X.X.X.X.X.X.X.O.+.+.j B ) ) ) ) ) ) ) ) ) ) ) ) ) ) ) ) ) ) ) ) ) ) ) ) / ) ) _ ) ( ~ ) ) F r O.X.X.X.",
"X.X.X.X.X.X.X.X.X.X.X.O.X.X.X.X.X.X.X.X.O.X.O.l B ^ ~ ~ ) R F ~ ) ) ) ) ) ) ) ) ) ) ) ) ) ) ) ) ) ) ) ~ a v ~ ! ~ / Y 9 ..X.X.X.",
"X.X.X.X.X.X.X.X.X.X.X.X.X.X.X.X.X.X.X.X.O.X.O.M h _ _ _ L o . F ) ) ) ) ) ) ) ) ) ) ) ) ) ) ) ) ) ) _ z   X W ! ~ _ R q ..O.X.X.",
"X.X.X.X.X.X.X.X.X.X.X.X.X.X.X.X.X.X.X.X.X.O.O.N s _ _ ) G + O F ) ) ) ) ) ) ) ) ) ) ) ) ) ) ) ) ) ) ) F $ 6 Q ! ! ! W 9  .X.X.X.",
"X.X.X.X.X.X.X.X.X.X.X.X.X.X.X.X.X.X.X.X.X.o.O.V u _ ) ~ ( R T / ) ) ) ) ) ) ) ) ) ) ) ) ) ) ) ) ) ) ) _ _ _ ~ _ ~ ~ W , | X.X.X.",
"X.X.X.X.X.X.X.X.X.X.X.X.X.X.X.X.X.X.X.X.X.X.+.P 6 ^ ~ ~ ) ) ) ) ) ) ) ) ) ) ) ~ ) ) ) ) ) ) ) ) ) ) ) ) ) ) ) ) ) ) E 3 | X.X.X.",
"X.X.X.X.X.X.X.X.X.X.X.X.X.X.X.X.X.X.X.X.X.X.O.' 4 ~ ) / ) ) ) ) ) ) ) ) ) _ ^ Z 2 t x ) ) ) ) ) ) ) ) ) ) ) ) ) ) ) E 9 | O.X.O.",
"X.X.X.X.X.X.X.X.X.X.X.X.X.X.X.X.O.O.X.X.X.X.X.{ , W ) ) ) ) ) ) ) ) ) ) ) ) } t t z < ) ) ) ) ) ) ) ) ) E ) ) ) ) / E q ..X.X.X.",
"X.X.X.X.X.X.X.X.X.X.X.X.X.X.X.O...X.X.X.X.X.X...e T ) ) ) ) ) ) ) ) ) ) ) ~ _ Y - < Y ) ) ) ) ) ) ) ) ) ) ) ) ) ) ) E 0  .O.X.X.",
"X.X.X.O.O.o.o.X.X.X.X.X.X.X.X.' | X.X.X.X.X.o.+.r z _ ) ) ) ) ) ) ) ) ) ) ) ~ E t i ) ) ) ) ) ) ) ) ) ) ) ) ) ) ~ _ W 6  .X.X.X.",
"X.X.O.' V X.X.X.X.X.X.X.X.O.I * 9 ..X.X.X.X.o.O.V > ) ) ) ) ) ) ) ) ) ) ) ) ~ z - < F ) ) ) ) ) ) ) ) ) ) ) ) ) / ~ W 5  .o.X.X.",
"X.X.X., @ C O.o.X.X.X.X.o.O.k 5 : [ o.X.X.X.O.X. .; T _ ) ) ) ) ) ) ) ) ) ) ) ) E E ) ) ) ) ) ) ) ) ) ) ) ) ) ) ) ) W 5 | X.X.X.",
"X.X..., 9 r +.o.X.X.X.X.X.o.4 6 > j ..X.o.X.O.X.O.p u _ / ) ) / ) ) ) ) ) ) ) } } ) ) ) ) ) ) ) ) ) ) ) ) ) ) ) ) ) W 3 { X.X.X.",
"X.X.J # z # k ..X.X.X.X.o.M = S c : w ..O.O.O.X.O.{ % Z ) ) ) ) ) ) ) ) ) ) ) ) ) ) ) ) ) ) ) ) ) ) ) ) ) ) ) ) ) ) ~ > ` O.O.O.",
"X.{ 9 b E A = K O.X.X.o...* S ( _ E % I O.O.O.X.X.O.N = E } ) ) ) ) ) ) ) ) ) ) ) ) ) ) ) ) ) ) ) ) ) ) ) ) ) ) ) ~ ~ 3 ` O.O.O.",
"X.' 5 ~ ) _ g f +.O.X.X...= S _ _ _ i l O.X.X.X.X.X.O.r , E ) ) ) ) ) ) ) ) ) ) ) ) ) ) ) ) ) ) ) ) ) ) ) ) ) ) ) ) _ q K O.X.X.",
"O.{ 5 W ) _ Z 3 O.O.o.o.X.; n _ ) _ S e o.O.X.X.X.X.O.O.% # A _ ) ) ~ ) ) ) ) ) ) ) ) ) ) ) ) ) ) ) ) ) ~ ) ) / ) ) _ u V O.X.X.",
"O...4 T _ ~ E , { o.X.X.O.f p _ ~ _ E 3 | o.X.X.X.X.X.{ , a & t F E _ _ ) _ ) ) ) _ ) ) _ ^ _ _ ~ R b v ~ _ / ) ) ) _ z k O.O.O.",
"O.O.r n ~ ! ) 3 U O.O.O.O.P 5 ~ ~ ~ / 6 K O.X.X.X.X.O.N u } T a : - 2 i z b D Y Y T E T F Z x y 1 & - m ~ _ ) ) ) ( _ m e O.X.X.",
"O.+.M s _ ! _ g j O.O.O.O. .= T ~ _ ) n d O.X.X.X.X..., Z ) } } Q L m z y 0 1 : = = - & 1 1 7 v m T ! ( ~ ) ) ) ) ) _ T , ..X.X.",
"O.+.H 5 ^ / ( G ;  .O.O.O.O., h _ ) ) W : ` O.X.X.O.` > ~ ) ~ } ~ _ _ _ _ _ } E Q W R R ~ ~ _ _ _ _ ~ ~ ~ ~ ) ) ~ ) ) W * ] O.X."
};
