/* XPM */
static char *result[] = {
/* columns rows colors chars-per-pixel */
"64 64 99 2 ",
"   c #221E1C",
".  c #4D4748",
"X  c #504B45",
"o  c #585150",
"O  c #5D5855",
"+  c #797A77",
"@  c #827E7B",
"#  c #82817F",
"$  c #89827D",
"%  c #8D8D8B",
"&  c #948D84",
"*  c #8E918F",
"=  c #94928D",
"-  c #9C948C",
";  c #959492",
":  c #9A9694",
">  c #9D9B96",
",  c #9C9C9B",
"<  c #A0978E",
"1  c #A39C94",
"2  c #A89D95",
"3  c #A29F9A",
"4  c #9EA09E",
"5  c #A3A29D",
"6  c #AAA39C",
"7  c #9EA1A2",
"8  c #A5A5A2",
"9  c #AAA6A1",
"0  c #A9A9A4",
"q  c #A5A5AA",
"w  c #A7A8A8",
"e  c #ABACAB",
"r  c #B3A4A0",
"t  c #B3ADA5",
"y  c #B4AFA9",
"u  c #B8B0A7",
"i  c #B4B2AB",
"p  c #BCB5AD",
"a  c #BDB8AF",
"s  c #AEB1B1",
"d  c #B4B4B5",
"f  c #BDB7B0",
"g  c #BFBCB3",
"h  c #B6B6B9",
"j  c #B6BABC",
"k  c #B9BBBB",
"l  c #C3BBB3",
"z  c #CABFB7",
"x  c #C6C1B5",
"c  c #C9C1B5",
"v  c #C5C0B8",
"b  c #CCC4BB",
"n  c #CEC9BD",
"m  c #D1C8BE",
"M  c #BDBFC3",
"N  c #BEC3C3",
"B  c #C2C4C5",
"V  c #CFC8C0",
"C  c #C1C5C9",
"Z  c #C6CACC",
"A  c #C8CCCF",
"S  c #D4CDC3",
"D  c #D9CFC4",
"F  c #D6D1C5",
"G  c #D9D0C6",
"H  c #DDD4CB",
"J  c #DFD8CE",
"K  c #CBCFD0",
"L  c #CED2D4",
"P  c #D1D5D6",
"I  c #DFD8D0",
"U  c #D3D6D9",
"Y  c #D6DBDE",
"T  c #E0D6CD",
"R  c #E1D9CE",
"E  c #E4DDD3",
"W  c #E8DED3",
"Q  c #E7E0D5",
"!  c #EAE3D6",
"~  c #EFE8D7",
"^  c #EEE6DA",
"/  c #EFE8DB",
"(  c #F1E7D7",
")  c #F2E8D7",
"_  c #F1E5D9",
"`  c #F2E9DC",
"'  c #DADEE2",
"]  c #DDE2E4",
"[  c #DFE5E9",
"{  c #E1E6EA",
"}  c #E4EAEE",
"|  c #F1E9E0",
" . c #E6EDF1",
".. c #E9EEF2",
"X. c #EBF2F6",
"o. c #EFF6FE",
"O. c #EEF8FE",
"+. c #F0F6FD",
"@. c #F1F9FF",
/* pixels */
"o.o.o.o.o.o.o.o.o.+.o.o.o.o.o.o.o.o.o.o.o.o.o.o.o.o.o.o.o.o.o.o.o.o.o.o.o.o.o.o.o.o.o.o.o.o.o.o.o.o.o.o.o.o.o.o.o.o.o.o.o.o.o.o.",
"o.o.o.o.o.o.o.o.o.o.o.o.o.o.o.o.o.o.o.o.o.o.o.o.o.o.o.o.o.o.o.o.o.o.o.o.o.o.o.o.o.o.o.o.o.o.o.o.o.o.o.o.o.o.o.o.o.o.o.o.o.o.o.o.",
"o.o.o.o.o.o.o.o.o.o.o.o.o.o.o.o.o.o.o.o.o.o.o.o.o.o.o.o.o.o.o.o.o.o.o.o.o.o.o.o.o.o.o.o.o.o.o.o.o.o.o.o.o.o.o.o.o.o.o.o.o.o.o.o.",
"o.o.o.o.o.o.o.o.o.o.o.o.o.o.o.o.o.o.o.o.o.o.o.o.o.o.o.o.o.o.o.o.o.o.o.o.o.o.o.o.o.o.o.o.o.o.o.o.o.o.o.o.o.o.o.o.o.o.o.o.o.o.o.o.",
"o.o.o.o.o.o.o.o.o.o.o.o.o.o.o.o.o.o.o.o.o.o.o.o.o.o.o.o.o.o.o.o.o.o.o.o.o.o.o.o.o.o.o.o.o.o.o.o.o.o.o.o.o.o.o.o.o.o.o.o.o.o.o.o.",
"o.o.o.o.o.o.o.o.o.o.o.o.o.o.o.o.o.o.o.o.o.o.o.+.o.o.o.o.o.o.o.o.o.o.o.o.o.o.o.o.o.+.o.o.o.o.o.o.o.o.o.o.o.o.+.o.o.o.o.o.o.o.o.o.",
"o.o.o.o.o.o.o.o.o.o.o.o.o.o.o.o.o.o.o.o.o.o.o.o.o.o.o.o.o.o.o.o.o.o.o.o.+.o.o.o.o.o.o.o.o.o.o.o.o.o.o.o.o.o.o.o.o.o.o.o.o.o.o.o.",
"o.o.o.o.o.o.o.o.o.o.o.o.o.o.o.o.o.o.o.o.o.o.o.o.o.o.+.o.o.o.o.o.o.o.o.o.o.o.o.o.o.o.o.o.o.o.o.o.o.o.o.o.o.o.o.o.o.o.o.o.o.o.o.o.",
"o.o.o.o.o.o.o.o.o.o.o.o.o.o.o.o.o.o.o.o.o.o.o.o.o.o.o.o.o.o.o.o.o.o.o.o.o.o.o.o.o.+.o.o.o.o.o.o.o.o.o.o.o.o.o.o.o.o.o.o.o.o.o.o.",
"+.o.o.o.o.o.o.o.o.o.o.o.o.o.o.+.o.o.o.o.o.o.o.o.o.o.o.o.o.o.o.o.o.o.o.o.o.o.o.o.o.o.o.o.o.o.o.o.o.o.o.o.o.o.+.o.o.+.o.o.o.o.o.o.",
"o.o.o.o.o.o.o.o.o.o.o.o.o.o.o.o.o.o.o.o.o.o.o.o.o.o.o.o.o.o.o.o.o.o.o.o.o.o.o.o.o.o.o.o.o.o.o.o.o.o.o.o.o.o.o.o.o.o.o.o.o.o.o.o.",
"o.o.o.o.o.o.o.o.o.o.o.o.o.o.o.o.o.o.o.o.o.o.o.o.+.o.o.o.o.o.o.o.o.o.o.o.o.o.o.o.o.o.o.o.o.o.o.o.o.o.o.o.o.o.o.o.o.o.o.o.o.o.o.o.",
"o.o.o.o.o.o.o.o.o.o.o.o.o.o.o.o.o.o.o.o.o.o.o.o.o.o.o.o.o.o.o.o.o.o.o.o.o.o.o.o.o.o.o.o.o.o.o.o.o.o.o.o.o.o.o.o.o.o.o.o.o.o.o.o.",
"o.o.o.o.o.o.o.o.o.o.o.o.o.o.o.o.o.o.o.o.o.o.o.o.o.o.o.o.o.o.o.o.o.o.o.o.o.o.o.o.o.o.o.o.o.o.o.o.o.o.o.o.o.o.o.o.o.o.o.o.o.o.o.o.",
"o.o.o.o.o.o.o.o.o.o.o.o.o.o.o.o.o.o.o.o.o.o.o.o.o.o.o.o.o.o.o.o.o.o.o.o.o.o.o.o.o.o.o.o.o.o.o.o.o.o.o.o.o.o.o.o.o.o.o.o.o.o.o.o.",
"o.o.o.o.o.o.o.o.o.o.o.o.o.o.o.o.o.o.o.o.o.o.o.o.o.o.o.o.o.o.o.o.o.o.o.o.o.o.o.o.o.o.o.o.o.o.o.o.o.o.o.o.o.o.o.o.o.o.o.o.o.o.o.o.",
"o.o.o.o.o.o.o.o.o.o.o.o.o.o.o.o.o.o.o.o.o.o.o.o.o.o.o.o.o.o.o.o.o.o.o.o.o.o.o.o.o.o.o.o.o.o.o.o.o.o.o.o.o.o.o.o.o.o.o.o.o.o.o.o.",
"o.o.o.o.o.o.o.o.o.o.o.o.o.o.o.o.o.o.o.o.o.o.o.o.o.o.o.o.o.o.o.o.o.o.o.o.o.o.o.o.o.o.o.o.o.o.o.o.o.o.o.o.o.o.o.o.o.o.o.o.o.o.o.o.",
"o.o.o.o.o.o.o.o.o.o.o.o.o.o.o.o.o.o.o.o.o.o.o.o.o.o.o.o.o.o.o.o.o.o.o.o.o.o.o.o.o.o.o.o.o.o.o.o.o.o.o.o.o.o.o.o.o.o.o.o.o.o.o.o.",
"o.o.o.o.o.o.o.o.o.o.o.o.o.o.o.o.o.o.o.o.o.o.o.o.o.o.o.o.o.o.o.o.o.o.o.o.o.o.o.o.o.o.o.o.o.o.o.o.o.o.o.o.o.o.o.o.o.o.o.o.o.o.o.o.",
"o.o.o.o.o.o.o.o.o.+.o.o.o.o.o.o.o.o.o.o.o.o.o.o.+.o.o.o.o.o.o.o.o.o.o.o.o.o.o.o.o.o.o.o.o.o.o.o.o.o.o.o.o.o.o.o.o.o.o.o.o.o.o.o.",
"o.o.o.o.o.o.o.o.o.o.o.o.o.o.o.o.o.o.o.o.o.o.o.o.o.o.o.o.o.o.o.o.o.o.o.o.o.o.o.o.o.o.o.o.o.o.o.o.o.o.o.o.o.o.o.+.o.o.o.o.o.o.o.o.",
"o.o.o.o.o.o.o.o.o.o.o.o.o.o.o.o.o.o.o.o.o.o.o.o.o.o.o.o.o.o.o.o.o.o.o.o.o.o.o.o.o.o.o.o.o.o.o.o.o.o.o.o.o.o.o.o.o.o.o.o.o.o.o.o.",
"o.o.o.o.o.o.o.o.o.o.o.o.o.o.o.o.o.o.o.+.o.o.o.o.o.o.o.o.o.o.o.o.o.o.o.o.o.o.o.o.o.o.o.o.o.o.o.o.o.o.o.o.o.o.o.o.o.o.o.o.o.o.o.o.",
"+.o.o.o.o.o.o.o.o.o.o.o.o.o.o.o.o.o.o.o.o.o.o.o.o.o.o.+.o.o.o.o.o.o.o.o.o.o.o.o.o.+.o.o.o.o.o.o.o.o.o.o.o.o.+.o.o.+.o.o.o.o.o.o.",
"o.o.o.o.o.o.o.o.o.o.o.o.o.o.o.o.o.o.o.o.o.o.o.o.o.o.o.o.o.o.o.o.o.o.o.o.o.o.o.o.o.o.o.o.o.o.o.o.o.o.o.o.o.o.o.o.o.o.o.o.o.o.o.o.",
"o.o.o.o.o.o.o.o.o.o.o.o.o.o.o.o.o.o.o.o.o.o.o.o.o.o.o.o.o.o.o.o.o.o.o.o.o.o.o.o.o.o.o.o.o.o.o.o.o.o.o.o.o.o.o.o.o.o.o.o.o.o.o.o.",
"o.o.o.o.o.o.o.o.o.o.o.o.o.o.o.o.o.o.o.o.o.o.o.o.o.o.o.o.o.o.o.o.o.o.o.o.o.o.o.o.o.o.o.o.o.o.o.o.o.o.o.o.o.o.o.o.o.o.o.o.o.o.o.o.",
"o.o.o.o.o.o.o.o.o.o.o.o.o.o.o.o.o.o.o.o.o.o.o.o.o.o.o.o.o.o.o.o.o.o.o.o.o.o.o.o.o.o.o.o.o.o.o.o.o.o.o.o.o.o.o.o.o.o.o.o.o.o.o.o.",
"o.o.o.o.o.o.o.o.o.o.o.o.o.o.o.o.o.o.o.o.o.o.o.o.o.o.o.o.o.o.o.o.o.o.o.o.o.o.o.o.o.o.o.o.o.o.o.o.o.o.o.o.o.o.o.o.o.o.o.o.o.o.o.o.",
"o.o.o.o.o.o.+.o.o.o.o.o.o.o.o.o.o.o.o.o.o.o.o.o.o.o.o.o.o.o.o.o.o.o.o.o.o.+.o.o.o.o.o.o.o.o.o.o.o.o.o.o.o.o.o.o.o.o.o.o.o.o.o.o.",
"o.o.o.o.o.X.X.o.o.o.o.o.o.o.o.o.o.o.o.o.o.o.o.o.o.o.o.o.o.o.o.o.o.o.o.o.o.+.o.o.o.o.o.o.o.o.o.o.o.o.o.o.o.o.o.o.o.o.o.o.o.o.o.o.",
"o.o.o.o.O.j , Y o.o.o.o.o.o.o.O.o.o.O.o.o.@.+.+.@.+.+.+.+.+.+.+.o.o.+.+.+. .7 C @.+.+.o.o.o.o.o.o.o.o.o.o.o.o.o.o.o.o.o.o.o.o.o.",
"o.o.o.o.X., g 5 ] @.o.O.o.o.O.O.o.o...} { ' U P ' '  .X.o.+.+.+.+.+.+.+.+.y = 7 X.o.o.o.o.o.o.o.o.o.o.o.o.o.o.o.o.o.o.o.o.o.o.o.",
"o.o.o.O. ., ! n 5 } O.O.@...Y C k e 0 i i i y t y y y q q y l U { X.+.+.U = I , { O.o.o.o.o.o.o.o.o.o.o.o.o.o.o.o.o.o.o.o.o.o.o.",
"o.o.o.o.] 3 ~ _ p s  .L d 9 t v D T ! ^ ^ / _ _ ` ` ! E T D z l 5 7 k ' 4 b ` > P @.o.o.o.o.o.o.o.o.o.o.o.o.o.o.o.o.o.o.o.o.o.o.",
"o.o.o.O.' 9 _ ^ Q : 9 a F Q ^ ` _ _ _ ( _ _ _ _ _ _ _ _ _ _ _ _ ! G a = 5 ^ ` 6 L @.@.o.o.o.o.o.o.o.o.o.o.o.o.o.o.o.o.o.o.o.o.o.",
"o.o.o.@.P 6 ` ^ / E E / ` _ _ _ _ _ _ _ _ _ _ _ _ _ _ _ _ _ _ _ ` ` ` ! Q ^ / t Z @.+.o.o.o.o.o.o.o.o.o.o.o.o.o.o.o.o.o.o.o.o.o.",
"o.o.o.@.K y ^ ~ / ^ / / ^ ~ ( _ _ _ _ _ _ _ _ _ _ _ _ _ _ _ _ _ _ _ ^ ^ ^ / ` i B @.o.o.o.o.o.o.o.o.o.o.o.o.o.o.o.o.o.o.o.o.o.o.",
"o.o.o.@.N v ` ~ ~ ~ / ^ ^ ^ _ _ _ _ _ _ _ _ _ _ _ _ _ _ _ _ _ _ _ _ ~ ~ ~ / / p B @.o.o.o.o.o.o.+.o.o.o.o.o.o.o.o.o.o.o.o.o.o.+.",
"o.o.o.@.d m ` _ _ _ _ _ _ _ _ _ _ _ _ _ _ _ _ _ _ _ _ _ _ _ _ _ _ _ _ _ _ _ ` z M +.+.+.o.o.o.o.o.o.o.o.o.o.o.o.o.o.o.o.o.o.o.o.",
"o.o.o.+.h S _ _ _ _ _ _ _ _ _ _ _ _ _ _ _ _ _ _ _ _ _ _ W _ _ _ _ _ _ _ _ _ ` b k +.+.+.o.o.o.o.o.o.o.o.o.o.o.o.o.o.o.o.o.o.o.o.",
"o.o.o.+.s G ` ( _ _ _ _ _ _ _ _ _ _ _ _ _ _ _ _ _ _ _ _ _ _ _ _ _ _ _ _ _ _ ` n h +.+.+.o.o.o.o.o.o.o.o.o.o.o.o.o.o.o.o.o.o.o.o.",
"o.o.o.+.e T ( _ _ _ ) ) _ _ _ _ _ _ _ _ _ _ _ _ _ _ _ _ _ _ _ _ _ _ _ _ _ ! ` V h +.o.o.o.o.o.o.o.o.o.o.o.o.o.o.o.o.o.o.o.o.o.o.",
"o.o.o.o.9 T _ / ^ / c p _ _ _ _ _ _ _ _ _ _ _ _ _ _ _ _ _ _ _ _ _ H J ^ ^ ^ ` n k @.o.o.o.o.o.o.o.o.o.o.o.o.o.o.o.o.o.o.o.o.o.o.",
"o.o.o.X.8 E _ ^ ^ E X   l _ _ _ _ _ _ _ _ _ _ _ _ _ _ _ _ _ _ _ H . o E _ _ ` g B @.o.o.o.o.o.o.o.o.o.o.o.o.o.o.o.o.o.o.o.o.o.o.",
"o.o.o...8 Q / ~ ^ ~ 6 $ H _ _ _ _ _ _ _ _ _ _ _ _ _ _ _ _ _ _ _ H o O J ` _ ` a B @.o.o.o.o.o.o.o.o.o.o.o.o.o.o.o.o.o.o.o.o.o.o.",
"o.o.@.} , Q ) ^ ^ _ ` _ _ _ _ _ _ _ _ _ _ _ _ ! _ _ _ _ _ _ _ _ ^ E E ~ _ _ | y Z @.o.o.o.o.o.o.o.o.o.o.o.o.o.o.+.o.o.o.o.o.o.o.",
"o.o.o.} , ! ( _ _ _ _ _ _ _ _ _ _ _ ( ( _ _ _ _ | _ _ _ _ _ _ _ _ _ _ _ _ _ / 8 P O.o.o.o.o.o.o.o.o.o.o.o.o.o.o.o.o.o.o.o.o.o.o.",
"o.o.@. .5 ! _ _ _ _ _ _ _ _ _ _ _ _ ( _ _ z 2 2 m | _ _ _ _ _ _ _ _ _ _ _ _ ^ > ] o.o.o.o.o.o.o.o.o.o.o.o.o.o.o.o.o.o.o.o.o.o.o.",
"o.o.o.X.e E ( _ _ _ _ _ _ _ _ _ _ _ _ _ _ 1 l r r _ _ _ _ _ _ _ _ _ _ _ _ _ ! > } O.o.o.o.o.o.o.o.o.o.o.o.o.o.o.o.o.o.o.o.o.o.o.",
"o.o.o.X.0 E _ _ _ _ _ _ _ _ _ _ _ _ _ _ _ T < - T _ _ _ _ _ _ _ _ _ _ _ _ _ T 0 X.O.o.o.o.o.o.o.+.o.o.o.o.o.o.o.o.o.o.o.o.o.o.o.",
"o.o.o...6 Q _ _ _ _ _ _ _ _ _ _ _ _ _ _ _ _ y t W ` _ _ _ _ _ _ _ _ _ ( _ _ l e @.O.o.o.o.o.o.} [ o.o.o.o.o.o.o.o.O.O.@.+.o.o.o.",
"o.o.O.X.4 Q ~ _ _ _ _ _ _ _ _ _ _ _ _ _ _ H < - l ^ _ _ _ _ _ _ _ _ _ _ _ ` > Z @.@.o.o.o.o.X.8 % Y O.o.o.o.o.o.o.O.X.A ' +.o.o.",
"o.o.o.} 5 Q ) _ _ _ _ _ ! _ _ _ _ _ _ _ _ _ W ^ ` ^ _ _ _ _ _ _ _ _ _ _ ` T ; ..o.o.o.o.o.o.{ : 4 j @.o.o.o.o.o.o.O.A + 4 +.o.o.",
"o.o.o.{ 4 ! ) ( _ _ _ _ _ _ _ _ _ _ _ _ _ _ _ _ _ ` _ _ _ _ _ _ _ _ _ ( ` t d @.O.o.o.O.o.X.h 1 6 4 @.o.o.+.o.o.o.@.e 8 , X.o.o.",
"o.o.+.' > ^ _ _ _ _ _ _ _ _ _ _ _ _ _ _ _ _ _ _ _ _ _ _ _ _ _ _ _ _ ` _ D % } o.o.o.+.O.o.q ; x F = N O.o.+.+.+.X.j @ l # P +.o.",
"o.o.+.' 5 ^ _ _ _ _ _ _ _ _ _ _ _ _ _ _ _ _ _ _ _ _ _ _ _ _ _ _ _ _ | W = B o.o.o.+.+.@.Y % W _ ) F * X.o.+.+.+.P = G W c 3 } +.",
"o.o.@.P 6 ` ^ _ _ _ _ _ _ _ _ _ _ _ _ _ _ _ _ _ _ _ _ _ _ _ _ _ _ _ W 3 e o.o.o.o.o.o.@.h u ` ` ` H * X.o.o.o.+.d f ` _ ^ 5 { +.",
"o.o.+.Z y | _ _ _ _ _ ! _ _ _ _ _ _ _ _ _ _ _ _ _ _ ^ _ _ _ _ _ ` D @ % X.o.o.o.o.o.o.O.0 G ` ` / n = o.O.O.o.+.4 D ` ^ ! 4 } +.",
"o.o.@.k l ` ` _ _ _ ^ / z c ( _ | ` ` ` _ _ _ _ _ _ | ` | _ W G t & u , } o.o.o.o.o.o. .5 R ` ^ ` i d @.o.o.o. ., W ^ / J 4 X.O.",
"o.o.+.w m ` _ _ _ _ _ / c < & 1 t l D H E W T T T G V l y 2 - : u E ` t B @.o.o.o.o.+.P 6 _ ^ ^ / 5 U +.+.+.+.Y 3 ( ( / S w +.O.",
"o.o..., R ) _ _ _ ( _ / _ ^ T m z r 1 1 = - = = : : 6 u l n I ^ | ` ` G : X.o.o.+.o.+.e m ` ^ / T = ..+.+.+.+.j a ) ~ / l k @.O.",
"o.o.[ ; Q _ _ _ ^ _ _ / ^ ` ) ) ` ` ` W E W W ^ W | ` ` | _ | ^ ` ` _ ! , ] O.o.+.+.] : ! _ _ / l , +.+.+.+. .: H ( ~ / 6 K +.O."
};
