/* XPM */
static char *result[] = {
/* columns rows colors chars-per-pixel */
"64 64 170 2 ",
"   c #3E3A33",
".  c #473A3D",
"X  c #4C4A4C",
"o  c #5D564D",
"O  c #554D51",
"+  c #5B5751",
"@  c #5C5B5B",
"#  c #665354",
"$  c #62595C",
"%  c #6C615F",
"&  c #616261",
"*  c #6C6262",
"=  c #6C6D6E",
"-  c #736867",
";  c #7B6768",
":  c #726D6D",
">  c #7D6D6C",
",  c #6D7071",
"<  c #737373",
"1  c #7D7575",
"2  c #7D7B75",
"3  c #77797C",
"4  c #7B7B7C",
"5  c #837473",
"6  c #887777",
"7  c #857877",
"8  c #8C7779",
"9  c #857A7A",
"0  c #8C7C7C",
"q  c #927C7D",
"w  c #8B817E",
"e  c #7D7D81",
"r  c #9A7F80",
"t  c #7D8183",
"y  c #838484",
"u  c #8C8383",
"i  c #87898A",
"p  c #8D8D8C",
"a  c #938484",
"s  c #9B8585",
"d  c #958A86",
"f  c #9A8885",
"g  c #948689",
"h  c #9C8788",
"j  c #948B8B",
"k  c #9B8B8C",
"l  c #89928F",
"z  c #90908E",
"x  c #9E908F",
"c  c #9B8E90",
"v  c #8E9192",
"b  c #929394",
"n  c #9D9392",
"m  c #9D9A97",
"M  c #959799",
"N  c #9E9599",
"B  c #979999",
"V  c #9A9B9C",
"C  c #A08787",
"Z  c #A28689",
"A  c #A48B8C",
"S  c #A98F8E",
"D  c #A6918F",
"F  c #A78F91",
"G  c #AC8F91",
"H  c #A39594",
"J  c #AD9494",
"K  c #A39994",
"L  c #A49799",
"P  c #A49C9C",
"I  c #AB9C9D",
"U  c #B29595",
"Y  c #B69897",
"T  c #B49B9B",
"R  c #B99B9C",
"E  c #ACA191",
"W  c #A6A19F",
"Q  c #ACA39E",
"!  c #B3AA9F",
"~  c #B69FA0",
"^  c #BA9FA0",
"/  c #9DA3A3",
"(  c #A3A2A1",
")  c #ABA3A3",
"_  c #A9A7A8",
"`  c #ACAAAB",
"'  c #B1A7A5",
"]  c #BCA2A3",
"[  c #B2AEAC",
"{  c #A9B1AE",
"}  c #B5B0AE",
"|  c #B1AEB0",
" . c #BAAEB3",
".. c #ADB0B0",
"X. c #B4B4B3",
"o. c #B8B4B3",
"O. c #B9B8B8",
"+. c #BCBBBB",
"@. c #C1A09F",
"#. c #C4A3A3",
"$. c #C9A6A7",
"%. c #C7A6A8",
"&. c #C5ABAB",
"*. c #CBABAC",
"=. c #D2ADAE",
"-. c #CFAFB0",
";. c #D2AEB0",
":. c #D8AFB0",
">. c #C0B7B7",
",. c #CCB2B1",
"<. c #D4B2B2",
"1. c #DAB4B5",
"2. c #DEB9B6",
"3. c #DDB7B9",
"4. c #DCBABB",
"5. c #E5B7B7",
"6. c #EAB5B6",
"7. c #E5B9B7",
"8. c #E8B8B7",
"9. c #E7B7B9",
"0. c #EAB7B9",
"q. c #E5B9B9",
"w. c #E9BABB",
"e. c #D7C5AE",
"r. c #CEC0B1",
"t. c #C2C1BE",
"y. c #D8C9B8",
"u. c #E1C0BF",
"i. c #E9D5BF",
"p. c #BABEC0",
"a. c #E7BDC0",
"s. c #E9BCC0",
"d. c #BEC2C4",
"f. c #C4C4C4",
"g. c #CAC5C3",
"h. c #C4C8C7",
"j. c #CACBC6",
"k. c #C4C6CA",
"l. c #C5CACB",
"z. c #CCCBCC",
"x. c #D1CECD",
"c. c #CCD0CD",
"v. c #D2D1CF",
"b. c #D3CED1",
"n. c #CED2D3",
"m. c #D4D4D4",
"M. c #D9D5D6",
"N. c #D4D9D6",
"B. c #D9D9D7",
"V. c #D6D5D8",
"C. c #D9D6D9",
"Z. c #D6DADB",
"A. c #DADADB",
"S. c #E5C1C2",
"D. c #E3D4C3",
"F. c #DBDFE1",
"G. c #E2DFE1",
"H. c #DDE1E3",
"J. c #E2E4E6",
"K. c #E5E7E9",
"L. c #E5EAEC",
"P. c #EAEBEE",
"I. c #ECEEF1",
"U. c #EEF2F5",
"Y. c #EFF7FB",
"T. c #EFF8FD",
"R. c #F2F4F5",
"E. c #F1F7FD",
"W. c #F0F8FE",
"Q. c #F9F9FD",
/* pixels */
"W.W.E.E.E.E.E.E.E.T.W.W.W.T.W.W.W.W.W.W.W.W.W.E.Y.T.W.W.E.W.W.W.W.W.W.W.W.W.T.W.T.T.R.W.W.T.W.W.W.T.T.T.T.E.T.W.W.W.W.W.T.W.W.E.",
"W.E.E.E.E.E.E.E.E.E.W.W.W.E.W.T.W.W.W.W.W.W.T.E.W.E.W.W.W.W.W.W.W.W.W.W.W.W.W.W.T.W.W.W.T.T.W.R.W.T.T.T.E.W.W.W.W.W.W.W.W.W.W.W.",
"T.E.E.W.E.E.E.E.W.W.T.W.E.W.W.W.W.W.E.W.W.Y.W.E.W.W.E.W.E.E.W.E.E.W.W.W.W.W.W.W.T.W.R.W.T.T.T.T.T.W.R.Q.W.W.W.W.W.W.W.W.W.E.W.E.",
"W.W.W.W.W.W.T.W.W.W.W.W.T.W.W.W.W.W.E.E.E.E.W.W.W.W.W.R.E.E.W.W.E.W.Q.Y.W.E.E.E.T.T.Q.E.T.Q.W.W.W.W.W.T.W.W.W.W.T.W.W.W.W.W.W.W.",
"W.W.W.W.W.W.W.W.W.W.E.W.W.T.W.W.W.W.E.E.E.W.W.W.W.W.E.W.W.T.E.W.T.T.T.T.W.E.E.E.Y.W.E.W.W.W.T.W.W.W.W.W.W.W.T.W.W.W.W.W.W.W.W.W.",
"W.W.W.W.W.W.W.W.W.W.T.W.W.W.W.W.W.W.W.W.W.W.W.W.W.W.W.W.W.Q.W.E.T.T.T.E.W.E.E.E.E.T.T.W.W.W.W.W.W.W.W.W.T.W.W.W.W.W.W.W.W.W.W.W.",
"W.T.E.W.T.T.W.W.W.T.W.W.W.W.W.W.W.W.W.W.W.W.T.T.W.Q.T.L.B.X.` X.` ` +.n.K.I.Q.Q.E.Y.Y.T.W.W.W.W.W.W.W.W.W.W.W.W.W.W.W.E.W.W.W.W.",
"W.W.W.T.E.W.W.W.W.W.W.T.W.W.T.E.W.W.W.W.Y.E.T.U.H.d./ z : o q C A J g $ v M ( k.U.Q.Y.E.W.T.Y.E.W.W.T.W.W.W.W.W.W.W.W.W.W.W.W.W.",
"W.W.W.W.W.W.W.W.W.W.W.W.W.E.T.W.W.W.W.Y.E.R.d.B b M X.f.> U S.w.w.w.q.0 _ j.` e e A.R.E.E.Y.Y.W.W.W.T.W.W.W.W.W.W.W.E.W.W.W.W.W.",
"W.W.W.W.W.W.T.W.T.E.W.W.W.W.W.W.W.T.Y.E.J.M 3 X.m.C.A.( 5 4.7.8.8.8.w.R H M.Z.l.$ < g.E.E.Y.E.W.W.W.W.W.W.W.W.W.W.W.W.W.W.W.W.W.",
"T.W.W.W.W.W.W.W.W.W.W.T.E.T.T.W.T.W.E.H.3 @ h.A.m.m.b.7 ] q.7.8.w.7.q.;.s x.m.C.N g r d.E.E.W.E.W.W.W.W.W.T.T.W.W.W.W.W.W.W.W.W.",
"W.W.T.W.W.W.W.W.W.W.W.E.W.T.T.T.Y.Q.N.g * P V.n.v.M.+.0 4.q.5.5.7.7.7.2.a f.V.M...t ' r x.E.W.E.E.E.T.T.W.E.E.T.W.W.W.W.W.W.W.T.",
"W.W.W.W.W.W.T.W.W.W.W.W.W.E.T.Y.U.J.j d 0 x.V.m.m.C.c J a.9.9.5.q.9.w.q.f +.C.M.l.2 <.#.9 n.W.E.E.E.W.T.W.W.W.W.T.E.W.T.W.W.W.W.",
"W.W.W.T.W.W.W.W.W.W.W.R.E.W.Y.Y.R.) H g W M.m.m.V.j.7 -.a.9.9.3.q.5.7.w.D X.M.M.N.p ! S.~ u K.W.E.E.E.W.W.W.W.W.W.W.W.W.E.T.W.W.",
"W.W.W.W.W.W.W.W.W.W.W.T.W.E.Y.Q.z.u &.w j.N.M.b.A.| a q.9.0.9.9.7.7.9.w.J W B.m.N.W J w.a.c P E.E.E.E.E.T.W.T.W.W.W.W.W.T.E.T.W.",
"W.W.W.W.W.W.W.W.W.W.W.W.Y.E.W.R.L ] T x N.m.C.b.V.V ^ s.q.0.q.q.7.7.9.q.R x M.V.B.o.f w.q.,.- V.W.E.E.E.E.W.W.W.W.W.W.W.W.W.W.W.",
"W.T.W.W.W.W.W.W.T.E.T.E.T.E.Q.G.r 4.Z } N.m.V.m.v.g <.7.9.9.q.q.q.q.q.q.%.k m.m.m.f.r 9.w.4.# B E.E.E.W.W.W.W.W.W.W.T.W.W.W.W.W.",
"W.W.W.W.W.W.W.T.E.T.E.T.T.E.Q. .U q.h f.N.m.m.V.g.A 5.5.7.q.q.q.7.8.7.q.$.f v.M.m.l.r :.w.q.8 1 H.E.Y.E.T.W.W.W.T.W.W.W.W.W.W.W.",
"W.W.W.T.W.W.W.W.T.E.E.T.E.W.P.k -.1.c z.n.V.M.m.>.U 8.7.q.q.4.q.7.7.7.w.-.D v.m.m.m.u %.q.a.Z 1 h.W.E.E.W.W.W.W.W.W.W.W.W.W.T.W.",
"W.W.W.W.W.W.W.W.E.T.T.E.T.W.z.A a.:.L m.m.m.m.V.[ U w.7.7.q.7.7.9.w.7.7.1.H v.m.m.m.j #.q.s.A p ` R.E.T.W.W.W.W.W.W.W.W.W.W.W.W.",
"W.W.W.T.T.W.W.W.W.T.T.E.W.R.' @.w.<.Q v.N.m.m.m.) R w.9.q.5.q.5.9.7.9.7.<.H v.m.m.m.N #.0.s.A j b I.Q.Y.T.W.T.W.W.T.W.W.W.T.W.W.",
"W.W.W.W.W.W.W.W.W.W.T.E.W.U.H <.w.=.I m.n.N.V.V.' &.w.7.q.q.5.q.7.9.9.q.1.k v.M.m.m.z #.w.s.F g p L.E.E.W.W.W.W.W.E.W.W.W.W.W.W.",
"W.W.W.W.W.W.W.W.W.W.E.E.W.P.K 3.w.-.L m.n.m.m.V.I *.q.q.5.q.q.5.7.9.q.q.<.g b.b.b.V.g #.w.s.J n v J.E.Y.T.W.W.W.W.T.W.W.W.T.W.W.",
"E.W.W.W.W.W.T.W.W.E.E.R.E.P.n 1.8.=.n m.v.m.m.V.H &.q.5.q.5.5.7.9.7.7.q.*.a m.V.V.m.c $.w.a.T P B K.Q.Y.W.W.W.W.W.W.W.T.W.E.W.W.",
"T.W.W.W.W.E.T.W.W.T.E.E.E.P.H 1.w.:.k v.m.m.m.m.H *.9.9.5.q.5.q.7.q.q.q.;.a m.m.M.m.k =.7.s.J B i J.W.W.T.W.W.W.W.W.W.W.W.W.W.W.",
"W.T.W.W.W.T.W.W.W.W.E.E.W.U.n =.w.<.k c.v.m.m.m.k -.q.9.q.5.q.5.5.9.q.q.*.u m.m.m.b.g ;.w.s.F P y F.Q.W.E.W.W.W.W.W.W.W.E.T.W.W.",
"W.W.W.W.W.W.W.W.T.T.T.E.W.R.H $.w.<.k x.m.m.m.m.j -.q.7.5.q.5.q.q.q.5.q.%.7 c.V.m.x.j :.q.s.h ) p K.E.W.W.T.W.W.E.W.W.T.T.E.T.W.",
"W.T.E.W.W.W.W.T.E.T.T.E.T.Q.) Y w.1.k z.m.m.C.b.a ;.q.7.q.5.q.5.5.q.q.q.@.9 v.V.V.x.g 1.q.q.8 ( v P.E.T.W.W.W.T.T.W.W.W.W.W.W.W.",
"T.W.W.W.W.W.W.E.T.E.T.W.E.W.d.k u.7.h f.V.M.V.c.r *.q.q.q.q.q.q.7.7.7.w.! d m.C.V.f.a 2.9.3.6 m / E.Q.E.W.W.W.W.W.W.T.E.W.W.W.T.",
"W.W.T.W.E.W.W.W.T.E.E.E.W.W.Z.r 3.w.A [ C.M.m.m.a &.q.q.5.q.5.q.q.7.7.w.Y H C.C.m.t.f 7.w.:.5 y z.W.E.T.W.W.T.E.W.W.W.W.W.W.W.W.",
"W.E.T.W.T.W.W.W.E.T.E.E.W.W.R.L ] S.R L M.V.m.n.g %.w.q.q.5.q.5.7.q.7.w.Z P C.b.V.O.Z q.w.;.$ y P.E.Y.W.W.W.W.E.W.W.W.T.W.W.W.E.",
"W.W.W.W.W.W.W.T.T.E.E.E.E.W.Q.b.h 4.*.f x.M.m.N.k #.w.q.5.q.5.q.q.7.7.w.q ) A.V.A.) A s.s.G . ` Q.E.E.T.W.W.T.T.W.W.W.W.W.W.W.T.",
"W.T.W.W.W.W.W.W.W.W.E.W.W.W.T.R.) ] 4.f t.m.m.N.j ^ q.q.7.9.7.7.5.q.q.4.q o.N.M.M.K R w.a.; O G.E.E.E.W.T.E.W.W.W.W.W.W.W.W.W.T.",
"W.W.W.W.W.W.W.T.W.W.E.E.W.T.T.Q.m.d 4.T } V.m.m.j T a.5.9.7.9.9.q.5.q.1.> t.V.m.V.k #.w.4.* ` Q.E.E.E.W.W.W.T.W.W.W.W.W.W.W.T.E.",
"W.W.W.W.W.W.W.W.E.T.Q.T.E.W.Y.E.R.P J ,.H v.M.M.P T s.q.q.5.9.7.5.q.q.<.5 z.m.m.x.0 =.s.] y L.Q.Y.T.E.E.W.W.W.W.W.T.E.W.W.W.W.W.",
"W.W.W.W.T.W.W.W.W.W.R.T.W.T.Y.Y.W.A.8 &.n t.M.M._ J q.q.5.q.7.9.q.5.q.#.0 m.m.C.+.5 5.3.0 d.W.E.E.T.Y.E.W.W.W.T.W.W.W.T.W.W.W.W.",
"W.W.T.W.T.W.W.W.T.W.W.W.W.W.T.T.E.Q.o.u I ) M.M.} J q.q.7.9.8.9.7.7.w.T w V.m.V.I r u.g Q R.R.R.T.T.W.W.W.W.E.W.T.E.W.W.W.W.W.T.",
"W.W.W.W.W.W.W.W.W.W.W.W.W.W.W.W.W.W.U.` g k x.M.>.A y.7.7.5.5.5.7.7.u.A n C.m.Z.u T T p L.T.Q.T.T.T.W.W.W.W.T.W.W.W.W.W.E.T.W.W.",
"T.W.W.W.W.W.W.W.W.W.W.W.T.W.W.W.W.E.E.P.n 1 ` B.g.f 3.9.8.w.5.5.7.7.7.5 X.M.V.z.9 I w F.R.Q.T.T.T.W.W.W.W.W.W.W.W.W.T.W.T.E.W.W.",
"W.W.W.W.W.W.W.W.W.W.W.W.W.W.W.W.W.E.E.E.H.< % x.b.k ;.w.5.w.7.7.7.7.*.5 x.V.V.p.= 2 y.R.T.W.W.E.W.W.W.E.W.W.W.W.T.W.W.W.W.W.W.W.",
"W.W.W.W.W.E.T.W.W.W.W.W.W.T.W.W.W.W.T.E.E.A., l B.W @.w.7.w.7.7.7.a.R u M.V.B.b X O.R.E.W.E.E.E.E.E.E.E.W.W.W.W.W.W.W.W.W.W.W.W.",
"W.W.W.W.W.W.W.W.W.W.W.W.W.W.W.T.W.W.W.E.Q.Q.F.t W } S q.q.7.5.8.q.a.Z P B.V.n.= V E.Y.E.W.W.E.E.E.E.E.W.W.W.W.W.W.W.T.W.E.T.W.W.",
"W.E.T.T.W.W.W.T.W.T.W.W.W.W.W.W.W.W.W.E.W.R.E.V.4 / x 1.4.7.8.8.q.q.q | B.N.V V U.T.Y.Y.W.W.W.W.W.W.W.W.T.E.T.W.W.W.W.W.T.E.W.W.",
"W.W.W.W.E.W.W.W.W.W.W.W.W.W.W.W.W.T.W.W.T.W.E.W.N.t 7 #.u.7.6.6.q.3.8 f.A.{ l L.T.Y.E.E.W.E.E.W.W.W.T.T.T.W.W.E.E.T.W.W.W.W.W.T.",
"W.W.W.W.T.W.W.W.W.W.T.W.W.W.W.W.W.W.W.W.T.R.Q.W.Q.n.@ 0 u.0.6.6.s.<.0 b.d.y Z.Q.R.W.R.W.W.Q.W.W.W.E.T.T.W.W.W.T.W.W.W.E.W.W.W.W.",
"W.T.E.W.W.W.W.T.W.W.W.W.W.W.W.W.W.W.W.W.W.W.W.W.W.Q.p.% <.w.6.6.a.-.0 z.i p.E.T.W.W.T.W.T.T.W.W.W.W.W.W.W.W.W.W.W.W.T.T.W.W.T.W.",
"W.W.W.T.W.W.W.W.W.W.W.W.W.W.W.W.W.W.W.W.W.W.W.W.W.W.E.P A S.w.w.S.#.k V V U.E.E.W.R.W.W.W.W.W.T.W.W.W.W.W.W.T.W.W.W.W.W.W.W.W.E.",
"W.W.W.W.W.T.E.W.W.W.W.W.W.W.W.W.W.W.W.W.W.W.W.W.W.W.E.J.u Q Y E J > * < F.E.E.T.W.T.W.W.W.W.W.W.W.W.T.W.T.W.E.W.W.W.W.W.W.W.W.T.",
"W.E.T.W.W.W.W.W.W.W.W.W.T.T.W.W.W.W.T.W.W.W.W.E.W.W.W.W.B y Q n W ` l b R.R.T.W.W.W.E.W.W.W.T.E.W.W.W.T.T.W.W.W.W.W.W.W.E.W.W.T.",
"T.W.W.W.W.T.W.W.T.W.W.W.E.W.W.W.W.W.E.T.W.W.W.T.W.W.W.Q.c.B T.Q.H.P.l.O.Q.R.T.W.W.W.T.W.W.T.W.W.W.W.W.W.W.E.W.W.W.W.W.W.T.W.W.W.",
"T.W.W.W.T.E.W.W.E.W.W.W.E.T.W.W.W.W.T.E.W.W.W.W.W.W.E.Q.H.< h.p.= 4 4 X.Q.Y.W.W.W.W.T.W.W.W.W.W.W.W.W.W.W.T.W.W.E.W.T.W.W.T.W.W.",
"E.W.W.W.W.W.W.W.W.T.W.W.W.W.W.W.W.W.W.W.W.W.T.E.W.T.W.W.L.& + + o o   / R.T.W.W.W.W.E.W.W.W.W.W.W.W.W.W.W.W.W.W.T.W.W.W.W.E.W.W.",
"W.T.T.W.W.W.W.W.W.W.W.W.T.W.W.W.W.W.W.W.T.E.W.W.W.W.T.W.T.} ! y.e.e.E ..T.T.T.W.T.W.W.W.W.T.W.W.T.E.E.W.T.W.W.W.W.W.W.T.W.W.W.W.",
"W.W.W.E.W.W.W.W.T.T.E.W.W.W.W.W.W.W.W.T.W.W.W.T.W.W.W.W.Q.v.K D.i.D.E h.Q.W.R.W.W.W.W.W.E.T.W.W.W.T.T.W.W.W.T.W.W.W.W.E.W.T.W.W.",
"W.W.W.T.W.W.T.T.W.W.W.W.T.W.W.W.T.W.W.T.W.W.W.W.W.T.W.W.W.I.z ! r.r.d l.W.R.Y.E.W.W.W.W.W.W.W.W.W.W.W.W.W.W.W.E.W.T.W.W.W.W.E.T.",
"W.W.W.W.W.W.E.W.W.W.W.W.W.E.T.W.E.W.W.W.W.W.W.W.W.W.W.W.T.Q.X.2 u 2 z L.E.Y.E.W.W.W.W.T.W.W.W.W.W.W.W.W.W.W.W.T.W.W.W.W.T.W.W.W.",
"W.W.E.T.W.E.W.W.W.W.W.E.T.W.W.T.W.W.W.T.W.W.W.W.T.T.W.W.Y.Y.E.R.U.L.I.T.T.T.T.Q.T.E.T.E.T.E.T.W.T.W.W.W.T.W.W.W.E.T.W.W.W.W.W.W.",
"W.T.W.W.T.T.W.W.E.W.W.W.W.W.W.W.W.W.W.W.W.W.W.W.W.Y.Q.W.T.Y.E.R.T.W.T.T.R.W.W.T.E.T.E.T.E.T.W.E.W.E.T.W.E.W.W.W.W.W.T.E.W.W.T.W.",
"W.W.W.W.W.W.W.W.T.W.T.W.W.W.W.W.W.W.W.W.W.W.W.W.W.W.Q.R.E.W.E.Q.R.W.W.T.W.W.W.W.E.E.E.T.T.W.W.T.W.W.W.W.T.W.W.W.W.W.W.W.W.W.E.W.",
"W.W.W.W.W.W.W.W.W.W.W.W.W.T.E.W.W.T.W.W.W.W.T.W.W.W.E.E.W.W.E.E.Q.W.W.W.W.W.T.W.T.E.T.E.W.W.W.W.W.W.W.W.W.W.W.W.W.W.W.T.W.W.W.T.",
"W.E.W.T.W.T.E.W.W.W.W.W.W.T.W.W.T.W.W.W.W.W.W.T.W.W.T.T.T.T.W.E.E.W.W.W.W.W.W.Y.E.T.E.T.W.W.W.W.W.W.T.E.W.W.T.T.W.W.W.T.W.W.W.T.",
"W.T.W.W.W.W.T.W.W.W.W.T.W.W.E.W.W.W.W.W.W.W.W.W.W.W.W.T.T.T.W.W.W.W.W.T.W.W.W.E.T.E.T.E.W.W.W.T.W.W.T.W.W.W.E.W.W.W.W.W.W.W.T.E.",
"W.W.W.W.W.W.W.W.W.T.W.E.W.W.T.W.W.W.W.W.W.W.W.W.W.W.W.W.W.W.W.W.W.W.W.W.W.W.W.T.W.W.T.W.E.T.W.W.W.W.W.W.W.W.T.W.W.W.T.E.W.W.W.W.",
"W.W.W.W.W.W.W.T.E.W.W.T.W.W.W.W.W.W.W.W.T.W.W.W.W.W.W.W.W.W.W.W.W.W.W.W.W.W.W.W.W.W.W.W.W.W.T.E.W.W.W.W.W.W.W.E.T.W.W.W.W.W.W.W."
};
