/* XPM */
static char *_3a52a76cccf4c4caacb1cf6f3fdbd6fH6NLGODOrHptJbQl[] = {
/* columns rows colors chars-per-pixel */
"64 64 84 1 ",
"  c #1A1A1A",
". c #2C2C2C",
"X c #2F3031",
"o c #333333",
"O c #373738",
"+ c #383738",
"@ c #373839",
"# c #3A3A3B",
"$ c #403F40",
"% c #3F4042",
"& c #444444",
"* c #474748",
"= c #484748",
"- c #4C4B4C",
"; c #4F504F",
": c #504F50",
"> c #555454",
", c #575658",
"< c #575858",
"1 c #5B5B5B",
"2 c #615E5F",
"3 c #5E5E61",
"4 c #646464",
"5 c #686767",
"6 c #676769",
"7 c #666869",
"8 c #6C6B6C",
"9 c #716E6E",
"0 c #6F706F",
"q c #727272",
"w c #797777",
"e c #787877",
"r c #757678",
"t c #787778",
"y c #797A7A",
"u c #817D7D",
"i c #7E8082",
"p c #848485",
"a c #8A8785",
"s c #858788",
"d c #8A8B8D",
"f c #918E8D",
"g c #8F9294",
"h c #949494",
"j c #989695",
"k c #95979A",
"l c #9C9A9B",
"z c #A19D9B",
"x c #A3A09F",
"c c #9A9EA0",
"v c #9EA0A1",
"b c #AAA6A5",
"n c #A6A6A8",
"m c #ABACAD",
"M c #B2AEAE",
"N c #ADAEB1",
"B c #B5B3B3",
"V c #BBB6B6",
"C c #B5B7BA",
"Z c #BBBCBC",
"A c #BDBFC1",
"S c #C3C3C5",
"D c #C6C7C9",
"F c #C6C8CB",
"G c #CBCACB",
"H c #D3CECD",
"J c #CBCFD1",
"K c #CFD0D1",
"L c #D3D4D5",
"P c #D4D7D9",
"I c #D7DBDC",
"U c #DBDCDD",
"Y c #DDDFE1",
"T c #DEE0E2",
"R c #E3E4E5",
"E c #E4E6E9",
"W c #E7E9EA",
"Q c #EAECED",
"! c #EEEFF1",
"~ c #EFF0F1",
"^ c #F3F4F5",
"/ c #F5F7F9",
"( c #F5F9FE",
") c #F9FCFE",
/* pixels */
"((((((((((((((((((((((((((((((((((((((((((((((((((((((((((((((((",
"((((((((((((((((((((((((((((((((((((((((((((((((((((((((((((((((",
"((((((((((((((((((((((((((((((((((((((((((((((((((((((((((((((((",
"((((((((((((((((((((((((((((((((((((((((((((((((((((((((((((((((",
"((((((((((((((((((((((((((((((((((((((((((((((((((((((((((((((((",
"((((((((((((((((((((((((((((((((((((((((((((()((((((((((((((((((",
"((((((((((((((((((((((((((((((((((((((((((((((((((((((((((((((((",
"((((((((((((((((((((((((((((((((((((((((((((((((((((((((((((((((",
"((((((((((((((((((((((((((((((((((((((((((((((((((((((((((((((((",
"((((()((((((((((((((((((((((((((((((((((((((((((((((((((((((((((",
"((((((((((((((((((((((((((((((((((((((((((((((((((((((((((((((((",
"((((((((((((((((((((((((((((((((((((((((((((((((((((((((((((((((",
"((((((((((((((((((((((((((((((((((((((((((((((((((((((((((((((((",
"((((((((((((((((((((((((((((((((((((((((((((((((((((((((((((((((",
"((((((((((((((((((()((((((((((((((((((((((((((((((((((((((((((((",
"((((((((((((((((((((((((((((((((((((((((((((((((((((((((((((((((",
"(((((((((((((((((((((((((((((((((((((((((((((((((((((((()(((((((",
"((((((((((((((((((((((((((((((((((((((((((((((((((((((((((((((((",
"((((((((((((((((((((((((((((((((((((((((((((((((((((((((((((((((",
"((((((((((((((((((((((((((((((((((((((((((((((((((((((((((((((((",
"((((((((((((((((((((((((((((((((((((((((((((((((((((((((((((((((",
"(((((((()((((((((((((((((((((((((()(((((((((((((((((((((((((((((",
"((((((((((((((((((((((((((((((((((((((((((((((((((((((((((((((((",
"((((((((((((((((((((((((((((((((((((((((((((((((((((((((((((((((",
"((((((((((((((((((((((((((((((((((((((((((((((((((((((((((((((((",
"((((((((((((((((((((((((((((((((((((((((((((((((((((((((((((((((",
"((((((((((((((((((((((((((((((((((((((((((((((((((((((((((((((((",
"((((((((((((((((((((((((((((((((((((((((((((((((((((((((((((((((",
"((((((((((((((((((((((((((((((((((((((((((((((((((((((((((((((((",
"((((((((((((((((((((((((((((((((((((((((((((((((((((((((((((((((",
"((((((((((((((((((((((((((((((((((((((((((((((((((((((((((((((((",
"()((((((((((((((((((((((((((((((((((((((((((((((((((((((((((((((",
"((((((((((((((((((((((((((((((((((((((((((((((((((((((((((((((((",
"(((((/((((((((((((((((((((((((((((((((((((((((((((((((((((((((((",
"((((((((((((((()()()())(((((((((((((((((((((((((((((((((((((((((",
"(((((((((((((()))/^^Q^)))(((((((((((((((((((((((((((((((((((((((",
"(((((((((((()/QUGSCNmZIW^)(((((/((((((((((((((((((((((((((((((((",
"(((((((((((/QFs>&+o+-23iCR/)((((((((((((((((((((((((((((((((((((",
"(((((((()^UBu;@#@.  #4wu9sD/))((((((((((((((((((((((((((((((((((",
"(((((((/Ph7*oo-483>-:,5985qnE/((((((((((((((((((((((((((((((((((",
"(((((()Kyo.@-8rrrwwq5;&=2w95hR)(((((((((((((((((((((((((((((((((",
"((((()Pio$4qerqqqqqqrrq<o>lf1lE(((((((((((((((((((((((((((((((((",
"(((()YiX=qwwqqqqqqqqqqwq>X4Zf>N/)(((((((((((((((((((((((((((((((",
"/(()Qg%*8qqqqqqqqqqqq0qww-+yZ9rG)(((((((((((((((((((((((((((((((",
"(/)~n&@8rqqqqqqqqqqqqqqqe8$-VM<c^)((((((((((((((((((((((((((((((",
"())R8@1rqqqqqqq0q0qqqqqq0e>@aS>yY)((((((((((((((((((((((((((((((",
"()^C--rwqqqq8qqqqqqqqqqqqw4+;Z85S)((((((((((((((((((((((((((((((",
"()Ep&1eqqqqqqqqq0qqq0qqqqwq=+Mf5N/((((((((/(((((((((((((((((((((",
"()T8-5eqq0qq0qq0qqqqqqqq0qr1oaMwc(((((((((((((((((((((((((((((((",
"()U1-8rqqqqqqqqqqq0qqqqqqqr5&4Vwi~((((((((((((((((((((((((((((((",
"))P;=8rqqqqqqqqqqqqqqqqqqqr9;;B0rY((((((((((((((((((((((((((((((",
"))J%&0qqqqq00qqqq0qq9qq0qqqq>=Bp7A!(((((((((((((((((((((((((((((",
")~BO*rqqqqqqqqqqq0qq0qqqqqrq<&Vx7v^(((((((((((((((((((((((((((((",
")QkX;rqqqqqqqqqqqqqqqqqqqqqq2=BM3iQ)((((((((((((((((((((((((((((",
")EdX<e0q0qqqqq0qqqqqqqqq8qqq4$MB>8Q)((((((((((((((((((((((((((((",
")Wko>eqqqqq0qqqqqq0qqq0qqqqw4@bM;7Q)(((^((((((((((((((((((((((((",
")Wc@>rqqqqqqqqqqqqqqqqqqqqqq4ozb>rQ)((((((((((((((((((((((((((((",
")Eg@1rq09qqqq0qq0qqqqqqqqqqw5$zz1p~))(((((((((((((((((((((((((((",
")Rdo1eqqqqqqqqqqqqqqqq0qqqqw8-zM9y!)((((((((((((((((((((((((((((",
")Rao1eqqqq0qqqq0qqq0qqqqq0qw8-jHaeQ)((((((((((((((((((((((((((((",
")Yy#2eqqqqqqq0qqqqqqqq00qqqw8=fUkyQ)((((^(((((((((((((((((((((((",
")Ie&5tqq0qqqqqqqqqqqqq0wq0qq8=uLjrE)((((((^(((^(^(((((((((((((((",
")L5%5rqqqq0qqqq90q000qq0q0qw8#qGlqY(((((^(^(((((((^(((((((((((((",
")K3%6rqq0qqqqqqqq0wwqqqqqq0q8&8GvyP/(((((((((^^((((((((((((((((("
};
