/* XPM */
static char *e47765d7cc3042e8d49f970006e4350chmU0Wx0xFKyHuZXR[] = {
/* columns rows colors chars-per-pixel */
"64 64 70 1 ",
"  c #161616",
". c #1C1C1D",
"X c #212122",
"o c #2D2D2D",
"O c #343434",
"+ c #373738",
"@ c #3B3B3B",
"# c #3F3F40",
"$ c #444444",
"% c #474748",
"& c #4C4B4C",
"* c #504F50",
"= c #4F5050",
"- c #545454",
"; c #595957",
": c #565758",
"> c #5C5C5C",
", c #615D5C",
"< c #5E5F61",
"1 c #636363",
"2 c #696667",
"3 c #6B6B6B",
"4 c #706D6D",
"5 c #796F6F",
"6 c #6F6F71",
"7 c #6F7173",
"8 c #737373",
"9 c #777779",
"0 c #77787A",
"q c #7C7C7C",
"w c #807F7F",
"e c #817F80",
"r c #838384",
"t c #878888",
"y c #8B8B8B",
"u c #908E8E",
"i c #939393",
"p c #9B9B9C",
"a c #9E9FA0",
"s c #A3A2A2",
"d c #A5A7A9",
"f c #A7A8AA",
"g c #ABABAC",
"h c #B1AEAE",
"j c #ADAFB1",
"k c #B4B3B3",
"l c #B8B5B5",
"z c #BBBBBB",
"x c #BFBFC0",
"c c #BFC0C2",
"v c #C3C3C3",
"b c #C7C9CA",
"n c #CACBCB",
"m c #CDCFD1",
"M c #CFD1D2",
"N c #D6D6D6",
"B c #D8D7D8",
"V c #D7D9DA",
"C c #DADADB",
"Z c #DDDFE1",
"A c #E2E3E4",
"S c #E6E7E9",
"D c #E5E8EA",
"F c #E9EBED",
"G c #EDEFF1",
"H c #EFF2F4",
"J c #F0F2F4",
"K c #F3F6F9",
"L c #F5F9FE",
"P c #F8FBFE",
/* pixels */
"LLLLLLLLLLLLLLLLLLLLLLLLLLLLLLLLLLLLLLLLLLLLLLLKLLLLLLLKLLLLLLLL",
"LLLLLLLLLLLLLLLLLLLLLLLLLLLLLLLLLLLLLLLLLLLLLLLLLLLLLLLLLLLLLLLL",
"LLLLLLLLLLLLLLLLLLLLLLLLLLLLLLLLLLLLLLLLLLLLLLLLLLLLLLLLLLLLLLLL",
"LLLLLLLLLLLLLLLLLLLLLLLLLLLLLLLLLLLLLLLLLLLLLLLLLLLLLLLLLLLLLLLL",
"LLLLLLLLLLLLLLLLLLLLLLLLLLLLLLLLLLLLLLLLLLLLLLLLLLLLLLLLLLLLLLLL",
"LLLLLLLLLLLLLLLLLLLLLLLLLLLLLLLLLLLLLLLLLLLLLLLLLLLLLLLLLLLLLLLL",
"LLLLLLLLLLLLLLLLLLLLLLLLLLLLLLLLLLLLLLLLLLLLLLLLLLLLLLLLLLLLLLLL",
"LLLLLLLLLLLLLLLLLLLLLLLLLLLLLLLLLLLLLLLLLLLLLLLLLLLLLLLLLLLLLLLL",
"LLLLLLLLLLLLLLLLLLLLLLLLLLLLLLLLLLLLLLLLLLLLLLLLLLLLLLLLLLLLLLLL",
"LLLLLLLLLLLLLLLLLLLLLLLLLLLLLLLLLLLLLLLLLLLLLLLLLLLLLLLLLLLLLLLL",
"LLLLLLLLLLLLLLLLLLLLLLLLLLLLLLLLLLLLLLLLLLLLLLLLLLLLLLLLLLLLLLLL",
"LLLLLLLLLLLLLLLLLLLLLLLLLLLLLLLLLLLLLLLLLLLLLLLLLLLLLLLLLLLLLLLL",
"LLLLLLLLLLLLLLLLLLLLLLLLLLLLLLLLLLLLLLLLLLLLLLLLLLLLLLLLLLLLLLLL",
"LLLLLLLLLLLLLLLLLLLLLLLLLLLLLLLLLLLLLLLLLLLLLLLLLLLLLLLLLLLLLLLL",
"LLLLLLLLLLLLLLLLLLLLLLLLLLLLLLLLLLLLLLLLLLLLLLLLLLLLLLLLLLLLLLLL",
"LLLLLLLLLLLLLLLLLLLLLLLLLLLLLLLLLLLLLLLLLLLLLLLLLLLLLLLLLLLLLLLL",
"LLLLLLLLLLLLLLLLLLLLLLLLLLLLLLLLLLLLLLLLLLLLLLLLLLLLLLLLLLLLLLLL",
"LLLLLLLLLLLLLLLLLLLLLLLLLLLLLLLLLLLLLLLLLLLLLLLLLLLLLLLLLLLLLLLL",
"LLLLLLLLLLLLLLLLLLLLLLLLLLLLLLLLLLLLLLLLLLLLLLLLLLLLLLLLLLLLLLLL",
"LLLLLLLLLLLLLLLLLLLLLLLLLLLLLLLLLLLLLLLLLLLLLLLLLLLLLLLLLLLLLLLL",
"LLLLLLLLLLLLLLLLLLLLLLLLLLLLLLLLLLLLLLLLLLLLLLLLLLLLLLLLLLLLLLLL",
"LLLLLLLLLLLLLLLLLLLLLLLLLLLLLLLLLLLLLLLLLLLLLLLLLLLLLLLLLLLLLLLL",
"LLLLLLLLLLLLLLLLLLLLLLLLLLLLLLLLLLLLLLLLLLLLLLLLLLLLLLLLLLLLLLLL",
"LLLLLLLLLLLLLLLLLLLLLLLLLLLLLLLLLLLLLLLLLLLLLLLLLLLLLLLLLLLLLLLL",
"LLLLLLLLLLLLLLLLLLLLLLLLLLLLLLLLLLLLLLLLLLLLLLLLLLLLLLLLLLLLLLLL",
"LLLLLLLLLLLLLLLLLLLLLLLLLLLLLLLLLLLLLLLLLLLLLLLLLLLLLLLLLLLLLLLL",
"LLLLLLLLLLLLLLLLLLLLLLLLLLLLLLLLLLLLLLLLLLLLLLLLLLLLLLLLLLLLLLLL",
"LLLLLLLLLLLLLLLLLLLLLLLLLLLLLLLLLLLLLLLLLLLLLLLLLLLLLLLLLLLLLLLL",
"LLLLLLLLLLLLLLLLLLLLLLLLLLLLLLLLLLLLLLLLLLLLLLLLLLLLLLLLLLLLLLLL",
"LLLLLLLLLLLLLLLLLLLLLLLLLLLLLLLLLLLLLLLLLLLLLLLLLLLLLLLLLLLLLLLL",
"LLLLLLLLLLLLLLLPPPLLLLLLLLLLLLLLLLLLLLLLLLLLLLLLLLLLLLLLLLLLLLLL",
"LLLLLLLLLLLPLKGFDZDGKPPLLLLLLLLLLLLLLLLLLLLLLLLLLLLLLLLLLLLLLLLL",
"LLLLLLLLPLAzpr1;1>>3ivFPLLLLLLLLLLLLLLLLLLLLLLLLLLLLLLLLLLLLLLLL",
"LLLLLLLLDd;X o@o@;221*3fFPLLLLLLLLLLLLLLLLLLLLLLLLLLLLLLLLLLLLLL",
"LLLLLPAa-@&;>3831,;>3yy-9CPPLLLLLLLLLLLLLLLLLLLLLLLLLLLLLLLLLLLL",
"LLLLLv<O&30888888886,&qg66CLLLLLLLLLLLLLLLLLLLLLLLLLLLLLLLLLLLLL",
"LLLKf#$288888848888882#1ke0DPLLLLLLLLLLLLLLLLLLLLLLLLLLLLLLLLLLL",
"LLPz#-88878888888888886$;s3pKLLLLLLLLLLLLLLLLLLLLLLLLLLLLLLLLLLL",
"LLM;=8868888488888888888&;s1mPLLLLLLLLLLLLLLLLLLLLLLLLLLLLLLLLLL",
"LHw=888888888888886888884#rerJLLLLLLLLLLLLLLLLLLLLLLLLLLLLLLLLLL",
"Ln=28808888888886888887881&h2nPLLLLLLLLLLLLLLLLLLLLLLLLLLLLLLLLL",
"Lp&88;=%;48888488886228888$u8uLLLLLLLLLLLLLLLLLLLLLLLLLLLLLLLLLL",
"Kt,8&,y8%%;$++@@$-&%>&=888;1i3FPLLLLLLLLLLLLLLLLLLLLLLLLLLLLLLLL",
"F3<,%vZZv52qyipr2&1kMz:;883&p>vLLLLLLLLLLLLLLLLLLLLLLLLLLLLLLLLL",
"V;1;;VVNCNNCCCAZCnMCCZu=888&uqsPLLLLLLLLLLLLLLLLLLLLLLLLLLLLLLLL",
"b=11;xCCNNCNCNNNNCCCCZy&880-8uqHLLLLLLLLLLLLLLLLLLLLLLLLLLLLLLLL",
"z&38=%8vCCCBCCZCNNCnlp&>888,3s,ALLLLLLLLLLLLLLLLLLLLLLLLLLLLLLLL",
"z&488-osNuvCnfplMpnroO=888811g;ZLLLLLLLLLLLLLLLLLLLLLLLLLLLLLLLL",
"z%3884#gMpvCg,53bkz&&3888881=k,MPLLLLLLLLLLLLLLLLLLLLLLLLLLLLLLL",
"k+388,%cCCNCv4,sCAiO38888883&h1zPLLLLLLLLLLLLLLLLLLLLLLLLLLLLLLL",
"kO380$1NCNCCCrotVv$&88888888$i3sLLLLLLLLLLLLLLLLLLLLLLLLLLLLLLLL",
"z$381+aCNNNCMt4yh>O388888888=w3pLLLLLLLLLLLLLLLLLLLLLLLLLLLLLLLL",
"z&68#1MCNNCztwr8$.=088888888=qruLLLLLLLLLLLLLLLLLLLLLLLLLLLLLLLL",
"z%3-#zZNCNCk4111iq@687888888>ritPLLLLLLLLLLLLLLLLLLLLLLLLLLLLLLL",
"c$<+yZCCihCCNNNCbp=;8888888818stLLLLLLLLLLLLLLLLLLLLLLLLLLLLLLLL",
"c$=&bCczt;nCNCCCk,q$68488848>3ltKLLLLLLLLLLLLLLLLLLLLLLLLLLLLLLL",
"z&O8CCg1k;pCNNNCM34@,8888888,5z9FPLLLLLLLLLLLLLLLLLLLLLLLLLLLLLL",
"jo@kCNN13>uCCNNNCi#o;0888888<3z6SPLLLLLLLLLLLLLLLLLLLLLLLLLLLLLL",
"g.,CCNCg&=kCNNNCCv@ ;0888888,1z3CPLLLLLLLLLLLLLLLLLLLLLLLLLLLLLL",
"d 8CCNNCbvNNCNNNCC,o3848888811z2VPLLLLLLLLLLLLLLLLLLLLLLLLLLLLLL",
"p.iCNCswNCNNNNNCNCu$88686688,-k1nPLLLLLLLLLLLLLLLLLLLLLLLLLLLLLL",
"tXgCNCz;uCNNNNNNCCg#388888882*k2cLLLLLLLLKLLLLLLLLLLLLLLLLLLLLLL",
"q.fCNCZq;MCNNNNNNCl+188888881$k<kPLLLLLLLLLLLLLLLLLLLLLLLLLLLLLL",
"7 yZNNn,oyNCNNNCCCgX+18888881#k1jPLLLLLLLLLPLLLPLLLLLLPPLLPPPLLL"
};
