/* XPM */
static char *result[] = {
/* columns rows colors chars-per-pixel */
"64 64 138 2 ",
"   c #795C5E",
".  c #7B6566",
"X  c #7F6867",
"o  c #766B6F",
"O  c #7C6E6E",
"+  c #786F72",
"@  c #845E5F",
"#  c #836768",
"$  c #856D6D",
"%  c #8B6C6C",
"&  c #946D6C",
"*  c #92706E",
"=  c #856E71",
"-  c #8D6E70",
";  c #986E72",
":  c #847474",
">  c #8D7273",
",  c #8A7679",
"<  c #867B7B",
"1  c #8B7B7C",
"2  c #947375",
"3  c #9B7374",
"4  c #937579",
"5  c #927E7E",
"6  c #9D7A7C",
"7  c #A7767A",
"8  c #A47A7C",
"9  c #AE7C7E",
"0  c #A97D81",
"q  c #B07C81",
"w  c #8C8283",
"e  c #87888B",
"r  c #918283",
"t  c #988487",
"y  c #938788",
"u  c #938B8D",
"i  c #998B8E",
"p  c #96908F",
"a  c #969192",
"s  c #9C9495",
"d  c #929598",
"f  c #9E979B",
"g  c #979A9E",
"h  c #999C9F",
"j  c #A68181",
"k  c #AE8383",
"l  c #B48285",
"z  c #B88786",
"x  c #B38689",
"c  c #B9848A",
"v  c #BC8A8C",
"b  c #A09699",
"n  c #A59B9D",
"m  c #9F9DA0",
"M  c #A99FA0",
"N  c #9EA2A4",
"B  c #A9A2A3",
"V  c #A3A7AA",
"C  c #AFA7AB",
"Z  c #A6AAAD",
"A  c #ACABAC",
"S  c #B5A7A6",
"D  c #B2ADAE",
"F  c #ACAFB2",
"G  c #B5B3B5",
"H  c #B9B4B5",
"J  c #BAB7BA",
"K  c #B7BABC",
"L  c #B9BABC",
"P  c #C28C8E",
"I  c #C78D94",
"U  c #C59293",
"Y  c #CA9494",
"T  c #CB9598",
"R  c #D39897",
"E  c #D19599",
"W  c #D59B9C",
"Q  c #DB9D9D",
"!  c #E59E9F",
"~  c #E89F9F",
"^  c #DEA09E",
"/  c #E4A19E",
"(  c #E8A09E",
")  c #DC9CA1",
"_  c #E69FA2",
"`  c #E89EA1",
"'  c #DFA2A2",
"]  c #DFA4A9",
"[  c #DFABAA",
"{  c #E5A1A1",
"}  c #E8A1A3",
"|  c #E0A8A6",
" . c #E2A7AA",
".. c #E5ACB0",
"X. c #E3B2B1",
"o. c #E5B7B8",
"O. c #E7BBBB",
"+. c #E9C0BE",
"@. c #C2BFC1",
"#. c #BFC3C5",
"$. c #C0C2C3",
"%. c #CBC6C7",
"&. c #C4C6C9",
"*. c #C8C7CB",
"=. c #C6CACC",
"-. c #CACBCE",
";. c #CCCED1",
":. c #CDD1D2",
">. c #D1D2D2",
",. c #D7D7DB",
"<. c #D5D9DA",
"1. c #DBDBDF",
"2. c #EAC4C4",
"3. c #EECDCC",
"4. c #F0C9CB",
"5. c #EFD1CF",
"6. c #F6DBDB",
"7. c #F7E2DE",
"8. c #DDDEE1",
"9. c #DCE2E4",
"0. c #DFE7E8",
"q. c #E1E2E6",
"w. c #E4E7EB",
"e. c #E4EBED",
"r. c #E8ECEF",
"t. c #F7E3E3",
"y. c #F8E8E6",
"u. c #F6E9EA",
"i. c #F9E9E9",
"p. c #EAEEF2",
"a. c #EBF2F5",
"s. c #EFF7FB",
"d. c #EFF9FD",
"f. c #F1F4F6",
"g. c #F1F7FD",
"h. c #F8F7FE",
"j. c #F0F8FE",
"k. c #F8F9FF",
/* pixels */
"j.j.j.j.j.j.j.j.d.j.d.j.j.j.j.j.j.j.j.j.j.j.j.j.j.j.j.g.j.j.j.j.j.d.d.g.g.j.j.j.j.j.j.j.j.j.j.j.j.j.j.j.j.g.d.j.j.j.j.j.d.j.j.j.",
"j.j.j.j.j.j.j.j.j.j.j.j.j.j.j.j.j.j.d.j.j.j.d.g.j.j.j.d.j.j.d.d.d.d.d.f.g.g.j.j.j.j.j.j.j.j.j.j.j.j.j.j.j.j.j.j.j.d.j.j.j.j.j.j.",
"j.j.j.j.j.j.j.j.j.j.j.j.j.d.j.j.j.j.j.j.j.j.j.g.j.j.d.s.g.g.g.g.g.g.g.d.j.g.g.j.j.j.j.j.j.j.j.d.j.j.d.j.j.j.g.d.j.j.j.j.j.d.j.j.",
"j.j.j.d.j.j.d.j.j.j.j.j.j.g.d.j.j.j.j.j.j.j.j.j.d.j.j.j.j.g.a.e.q.1.8.0.f.g.g.j.j.j.j.j.j.j.j.j.j.j.j.j.j.j.d.j.j.j.j.j.j.j.j.j.",
"j.j.j.j.j.j.j.j.j.j.d.g.j.j.j.j.j.j.j.d.j.j.j.j.g.k.a.>.D p 1 : $ 4 2 $ 5 H e.j.j.j.j.j.j.j.d.j.j.j.j.j.j.j.j.j.j.j.j.j.j.j.j.j.",
"j.j.j.j.j.j.j.j.j.j.j.j.j.j.d.g.j.j.j.j.j.j.j.j.r.H w > 7 z Y W Q ^ Q Q v * $ H a.j.j.g.j.j.j.j.j.j.j.j.d.j.j.j.g.d.j.j.g.d.j.j.",
"j.j.d.j.j.j.j.j.j.j.j.j.g.d.j.j.j.j.d.s.g.g.g.-.5 * U ^ / } { { / { { { { { Y % w 8.g.g.g.d.j.j.j.j.j.j.j.j.j.j.d.j.j.j.j.s.j.j.",
"j.j.j.j.d.j.j.j.d.j.j.j.d.j.j.j.j.j.j.d.s.g.K X v / / / / / { { / } { { { { { ^ 8 O <.k.g.j.j.s.j.d.j.j.j.j.j.j.j.j.j.j.j.j.j.j.",
"d.g.g.d.g.j.j.d.g.d.j.j.d.d.g.d.j.g.g.d.g.H # Y / / ~ ! { ` { { { { { { { } / / { l , 9.j.g.g.g.j.j.g.d.j.j.j.d.j.j.j.j.j.j.j.j.",
"j.j.d.j.d.j.j.g.j.j.j.j.g.j.j.j.j.j.g.g.%.# T { / / / _ { / { { { { { { { { / / / } l < q.j.g.d.j.j.d.j.j.j.j.g.j.j.j.d.j.j.d.g.",
"j.j.j.j.j.j.j.d.g.j.j.j.j.j.j.j.j.j.j.9.5 Y / } { / _ { { { / { { { } / { { / _ ! { { 7 u f.j.j.j.g.j.j.j.j.j.d.j.g.d.g.d.g.j.j.",
"j.j.j.j.j.j.j.j.d.j.j.j.g.j.j.j.j.j.g.S v / ( { { { { _ { { } { / { { { { { { { { / { ' # @.j.j.g.j.j.j.d.g.j.d.j.j.j.d.j.d.j.j.",
"j.j.j.j.j.g.d.j.j.j.j.j.d.j.d.g.j.j.;.0 ' / { { { { { { { { { { } { { { { { { { { { { { U r a.d.g.j.j.j.j.j.j.g.j.j.j.d.j.j.j.g.",
"j.j.d.g.j.j.j.j.j.j.j.j.j.j.j.s.j.a.y I _ _ / { { _ _ ! / { { { { { / } { { } / { / { { { 2 =.j.g.g.j.j.j.j.j.j.j.j.j.g.j.j.j.d.",
"j.j.j.d.j.j.g.d.j.g.d.j.j.j.j.g.j.;.2 _ _ ` { _ ' ] ' / { { { { { { { { { / { { { { { / } v u d.d.g.j.j.j.j.g.d.j.j.j.j.g.d.j.j.",
"j.j.d.g.j.d.j.j.j.d.j.j.j.j.j.s.d.a c } / _ { { o.3.+.' { { { { / _ { { { } { { { { { { { ) 2 8.g.d.g.d.j.j.d.g.d.j.j.d.j.j.j.j.",
"j.j.j.j.j.g.d.j.j.j.j.j.d.j.j.j.9.$ ) { { _ ' o.6.i.t.O._ _ { { { { { { { { { { { { { { { | 3 L j.j.j.j.j.d.j.j.j.j.j.j.j.j.j.j.",
"j.j.d.g.j.j.j.j.j.j.d.j.g.j.j.k.K - } } ' _ X.6.y.u.u.4. .{ { { { / { } ` { { { } { { { { { 9 w j.j.j.j.j.j.j.j.j.j.j.j.j.j.j.d.",
"g.j.j.d.d.g.j.j.j.j.j.j.g.j.j.k.m 3 } } { { 3.y.y.y.5.[ _ { { { { { { / { { / { { { { _ _ { P o p.j.j.j.j.j.j.j.j.j.j.j.j.j.j.j.",
"d.j.j.j.j.d.j.j.j.j.j.d.g.j.g.f.< j } } }  .6.y.u.6.X.{ { { { { / } { { { { } { { / { { { / E : p.j.j.j.j.j.j.j.j.j.d.j.j.j.j.j.",
"j.j.j.j.j.d.j.j.j.j.j.j.d.g.g.f.+ x { { _ ..t.u.y.2.{ { { { { { { { { { { { / { { { { } { { T y a.h.j.j.d.j.d.j.j.j.j.j.j.j.d.j.",
"j.j.j.j.j.g.j.j.j.j.j.j.j.g.s.a.< v } { _ ..6.u.7.X.' { { { { { { { } { { } { { { { { ! { { P i d.j.j.j.j.j.j.j.j.j.j.j.j.j.j.j.",
"j.g.d.j.d.j.j.j.j.j.j.j.g.s.j.a.: I } _ / ] O.2.O.| { ! } / } / { { / { { / / } { { { { { { q f j.j.j.j.j.j.j.j.j.j.j.j.j.j.j.j.",
"j.d.g.d.g.j.j.j.j.j.j.j.g.d.h.a.< U { _ _ _ ' _ { { / / { { { { { { { { { { { { { { { { } { ; J k.j.j.j.j.j.j.j.d.g.d.j.j.j.j.j.",
"j.g.d.j.j.j.j.j.j.d.g.d.j.s.g.g.b U { { _ } { / / / _ _ / { { { { } { { { { { { { { { { ! { > ,.j.j.j.j.j.j.j.d.j.d.j.j.j.d.g.d.",
"j.d.j.j.j.j.j.j.j.j.j.j.s.g.g.j.J l { { _ _ _ ' / { { ! } { { { { / { { { { / } { { { { { R < r.g.j.j.d.j.j.j.g.d.g.d.g.j.j.j.j.",
"j.d.j.j.j.s.j.j.j.j.j.j.j.j.j.d.:.6 | { { { { _ _ { { _ { { { { { { / / { { { / { { { { } z s k.g.j.j.g.d.g.j.j.j.j.j.j.j.j.j.j.",
"j.g.j.j.j.j.j.j.j.j.j.j.j.j.j.j.p.t E { / _ { { { / { { { { / { { { } _ } { { ! ~ { { ~ { > *.j.f.j.j.j.j.d.j.j.j.j.j.j.j.d.g.j.",
"j.j.j.j.j.j.j.j.g.d.j.g.d.j.g.j.j.A 0 } { { _ { { { / { { { / } { { { { / { { { { ^ / { P : p.j.j.j.j.j.d.g.d.j.d.g.d.j.j.j.d.g.",
"j.j.j.d.j.j.j.j.j.j.j.j.j.j.j.j.j.8.4 ) { / ` { { { { { { { { { { { { { { { _ { ' / { | % H j.d.j.j.j.j.j.j.j.j.j.d.g.j.j.j.d.j.",
"d.j.j.g.j.j.d.d.d.j.j.j.j.g.d.j.d.j.G 8 } { _ { { { { { { { { { { { { { { { ` ` / / { l w a.g.j.g.j.j.j.g.d.j.j.j.j.j.j.j.j.j.j.",
"g.d.j.j.d.g.j.g.g.d.j.j.j.d.j.j.j.j.e., Y { { { { { { { { { { { { { { { { { { { / { T : <.s.j.g.j.j.j.j.j.j.j.j.j.j.j.j.j.j.d.g.",
"j.j.g.j.j.j.j.j.j.j.j.j.j.j.j.j.j.j.j.$.= ^ ( / _ _ { / } { { { } / / _ { { ' { / ^ - &.d.d.j.j.j.j.j.j.j.j.j.j.j.j.j.d.j.j.j.j.",
"j.j.d.j.j.d.g.j.j.j.j.j.j.j.j.j.j.j.d.f.M 3 ' / ! { / { / { { { { / { { { { / { ' * A k.j.d.j.j.j.j.j.j.j.j.j.j.j.d.j.j.j.j.j.j.",
"j.j.j.j.j.d.j.j.d.j.j.j.j.j.j.j.j.d.g.j.p.s 8 / / ! / { { { { { { { { { { _ ! ^ 2 s a.j.j.j.j.j.j.j.j.j.j.j.j.j.j.j.j.j.j.d.j.j.",
"g.d.j.j.d.g.j.j.j.j.j.j.j.d.d.j.j.g.f.g.g.r.s j ' } ~ { { { { { { ` _ _ { { Q & s a.j.d.j.j.j.j.j.j.j.j.j.d.j.j.j.j.j.j.j.j.j.j.",
"j.j.j.g.j.d.g.j.j.j.j.j.j.j.j.j.j.g.f.j.d.d.r.b 8 ' { { { { { { { / / ! } U % M a.j.j.s.j.j.j.j.j.j.j.j.j.j.j.j.j.j.j.j.j.j.j.j.",
"d.j.j.d.d.g.d.j.j.j.j.j.j.j.j.j.j.j.g.j.j.j.d.p.n 2 W } { { { ~ / / ( { l = K d.j.d.g.g.j.j.j.d.j.j.j.j.j.j.j.j.j.d.j.j.j.j.j.j.",
"j.j.j.j.j.j.j.j.j.j.j.d.j.j.j.j.j.j.j.j.j.j.j.j.a.D 6 I { / ^ / / } T 2 r 1.j.j.j.j.j.d.j.j.j.j.j.j.j.j.j.d.j.j.j.j.j.j.j.j.j.j.",
"j.j.j.j.j.j.j.j.j.d.g.j.j.j.d.j.j.j.j.j.j.j.j.d.s.f.>.r k / ( ' T 8 < G e.d.h.j.j.j.j.j.j.j.j.j.j.j.d.j.j.j.j.j.j.j.j.j.j.j.j.d.",
"d.g.j.j.g.j.d.g.j.j.j.j.j.j.j.j.j.j.j.j.j.j.j.g.d.d.j.0.B 6 7 @ . C q.k.k.j.d.j.j.j.j.j.j.j.j.j.j.j.j.d.j.j.j.j.j.j.j.j.j.d.j.j.",
"g.d.j.j.d.j.j.d.j.d.j.j.j.j.j.j.j.j.j.j.j.j.j.j.j.j.j.j.j.<.O   1 e.g.h.f.j.d.j.j.j.j.j.j.j.j.j.g.j.j.g.j.j.j.j.j.j.j.j.j.j.j.j.",
"d.j.j.j.j.j.j.j.j.j.j.j.j.j.j.j.j.j.j.j.j.j.j.j.j.j.j.d.g.A 6 ] j f f.g.d.g.g.j.d.j.j.j.d.j.j.j.d.j.j.d.g.d.g.d.j.j.j.j.j.j.g.d.",
"j.j.j.j.g.j.j.j.j.j.j.j.j.d.j.j.j.j.j.j.j.j.j.j.j.j.j.k.-.= Y ^ ^ X :.g.j.g.g.j.j.j.j.j.j.j.j.j.j.j.j.j.j.j.d.j.d.j.j.j.j.j.j.j.",
"d.g.j.j.d.j.j.j.j.d.j.j.j.j.j.j.j.j.j.j.j.j.j.j.j.j.j.j.K o >   5 + L g.j.j.g.j.j.j.j.j.j.j.j.j.j.j.j.d.j.j.j.d.j.j.j.j.j.g.d.j.",
"j.d.j.j.j.j.g.d.j.j.j.j.j.j.j.j.j.j.j.j.j.j.j.j.j.j.d.j.a.9.-.e 9.w.a.d.j.j.g.j.j.j.j.j.j.j.j.j.j.j.d.g.j.j.j.g.j.j.j.s.j.d.g.j.",
"g.d.j.j.g.j.d.j.j.j.j.j.j.d.j.j.j.j.d.j.j.j.j.j.j.j.j.j.d.k.1.g g.j.g.j.d.d.g.j.j.j.j.d.j.j.j.j.j.j.j.j.j.j.d.g.j.j.j.j.j.j.d.j.",
"j.j.j.j.d.j.j.j.j.j.j.j.j.j.j.d.j.j.j.j.j.j.j.j.j.j.j.j.g.j.:.Z g.s.j.g.g.d.j.j.j.j.j.j.j.j.d.j.j.j.d.g.j.j.j.j.d.j.j.j.j.j.j.j.",
"j.j.j.j.d.j.j.j.g.d.j.g.d.j.j.j.j.j.j.j.j.j.j.j.j.j.j.j.j.k.=.F j.g.j.j.j.j.g.j.g.j.j.j.j.j.j.j.j.j.j.j.j.j.j.g.d.j.g.d.j.j.d.j.",
"j.j.j.j.g.d.j.j.j.j.j.d.j.j.j.j.j.j.j.j.j.j.j.j.j.d.j.j.j.j.=.Z h.j.j.j.j.j.d.j.d.j.j.j.j.j.j.j.j.j.g.d.j.j.j.d.d.g.j.j.d.g.j.j.",
"j.j.j.s.j.j.g.j.j.j.j.g.j.j.j.j.j.d.j.j.d.j.j.j.j.j.j.j.j.k.#.N j.j.j.s.j.j.g.d.j.d.j.j.d.g.j.j.j.j.d.g.j.j.j.j.j.j.j.j.d.g.j.j.",
"j.j.j.j.j.j.d.j.j.j.j.d.j.s.j.j.j.j.j.j.j.j.j.j.d.j.j.j.j.j.&.h j.j.j.j.j.j.d.j.j.g.j.j.j.d.j.s.j.j.j.d.j.d.g.j.j.j.j.j.j.j.j.j.",
"j.j.j.j.j.j.j.j.j.j.s.j.j.j.j.j.j.j.j.j.j.j.j.j.j.j.j.j.j.h.:.N j.j.j.j.j.j.j.j.d.j.j.j.j.j.j.j.j.j.j.j.j.j.d.j.j.j.g.d.j.d.g.d.",
"j.j.j.j.g.j.j.j.j.j.j.j.j.j.d.j.d.j.j.j.j.j.j.j.j.j.d.j.j.j.:.N h.d.j.j.d.g.j.j.j.j.j.j.j.j.j.j.j.j.j.d.j.j.g.d.g.j.d.j.j.j.j.j.",
"j.d.j.j.d.g.d.j.j.j.j.j.j.j.j.g.j.j.j.j.d.j.j.j.j.j.j.j.j.g.<.N g.j.j.j.j.j.j.d.j.j.j.g.j.j.j.d.j.j.j.g.g.j.j.j.d.j.j.j.j.d.j.j.",
"d.g.j.j.j.d.j.j.j.j.j.j.j.j.j.d.j.j.j.j.j.j.j.j.j.j.j.j.j.k.>.N f.g.j.j.j.j.j.g.d.j.j.d.j.d.g.g.g.d.j.d.d.j.j.j.j.j.j.j.j.g.j.j.",
"j.j.d.j.j.j.g.j.j.j.j.j.g.j.d.g.j.j.j.j.j.d.d.j.j.j.j.j.d.k.=.N h.d.j.j.j.j.j.j.j.j.j.d.j.j.j.d.j.j.d.g.j.j.j.j.j.j.j.j.j.j.j.j.",
"j.d.g.d.j.j.d.d.g.d.j.j.d.j.j.d.j.j.j.j.j.j.j.j.j.j.j.j.j.j.#.Z h.j.j.j.j.j.j.j.j.j.d.g.j.j.j.j.j.j.j.d.j.j.j.d.j.j.j.j.j.j.d.g.",
"j.j.j.g.j.j.j.j.d.j.j.j.j.j.j.j.j.j.j.j.j.j.j.j.j.j.j.j.j.k.K Z j.j.j.j.j.j.j.j.g.d.j.j.j.j.j.j.j.g.j.j.j.j.d.g.j.d.g.d.j.d.j.j.",
"j.j.j.j.j.j.j.j.j.j.j.j.g.j.j.j.j.j.d.j.j.j.j.j.j.d.j.j.j.j.#.V j.j.j.j.j.j.j.j.j.j.j.j.g.d.j.j.j.d.j.j.d.g.j.d.j.j.d.g.j.g.d.j.",
"j.d.j.j.j.j.j.j.j.d.j.j.d.j.j.d.j.j.j.j.j.d.j.j.j.j.j.j.s.k.&.N j.d.j.j.j.j.j.j.j.d.g.j.g.d.j.j.j.j.j.j.j.j.j.g.j.j.j.d.j.j.j.g.",
"j.g.j.j.s.j.j.j.j.g.d.j.j.j.d.g.j.j.j.j.j.j.j.j.j.j.j.j.g.j.&.N h.j.j.j.j.j.j.j.j.d.d.j.j.g.d.j.j.j.g.d.j.j.j.j.j.j.j.g.j.j.j.d.",
"j.j.d.g.j.j.j.j.g.d.j.j.d.g.j.j.d.j.j.j.j.j.j.j.j.j.j.j.d.k.J g j.j.j.j.j.j.j.j.j.g.j.j.d.j.j.j.j.d.d.j.j.j.j.j.j.j.j.j.j.g.j.j.",
"j.j.j.d.j.j.j.j.j.j.j.j.j.j.j.j.j.j.j.j.j.j.j.j.j.j.d.j.d.k.K d j.j.j.j.j.j.j.j.j.j.j.j.j.j.j.j.j.g.j.j.j.d.g.d.g.d.j.j.d.d.j.j."
};
