/* XPM */
static char *result[] = {
/* columns rows colors chars-per-pixel */
"64 64 64 1 ",
"  c gray35",
". c #656666",
"X c #706F6F",
"o c #747474",
"O c #77797A",
"+ c #7C7C7D",
"@ c #848485",
"# c #8C8787",
"$ c #868788",
"% c #878889",
"& c #8B8C8C",
"* c #938C8D",
"= c #8D8F90",
"- c #8F9192",
"; c #939394",
": c #9F9493",
"> c #959799",
", c #96989A",
"< c #9B9C9C",
"1 c #9B9FA1",
"2 c #9EA2A3",
"3 c #A3A4A4",
"4 c #A8A7A8",
"5 c #A5A9AB",
"6 c #ACACAC",
"7 c #B1A3A3",
"8 c #AAAEB1",
"9 c #B0AFB0",
"0 c #AEB2B5",
"q c #B4B4B3",
"w c #B2B6B9",
"e c #B5BABD",
"r c #BBBBBB",
"t c #C6B7B6",
"y c #C0BFBF",
"u c #B9BDC1",
"i c #BDC2C5",
"p c #C4C4C4",
"a c #C1C6C9",
"s c #C5CACD",
"d c #CBCBCB",
"f c #CFD0CF",
"g c #D0D0CF",
"h c #C7CDD0",
"j c #CDD3D6",
"k c #CED4D8",
"l c #D7D7D7",
"z c #D8D7D7",
"x c #D8D8D7",
"c c #D3D7DA",
"v c #D3D9DD",
"b c #D9D9D9",
"n c #D7DDE1",
"m c #DBE2E6",
"M c #DEE5EA",
"N c #E0E7EB",
"B c #E2E9EE",
"V c #F7E2E0",
"C c #E6EDF2",
"Z c #E8EFF3",
"A c #EAF1F6",
"S c #EEF5FA",
"D c #F0F7FC",
"F c #F0F8FE",
/* pixels */
"FFFFFFFFFFFFFFFFFFFFFFFFFFFFFFFFSFFFFFFFSFFFFFFFFFSFFFFFFFFFFFFF",
"FFFFFFSFFFFFFFFSFFFFSFFFFFFFFFFFFFFFFFFFFFFFFFFFFFFFFSFFFFFFFSFF",
"FFFSFFFFFFFFFFFFFFFFFFFFFFFFFFFFFFFFFFFFFFFFFFFFFFFFFFFFFFFFFFFF",
"FFFFFFFFFFFFFFFFFFFFFFFFFSFFFFFFFFFFFFFSFFFFFFFFFFFFFFFFFFFFFFFF",
"FFFFFFFFFFFFFFFFFFFFFFFFFFFFFFFFFFFFFFFFFFFFFFFFFFSFFFFFFFFFFFFF",
"FFFFSFFFFFFFFFFFSFFFFFFFFFFFFFFFFFFSFFFFFFFFFFFFFFFFFFFFFFFFFFFF",
"FFFFFFFFFFFFFFFFFFFFFFFFFFFFFFFFFFFFFFFFFFFFFFFFFFFFFFFFFFFFFFFF",
"FFFFFFFFFFFSFFFFFFFFFFFFFFFFFSFFFFFFFFFFFFFSFFFFFFFFFFFFFFFFFFSF",
"FFFFFFFFFFFFFFFFFFFFFFFSFFFFFFFFFFFFFFFFFFFFFFFFFFFFFFFFFFFFFFFF",
"FFFFFSFFFFFFFFFFFFFFFFFFFFFFFFSFFFFFFFFFFSFFFFFFFFFFFFFFFFFFFFFF",
"FFFFFFFFFFFFFFFFFFFFFFFFFFFFFFFFSFFFFFFFFFFFSFFFFSFFFFFSFFFFFFFF",
"FFFFFFFFFFFSFFFFSFFFFFFFFFFFFFFFFFFFFFFFFFFFFFFFFFFFFFFFSFFFSFFF",
"FFFFFFFFFFFFFFSFFFFFFFFFFFFFFFFFFFFFFFFFFFFFFFFFFFFFFFFFFSFFFFFF",
"FSFFFFFFFFFFFFFFFFFFSFFFSFFFFFFFFFFFFFFFFFFSFFFFFFFFFFFFFFFFFFFF",
"FFFFFFFFFFFFFFFFFFFFFFFFFFFFFFFFFFFFFFSFFFFFFFFFFFFFFFFFFFFFFFFF",
"FFFFFFFFFSFFFFFFFFFFFFFFFFFFFFFFFFFFFFFFFFFFFFFFFFFFFFFFFFFFFFFF",
"FFFFFFFFFFFFFFFFSFFFFFFFFFFFFFFFFFFFFFFFFFFFFFFFFFFFFFFFFFFFFFFF",
"FFFSFFFFFFFFFFFFFFFFFFFFFFFFFFSFFFFFFFSFFFFFFFFFFFSFFFFFFFFFFFFF",
"FFFFFFFFFFFFFFFFFFFFFFFFFFFFFFFFFFFFFFFFFFFFFFFFFFFFFFFFFFFFFFFF",
"FFFFFFFFFFFFFFFFFFFFFFFSFFSFFFFFFFFFFFFFFFFFFFFFFFFFFFFFFFFFFFFF",
"FFFFFFFFFFFFFFFFFFFFFFFFFFFFFFFFFFFFFFFFFFFFFFFFFFFFFFFFFFFFFFFF",
"FFFFFFFSFFFFFFFFFFFSFFFFFFFFFFFFSFFFFFFFFFFFFFFFFFFFFFFFFFFFFFFF",
"FFFFFFFFFFFSFFFFFFFFFFFFFFFFFFFFFFFFFFFFFSFFFFFFFMhuuavCFFFFFFFF",
"FFFFFFFFFFSAASFFFFFFFFFFFFFFFFFFFFFFFFFFFFFFFFFs-&,24<;&2vFFFFFF",
"FFFFFFFMe<-=&-2pMFFFFFFFFFFFFFFFFFFFFFFFFFFFFN,-rcbbbbbd9%wSFFFF",
"FFFFFN0&3rdfgsw<&8BFFFFFFFFFFFFFFFFFFFFFFFFFj$9xxlblblblxl;5SFFF",
"FFSFs&3dbxxxlbbbf4%aSCvsu06331<1238eacBSFFFs@pbxllllxllllxl;wFFF",
"FFFu&pbbxllxlbllxxd&;-&<36qrrrirrw94<-&;2ss@pbbxllllllllllxf&vFF",
"FFj$dbllxllxllllxlbjpglbbbbbbxbxbbxxbxldq<@pblllllllllllllxxr,FF",
"FA&ibblxllllllllllllblllxbllxlllxxxlbxllbblxllllllllllxlllxxl&vF",
"Fe<bblllxllllllllllxllllxxlllllllxxllllllllllllxllllllxlllxxb4eF",
"F>pxlllllllllllbllllllllllllllllllxxxllllllllxllllllllllllxxbr3F",
"M&llllbllllllblllllllllllllllllllllllxlcllllllllllllllllllllbd;S",
"s;bllllllllllllllllllllllllllllllllllllxlllblllllbllllblllllld;S",
"w3bblllllblllllllllllllllllbllllllxlllllllllllllllllllllllllbp>S",
"q4blllllllllllllllllbllllllllllllllllxllllllllllllllllllllllbq5F",
"e1bblllllllllllllblllbllllllllllllllllllllllllllllllllllllllb>sF",
"j;xxllllllllllllllllllllllbllllbllllllxllllllllllllllllllllbd&AF",
"A&dxllbllllllllllllllllllllllllllbxlllllllllllllllllllllllll>rFF",
"F03blllllllllblllllllllllllllllllllllllllllllllllbllllblllb6>DFF",
"FB%dblllllllblllllllllllllllllllllllllllllllllllllzxllxxbl4-BFFF",
"FFs&gblllllllllllllllllllllllllllllllllllllllllllzzblxbbg<>CFFFF",
"FFFw&pbbzllblllllbllllllllblllllllllllllllllllllllbbxly1#wSFFFFF",
"FFFFs&3plbbbbllllllllllblq;llllbllllldglllllll@<bbw>=%<eNFSFFFFF",
"FFFFFBw;&,3<qbllllllllllbq>llllllbd>;*#;llllllrpbl%ivCFFFFFSFFFF",
"FFFFFFFSNji6&blllllllllllbblllbllbd+tV7*llllllbbld=SFFFFFFFFFFFF",
"FFFFFFFFFFFk<lblllllblllllllllllllbp#:#gllllllllby<FFFFFFFFFFFFF",
"FFFFFFFFFFFu3blllllllllllllllllllllbdopbllllllllb3rFFFFFFFFFFFFF",
"FFFFFFFFFFF5qblllllllllllllllllllxllx&pllllllxxxx-nFFFFFFFFFFFFF",
"FFFFFFFFFFS;dxlllllllllllllllllllllgd+rdlllllxxxi;FFFFFFFFFFFFFF",
"FFFFFFFFFFm&lllllllblllllllllllllll6&+$;sxxlllxb,iFFFFFFFFFFFFFF",
"FSFFFFFFFFu2blxlllllbllllllbllblllllllllxxllllxy=AFFFFFFFFFFFFFF",
"FFFFFFFFFF>rxlllllllxlllllblllllllxlllllxllxlll&sFFFFFFFFFFFFFFF",
"FFFFFFFFFv=lllllllllllllllllllllllllllllxllcll<3FFFFFFFFFFFFFFFF",
"FFFFFFFFF19xllllllllllllllllllllllllllllllllb4,AFFFFFFFFFFFSFFFF",
"FFFFFSFFv&llllllxlllllllllllllllxlllllllllxl<,CFFFFFFFFFFFFFFFFF",
"FFFFFFFS,qblzllllllllllxlllllbblllbbbbllbxr&5SFFFFFFve&>wAFFFFFF",
"FFFFFFFi;blllllllxllxlllllbd&3plbbbbbbbdq=>jScvFFFFs$&XX@O9DFFFF",
"FFFFFFN@dbllxlxlllllllllllxzp<@@;<332;%@.em>@&+1jFF2r9 .+;@NFFFF",
"FFFFFS,6bxllllllllllllllllbbbblpq43349yl6626yl9,OeA>pry9&O.BFFFF",
"FFFFF0<bllllllllllllllxllzlllxlbbbbbbbbxg@+gxxxby@h;dbbbb9;FFFFF",
"FFFFi&gllllxllllllxlllllllllllllbzzlxxzzb@4bxxxxl&r-llllx>sFFFFF",
"FFFb@dbllllllllxlllxllllxlllllllllllllzbq&llxllx6204blbbf&ZFFFFF",
"FFC%rblxllllllllllllllllllllllllllllllll$uxlllxl%c-dblxbq3FFFFFF"
};
