/* XPM */
static char *result[] = {
/* columns rows colors chars-per-pixel */
"64 64 66 1 ",
"  c gray35",
". c #656666",
"X c #706F6F",
"o c #747474",
"O c #77797A",
"+ c #7C7C7D",
"@ c #848485",
"# c #8C8787",
"$ c #868788",
"% c #878889",
"& c #8B8C8C",
"* c #938C8D",
"= c #8D8F90",
"- c #8F9192",
"; c #939394",
": c #9F9493",
"> c #959799",
", c #96989A",
"< c #9B9C9C",
"1 c #9B9FA1",
"2 c #9EA2A3",
"3 c #A3A4A4",
"4 c #A3A6A8",
"5 c #A8A7A8",
"6 c #A5A9AB",
"7 c #ACACAC",
"8 c #B1A3A3",
"9 c #AAAEB1",
"0 c #B0AFB0",
"q c #AEB2B5",
"w c #B4B4B3",
"e c #B2B6B9",
"r c #B5BABD",
"t c #BBBBBB",
"y c #C6B7B6",
"u c #C0BFBF",
"i c #B9BDC1",
"p c #BDC2C5",
"a c #C4C4C4",
"s c #C1C6C9",
"d c #C5CACD",
"f c #CBCBCB",
"g c #CFD0CF",
"h c #D0D0CF",
"j c #C7CDD0",
"k c #CACFD2",
"l c #CDD3D6",
"z c #D7D7D7",
"x c #D8D7D7",
"c c #D8D8D7",
"v c #D3D7DA",
"b c #D8D7D8",
"n c #D3D9DD",
"m c #D9D9D9",
"M c #D7DDE1",
"N c #DBE2E6",
"B c #DEE5EA",
"V c #E0E7EB",
"C c #E2E9EE",
"Z c #F7E2E0",
"A c #E6EDF2",
"S c #E8EFF3",
"D c #EAF1F6",
"F c #EEF5FA",
"G c #F0F7FC",
"H c #F0F8FE",
/* pixels */
"HHHHHHHHHHHHHHHHHHHHHHHHHHHHHHFHHHHHHHHHHHHHHHHFHHHHHHHHHHHHHHHH",
"HHHHHHFHHHHHHHHFHHHFHHHHHHHHHHHHHHHHHHHFHHHHHHHHHHHHHHHHHHFHHHHH",
"HHHFHHHHHHHHHHHHHHHHHHHHHHFHHHHHHHHHHHHHHHHHHHHHHHHHHHHHHHHHHHHH",
"HHHHHHHHHHHHHHHHHHHHHHHHHHHHHHHHHHHHHHHHFHHHHHHHHHHHHHFHHHHHHHHH",
"HHHHHHHHHHHHHHHHHHHHHHHHHHHHHHHHHHHHHHHHHHHHHHHHHHHHHHHHHHHHHHHH",
"HHHHFHHHHHHHHHHHHHHHHHHHHHHHHFHHHHHHHHHHHHHHFHHHHHHHHHHHHHHHHHFH",
"HHHHHHHHHHHHHHHHHHHHHHHHHHHHHHHHHHHHHHHHHHHHHHHHHHHHHHHHHHHHHHHH",
"HHHHHHHHHHHFHHHHHFHHHHHHHHHHHHHHHHHFHHHHHHHHHHHHHHFHHHHHHHHHHHHH",
"HHHHHHHHHHHHHHHHHHHHHHHHHHHHHHHHHHHHHHHHHHHHHHHHHFHHHHHHHFHHHHHH",
"HHHHHFHHHHHHHHHHHHHHHHHHHHHHHHHHHHHHHHHFHHHHHHHHHHHHHHHHHHHHHHHH",
"HHHHHHHHHHHHHHHHHHHHHHHHFHHHHHHHHHHHHHHHHHHHHHHFHHHHHHHHHHHHHHHH",
"HHHHHHHHHHHFHHHHHHHFHHHFHHHHHHHHHHHFHHHHHHHHHHHHHHHHHHHHHHHHHHFH",
"HHHHHHHHHHHHHHFHHHHHHHFHHHHHHHHHHHHHHHHHHHHHHHHHHHHHHHHFHHHFHHHH",
"HFHHHHHHHHHHHHHHHHHHHHHHHHHHHHHHHHHHHHHHHHHHHHHHHHHHHHHHHHHHHHHH",
"HHHHHHHHHHHHHHHHHHHHHHHHHHHHHHHHHHHHFHHHHHFHHHHHHHHHHHHHHHHHHHHH",
"HHHHHHHHHFHHHHHHHHHHHHHHHHHHHHHHHHHHHHHHHHHHHHHHHHHHHHHHHHHHHHHH",
"HHHHHHHHHHHHHHHHHHHHHHHHHHHHHHHHHHHHHHHHHHHHHHHHHFHHHHHHHHHHHHHH",
"HHHFHHHHHHHHHHHHHHHHHHHHHHHHHHHHHHHHHFHHHHHFHHHHHHHHHHHHHHHHHHHH",
"HHHHHHHHHHHHHHHHHHHHHHHHHHHHHHHHHHHHHHHHHHHHHHHHHHHHHHHHHHHHHHHH",
"HHHHHHHHHHHHHHHHHHHHHHHHHHHHHHHHHHHHHHHHHHHHHHHHHHHHHHHHHHHHHHHH",
"HHHHHHHHHHHHHHHHHHHHHHHHHHHHHHHHHHHHHHHHHHHHHHHHHHHHHHHHHHHFHHHH",
"HHHHHHHFHHHHHHHHHHHHHHHHHHHHHHHHHFHHHHHHHHHHHHHHHHHHHHHHHHHHHHHH",
"HHHHHHHHAvptpkNFHHHHHHHHHHHHHHHHHHHHHHHHFHHHHHHHHHHHHHHHHHHHHHHH",
"HHHHHHn2&;133>&>dFHHHHHHHHHHHHHHHHHHHHHHHHHHHHHHHHFAAFHHHHHHHHHH",
"HHHHFe%7hbmmmmzt;,NHHHHHHHHHHHHHHHHHHHHHHHHHHHHCp2-&--,iBHHHHHHH",
"HHHH6;zxxzzmzzzcz0%lHHHHHHHHHHHHHHHHHHHHHHHHHC6%<rfhlft2%9CHHHHH",
"HHHr;zczzzzbzbzzcma@dHHHDBnde9221<1334epdnAFs#5zcmczzxcml3%jHHHH",
"HHn%gczzzzzzzczzccma%fd3;=;<4wettptttw73,---&fmcxxzzzxzzcma%pHHH",
"HG,tcczzzzzzbzzzczzca@,efzccmccccccmccmmzzhazmzzxzzzzczbcccg%lHH",
"Hn=ccczzzzzczzzbzzzzzzcczzzzcczzbzzzzccczzzbzzzzxzczzzzzvccca%SH",
"Hr3mczzzbzzzzzczzzzzzzzzzzzzccczbzzzzzczzzzzzzzczzzzzzzzczccm,iH",
"H3tmzzzczzzzzzzzzczzzzzzzzzzcczzzzczzzzzzzzzzzzzzzzzzzzczzccma;G",
"F;fczzzvzczzzzzzzzczczzbzczbzzzzbzzczzzzzzczzbzzzzczzzzzczzzzz&N",
"D;fzzczzzzbzzzzzzzzzzzzzzzzzzzzzczzbzzzzzzzzzzzzzzzzzzzzzvzczc,d",
"H>aczzzzzzzzzcczbzzzzzzzzzzzzzzzzzzzzzbzzzzzzzvzzzzzbzzzzzzzxm3e",
"H4eczzzzzzzzzzzzzzzbzzzzzzzzzzzzzzzzzzczbzzzzzczzzzzzzczzzzzxm4e",
"Hf>mcbbzzbzzzzzzzczzzzzzzzzczzzzzzzzzzvzzzzczzzzczbzzzzzzczzxm3r",
"HF&fccbbzzzczzzzzzzzbzzcbzzzzzzzzzzzzzzzbzzzzzczzzzzzzzzbzzzzc;l",
"HHi>mcczzzzzczzzzzbzzzzczbzzzzzzzzzczzczzzzzzbzzzzzczczzzzcccf&S",
"HHD>5czzbzzzzzzzvzzzzzzzzzzzzzzzzczzzzzzzzczzzzzzzzzzzzbzzccm3qH",
"HHHC-7ccccczzzzzczzzzzzzzzzzzzzzzzzbzzzzzzzzzczzzzzzvzzzzzxca%CH",
"HHHHC,,fccczzxzzzzzzzzzzzzzzzzzzzzzzbbbzzzzzzzzzzczzczzczzxl&sHH",
"HHHHHFr%2uzmcxzczzzzzzzzzzzzzzzzzzzzzccczzbzzzzzzzczzzcccmf&eHHH",
"HHHHHHHVr>&;,txm1@zzzzzzzzfgzzzzzzzcz;qczzczzzzczzcmmmcza3&sHHHH",
"HHHHHHHHHHCnp%zmatzzzzzz*#*:>fzzzbzzz>wczzzbzzzzzcce,3>&;rCHHHHH",
"HHHHHHHHHHHHF-fczmzzzczz;8Zy@fzzzzbzccczzzzzzzzzzzm&qpgNGHHHHHHH",
"HHHHHHHHHHHHH1tmzzzzzzzzf&:#uxzzzczzzzzzbczzczzvxxm>zHHHGHHHHHHH",
"HHHHHHHHHHHHHr3czzzzzzzzxaofcxzzzzzzzcbzzzzzzzzzxxc3pHHHHHHHHHHH",
"HHHHHHHHHHHHHM-zbbzzzzczcf%czzzzzzzzzzzzzzzzzzzczzmw4HHHHHHHHHHH",
"HHHHHHHHHHHHHF;uczzzzzccfe+fzzzzzczzzzvzzzzzzzzzzcma;FHHGHHHHHHH",
"FHHHHHHHHHHHHHp,czzzzzcs;#+&7czczzzzzczzczzzzzzzzzmz&NHHHHHHHHHH",
"HHHHHHHHHHHHHHD-aczzbzbzzzxzzzzzzzzzzzczzzczzzzzzzzm2pHHHHHHHHHH",
"HHHHHHHHHHHHHHHk&zzzczzzzzzzzzzzzzczzbzzzbzzczzzzzzmu>HHHHHHHHHH",
"HHHHHHHHHHHHHHHG4<czzzzzzzzzzzzzzzzzzzzzzzzzvzzzzzzzc&nHHHHHHHHH",
"HHHHFHHHHHHHHHHHD,3czzczzzzzzzzzzzbzzzzzzzczbzzzczzzm01HHHHHHHHH",
"HHHHHHHHHGHHHHHHHA><zccczzzzzzzzzzzzzczzbzzzzzzzzzzzcz%nHHHHHHGH",
"HHHHGHDe,&rnGHHHHHF6&tccxcxxbmccccmzzxzzzzzzczzzzzczzmw>GHHHHHHH",
"HHHHG0O#oX&$dHHHHnnFl>;wfcmmmmmmza4&fcczzzzbzzczzzzzcxx>pHHHHHHH",
"HHHHB@;+. 0t2HHl1+%@,Ne.##;233<;@$<azzzzzzbzzzzzzzzzzzcs%BHHHHHH",
"HHHHC.O&0tta;Dr+,7za5377hp05345eazmmzzzzzczzzzzbzzzzzzcc7,FHHHGH",
"HHHHH>0mmmcf;j@tmzzmz++zccmmmmmccbzzzzzzzzzzczzzzzbzzzzzc>qHHHHH",
"HHHHHs>ccccc-p&zzzzzz5$ccccmczccbzzzzczzzczzbzzzzczzzzczcz&pHHHH",
"HHHHHD&fcczc5q37zzzzzz&wmzczzbzzzczzzbzzbzzzzzzzczzzzzczccf$mHHH",
"HHHHHH3ecczcf-n%zzzzzbt@zzzczzzzzzzzczzzzzzzzzzzbzzzzzzzzzmt%CHH"
};
