/* XPM */
static char *d53d15ec99b840c7b9ef111ede62292blMUdMNYYlk7icaWV[] = {
/* columns rows colors chars-per-pixel */
"128 128 11 1 ",
"  c #B8D6DB",
". c #B9D7DC",
"X c #B9D7DB",
"o c #B8D8DA",
"O c #B8D8DC",
"+ c #B9D6DD",
"@ c #B8D7DB",
"# c #B9D7DD",
"$ c #B8D8DB",
"% c #B8D7DA",
"& c white",
/* pixels */
"                                                                ....XooooooooooooO...+..........................................",
"                                                                ....XooooooooooooO...+..........................................",
"                                                                ....XooooooooooooO...+..........................................",
"                                                                ....XooooooooooooO...+..........................................",
"                                                                    @ooooooooooooO...+..........................................",
"                                                                    @ooooooooooooO...+..........................................",
"                                                                    @ooooooooooooO...+..........................................",
"                                                                    @ooooooooooooO...#..........................................",
"                                                                     XXXXXXXX$ooo$$$$$.#++++++#.................................",
"                                                                     ........XooooooooX########.................................",
"                                                                     ........XooooooooX.........................................",
"                                                                     ........XooooooooX.........................................",
"                                                                     ........@oooooooo@.........................................",
"                                                                             @oooooooo$$$$$$$$O.................................",
"                                                                             @ooooooooooooooooo.................................",
"                                                                             @oooooooooooooooooX................................",
"                                                                             @oooooooooooooooooX................................",
"                                                                                      %oooooooo$$$$$$$$$........................",
"                                                                                      %ooooooooooooooooo........................",
"                                                                                      %ooooooooooooooooo........................",
"                                                                                      %ooooooooooooooooo........................",
"                                                                                      %ooooooooooooooooo........................",
"                                                                                      %ooooooooooooooooo........................",
"                                                                                      %ooooooooooooooooo........................",
"                                                                                      %ooooooooooooooooo........................",
"                                                                                      %ooooooooooooooooo........................",
"                                                                                       @@@@@@@@oooooooooo$$$$$$$$...............",
"                                                                                               %oooooooooooooooo$...............",
"                                                                                               %oooooooooooooooo$...............",
"                                                                                               %oooooooooooooooo$...............",
"                                                                                               %oooooooooooooooo$...............",
"                                                                                               %oooooooooooooooo$...............",
"                                                                                               %oooooooooooooooo$...............",
"                                                                                               %oooooooooooooooo$...............",
"                                                                                               %oooooooooooooooo$...............",
"                                                                                                       @ooooooooooooooooo@......",
"                                                                                                        ooooooooooooooooo$......",
"                                                                                                        ooooooooooooooooo$......",
"                                                                                                        ooooooooooooooooo$......",
"                                                                                                        ooooooooooooooooo$......",
"                                                                                                        ooooooooooooooooo$......",
"                                                                                                        ooooooooooooooooo$......",
"                                                                                                        ooooooooooooooooo$......",
"                                                                                                        @%%%%%%%ooooooooo$XXXXXX",
"                                                                                                                @ooooooooooooooo",
"                                                                                                                @ooooooooooooooo",
"                                                                                                                @ooooooooooooooo",
"                                                                                                                @ooooooooooooooo",
"                                                                                                                @ooooooooooooooo",
"                                                                                                                @ooooooooooooooo",
"                                                                                                                @ooooooooooooooo",
"                                                                                                                @ooooooooooooooo",
"                                                                                                                 %%%%%%%%%oooooo",
"                                                                                                                         @oooooo",
"                                                                                                                         @oooooo",
"                                                                                                                         @oooooo",
"                                                                                                                         @oooooo",
"                                                                                                                         @oooooo",
"                                                                                                                         @oooooo",
"                                                                                                                         @oooooo",
"                                                                                                                         @oooooo",
"                                                                                                                          %%%%%%",
"                                                                                                                                ",
"                                                                                                                                ",
"                                                                                                                                ",
"                                                                                                                                ",
"                                                                                                                                ",
"                                                                                                                                ",
"                                                                                                                                ",
"                                                                                                                                ",
"                                                                                                                                ",
"                                                                                                                                ",
"                                                                                                                                ",
"                                                                                                                                ",
"                                                                                                                                ",
"                                                                                                                                ",
"                                                                                                                                ",
"                                                                                                                                ",
"                                                                                                                                ",
"                                                                                                                                ",
"                                                                                                                                ",
"                                                                                                                                ",
"                                                                                                                                ",
"                                                                                                                                ",
"                                                                                                                                ",
"                                                                                                                                ",
"                                                                                                                                ",
"                                                                                                                                ",
"                                                                                                                                ",
"                                                                                                                                ",
"                                                                                                                                ",
"                                                                                                                                ",
"                                                                                                                                ",
"                                                                                                                                ",
"                                                                                                                                ",
"                                                                                                                                ",
"                                                                                                                                ",
"                                                                                                                                ",
"                                                                                                                                ",
"                                                                                                                                ",
"                                                                                                                                ",
"                                                                                                                                ",
"                                                                                                                                ",
"                                                                                                                                ",
"                                                                                                                                ",
"                                                                                                                                ",
"                                                                                                                                ",
"                                                                                                                                ",
"                                                                                                                                ",
"                                                                                                                                ",
"                                                                                                                                ",
"                                                                                                                                ",
"                                                                                                                                ",
"                                                                                                                                ",
"                                                                                                                                ",
"                                                                                                                                ",
"                                                                                                                                ",
"                                                                                                                                ",
"                                                                                                                                ",
"                                                                                                                                ",
"                                                                                                                                ",
"                                                                                                                                ",
"                                                                                                                                ",
"                                                                                                                                ",
"                                                                                                                                ",
"                                                                                                                                ",
"                                                                                                                                ",
"                                                                                                                                "
};
