/* XPM */
static char *result[] = {
/* columns rows colors chars-per-pixel */
"64 64 10 1 ",
"  c #B8D6DB",
". c #B9D7DC",
"X c #B8D8DB",
"o c #B8D8DA",
"O c #B8D7DA",
"+ c #B8D7DB",
"@ c #B9D7DB",
"# c #B9D7DD",
"$ c #B8D7DC",
"% c white",
/* pixels */
"                                ..XoooooX.......................",
"                                ..XoooooX.......................",
"                                  OoooooX.......................",
"                                  OoooooX.......................",
"                                  +...@ooXX.###.................",
"                                  .....oooo@....................",
"                                      +ooooX$$$.................",
"                                       oooooooo+................",
"                                       OOOOooooX@@@@............",
"                                           Ooooooooo............",
"                                           Ooooooooo............",
"                                           Ooooooooo............",
"                                           Ooooooooo............",
"                                               Ooooooooo@.......",
"                                               +oooooooo@.......",
"                                               +oooooooo@.......",
"                                               Ooooooooo@.......",
"                                                ++++ooooX+++@...",
"                                                    ooooooooX...",
"                                                    ooooooooX...",
"                                                    ooooooooX...",
"                                                    OoooooooX...",
"                                                        Oooooooo",
"                                                        Oooooooo",
"                                                        Oooooooo",
"                                                        Oooooooo",
"                                                         +++Oooo",
"                                                             ooo",
"                                                             ooo",
"                                                             ooo",
"                                                             OOO",
"                                                                ",
"                                                                ",
"                                                                ",
"                                                                ",
"                                                                ",
"                                                                ",
"                                                                ",
"                                                                ",
"                                                                ",
"                                                                ",
"                                                                ",
"                                                                ",
"                                                                ",
"                                                                ",
"                                                                ",
"                                                                ",
"                                                                ",
"                                                                ",
"                                                                ",
"                                                                ",
"                                                                ",
"                                                                ",
"                                                                ",
"                                                                ",
"                                                                ",
"                                                                ",
"                                                                ",
"                                                                ",
"                                                                ",
"                                                                ",
"                                                                ",
"                                                                ",
"                                                                "
};
