/* XPM */
static char *result[] = {
/* columns rows colors chars-per-pixel */
"64 64 104 2 ",
"   c #141414",
".  c #181717",
"X  c #1C1C1C",
"o  c #242323",
"O  c #2C2C2C",
"+  c #2D2F30",
"@  c #353636",
"#  c #343638",
"$  c #3A3A3A",
"%  c #3E4041",
"&  c #434343",
"*  c #444749",
"=  c #47484A",
"-  c #4B4C4D",
";  c #514B4D",
":  c #4E5152",
">  c #535455",
",  c #5D5356",
"<  c #535855",
"1  c #545659",
"2  c #55595B",
"3  c #5B5C5C",
"4  c #5C5E60",
"5  c #5E6163",
"6  c #636464",
"7  c #696365",
"8  c #636669",
"9  c #686768",
"0  c #676A6B",
"q  c #6B6A6A",
"w  c #676D71",
"e  c #6D6F71",
"r  c #6D7172",
"t  c #727373",
"y  c #767A75",
"u  c #747779",
"i  c #75787A",
"p  c #7C7C7C",
"a  c #847C7F",
"s  c #7B7E81",
"d  c #7F8182",
"f  c #828384",
"g  c #828688",
"h  c #898788",
"j  c #85898B",
"k  c #8A8C8C",
"l  c #90918E",
"z  c #8C8F91",
"x  c #8C9192",
"c  c #929394",
"v  c #969896",
"b  c #939698",
"n  c #96999A",
"m  c #9B9B9B",
"M  c #A2A09F",
"N  c #9C9EA0",
"B  c #9DA1A4",
"V  c #A3A4A4",
"C  c #A7A8A7",
"Z  c #A4A7A9",
"A  c #A6A9AB",
"S  c #ABACAC",
"D  c #ACAFB1",
"F  c #ACB1B3",
"G  c #AFB6B9",
"H  c #B3B4B4",
"J  c #B4B6B8",
"K  c #BDB5B8",
"L  c #B7BABC",
"P  c #BBBCBC",
"I  c #BBBFC2",
"U  c #BEC2C4",
"Y  c #C3C4C4",
"T  c #C8C6C5",
"R  c #C2C6C9",
"E  c #C5CACC",
"W  c #CBCCCC",
"Q  c #D2CDCF",
"!  c #CED0CF",
"~  c #C6CDD0",
"^  c #CACED2",
"/  c #D2CFD1",
"(  c #CED2D3",
")  c #D7D7D7",
"_  c #D9D6D6",
"`  c #D6D8D6",
"'  c #D8D8D7",
"]  c #D5D7D8",
"[  c #D9D7D8",
"{  c #D6D9DA",
"}  c #D9D9D9",
"|  c #D9DEE2",
" . c #DEE1E4",
".. c #E0E4E6",
"X. c #E3E6E8",
"o. c #E5EAEC",
"O. c #E7EEF0",
"+. c #EAEEF1",
"@. c #EEF3F6",
"#. c #EFF6FB",
"$. c #EFF8FE",
"%. c #F1F4F6",
"&. c #F1F7FC",
"*. c #F0F8FE",
/* pixels */
"*.*.*.*.$.*.*.*.*.*.$.*.*.*.*.*.$.*.*.*.*.*.*.*.*.*.*.*.&.*.$.*.*.*.*.*.*.*.*.*.*.*.*.*.*.*.*.*.*.*.*.*.*.*.*.*.*.*.*.*.*.*.$.*.",
"*.*.$.*.*.*.*.*.*.*.*.*.*.*.*.*.*.*.*.*.*.*.*.$.*.*.$.*.*.*.*.*.*.*.*.*.$.&.*.*.*.*.$.*.*.*.*.*.*.#.*.*.*.$.*.*.*.$.&.$.*.*.*.*.",
"*.*.*.*.*.*.*.*.$.*.*.*.*.*.$.*.*.*.*.*.*.*.*.*.$.&.*.*.*.*.*.*.*.*.*.*.*.*.$.*.*.*.*.*.*.*.$.*.*.*.*.*.&.*.*.*.*.*.*.*.$.*.*.*.",
"*.*.*.*.*.*.*.$.*.*.*.*.*.*.*.*.*.*.*.$.$.&.*.*.*.*.*.*.$.*.*.*.*.$.*.*.*.*.*.*.#.*.*.*.*.*.*.*.*.*.*.$.*.*.*.$.*.*.*.*.*.*.*.*.",
"*.$.*.*.*.*.*.*.*.*.*.*.*.*.*.*.*.*.*.&.*.*.*.*.*.*.*.*.*.*.*.*.*.*.*.*.*.$.*.*.*.$.*.*.*.$.*.*.*.*.$.&.*.*.*.*.$.*.*.*.*.&.*.*.",
"*.*.*.*.*.*.*.*.*.*.$.*.*.$.*.*.$.*.*.*.*.&.$.*.*.*.*.*.$.*.*.*.*.*.*.$.*.*.*.*.*.*.*.*.*.*.*.*.*.*.*.*.*.*.*.*.&.*.*.*.*.*.*.$.",
"*.*.*.$.*.*.*.*.*.*.*.*.*.$.*.*.*.*.*.*.*.*.*.*.*.*.$.*.&.*.*.*.*.*.*.*.*.*.&.*.*.*.*.$.*.*.*.*.$.*.*.*.*.*.*.*.*.*.*.*.*.*.*.*.",
"*.*.*.*.$.*.*.*.*.*.*.*.*.*.*.*.*.*.*.*.*.$.*.*.*.*.*.*.*.*.*.$.#.*.*.*.*.*.*.$.*.*.*.*.*.&.*.*.*.*.*.*.*.$.*.*.*.*.*.$.*.*.*.*.",
"*.*.*.*.*.*.*.$.*.$.*.*.*.*.*.$.*.$.*.*.*.*.*.*.*.*.*.*.*.$.*.*.*.*.*.*.*.*.*.$.*.*.*.*.*.*.*.$.$.*.*.*.*.*.*.*.*.*.*.*.*.*.$.*.",
"*.*.$.*.*.*.*.*.*.*.*.*.*.*.*.*.*.*.*.*.$.&.*.$.*.*.*.*.*.*.*.*.*.*.$.*.*.*.*.*.*.*.*.*.*.&.*.*.*.*.*.*.*.*.$.*.*.$.*.$.&.*.*.*.",
"*.*.*.*.*.*.*.*.*.*.*.$.*.$.*.*.*.*.*.*.*.*.*.*.*.*.*.$.*.*.*.*.*.*.*.*.*.*.*.*.*.*.*.$.*.$.*.*.*.*.#.*.*.*.*.*.*.*.*.*.$.*.*.*.",
"*.*.*.&.$.*.*.*.*.*.*.*.*.*.&.*.*.*.*.$.*.*.*.*.*.$.*.*.*.*.*.*.*.*.*.*.$.*.&.*.*.*.*.&.*.*.*.*.*.*.*.*.*.*.*.*.*.*.*.*.*.*.*.*.",
"*.*.*.*.*.$.*.*.*.$.*.*.*.*.*.*.*.*.*.*.*.*.*.*.*.*.*.*.*.*.*.$.*.$.*.*.*.*.*.*.*.$.*.*.&.*.*.*.*.*.$.*.*.*.*.*.*.*.*.*.*.*.*.*.",
"$.*.*.&.&.*.*.*.*.*.*.*.*.*.$.*.*.*.*.*.*.*.*.*.*.*.*.*.*.*.*.*.*.*.*.&.$.*.$.*.*.*.*.*.$.*.$.*.*.*.*.*.*.*.$.*.$.*.*.*.*.*.*.*.",
"*.*.*.$.*.*.*.*.*.*.&.*.*.*.*.*.$.*.*.*.$.*.$.*.*.*.$.*.*.*.*.*.*.*.*.$.*.*.*.*.*.*.*.$.*.*.*.*.$.*.*.*.*.*.*.*.*.*.*.*.*.*.#.*.",
"*.*.*.*.*.*.$.*.*.*.$.*.*.*.*.*.*.*.*.*.*.*.*.*.*.*.*.*.$.*.*.*.*.*.*.*.*.*.*.*.*.*.*.*.*.*.*.*.&.*.*.*.#.*.*.*.*.*.$.*.*.*.*.*.",
"*.*.&.*.*.*.*.$.*.*.*.*.*.*.*.*.*.*.*.*.$.*.*.*.*.*.*.*.*.*.*.*.*.$.*.*.*.*.*.$.*.*.*.*.*.*.*.*.*.*.*.*.*.&.*.*.*.*.*.*.*.*.*.*.",
"$.*.$.*.*.*.*.*.*.$.*.*.*.$.*.$.*.*.*.*.*.*.*.*.*.*.*.*.*.*.*.*.*.*.*.*.*.*.*.*.*.*.*.*.*.$.*.*.*.*.*.$.*.*.*.*.*.*.*.*.*.*.*.*.",
"*.*.*.*.*.*.*.*.*.*.*.*.*.*.*.*.*.*.*.*.*.*.*.*.*.*.*.*.*.*.*.$.*.*.*.*.*.*.*.*.$.*.$.*.*.*.*.*.*.*.*.*.*.*.*.*.*.*.*.*.*.*.*.*.",
"*.*.*.*.$.*.*.*.*.*.*.*.*.*.*.*.*.$.*.*.*.*.$.*.*.*.*.*.*.*.*.*.*.*.*.*.$.*.*.*.*.*.*.*.*.*.*.*.*.*.*.*.*.*.*.*.*.*.*.*.*.*.*.*.",
"*.*.*.*.*.*.&.*.*.*.*.*.*.*.$.*.*.$.*.*.*.*.*.$.*.*.*.*.*.*.*.*.*.$.*.*.$.*.*.*.*.*.*.*.*.*.*.*.$.*.&.*.*.*.*.*.*.*.*.*.*.*.*.*.",
"*.*.*.*.*.*.*.$.$.$.$.$.$.$.$.$.$.*.*.*.*.*.*.*.*.*.*.*.*.*.*.*.*.*.*.*.*.*.*.*.*.*.*.$.*.*.$.*.*.&.&.&.*.*.&.*.*.*.*.&.*.*.*.*.",
"$.*.*.&.$.*.*.$.*.$.$.$.$.$.$.$.$.*.*.*.*.*.*.*.*.*.*.*.*.*.*.*.*.$.*.*.*.*.*.*.*.*.*.*.*.*.*.*.*.%.*.&.*.&.&.*.*.*.*.&.*.*.*.*.",
"*.*.*.*.*.*.*.*.*.*.$.*.*.$.&.*.*.*.*.*.$.*.*.*.*.*.*.*.*.*.*.*.*.*.*.*.*.*.*.$.*.*.*.*.*.*.*.*.&.*.&.&.&.&.*.*.&.&.&.&.*.*.*.*.",
"&.*.$.*.&.&.&.*.*.%.@.o.O.&.*.&.*.*.*.*.*.*.*.*.*.*.*.*.*.*.*.*.*.*.*.*.*.*.*.*.*.*.*.*.*.*.$.*.&.@.| ] ^ ^ | O.*.&.&.&.&.&.*.*.",
"*.*.*.#.&.&.%.} S f w 8 u B ( @.%.*.%.*.*.*.*.*.*.*.*.*.*.*.*.*.*.*.*.*.*.*.*.*.*.*.*.*.*.*.*.@.I s 8 4 4 4 4 t S ..&.&.&.&.#.*.",
"*.*.*.&.&.| n 2 > t j c f 3 > j [ *.*.*.#.*.$.$.*.*.*.*.*.*.*.#.*.&.&.*.*.*.*.*.*.*.*.*.*.#.{ d > u A P I P V g 3 9 U #.&.&.*.*.",
"*.*.$.&.^ 8 2 n T ` ' ` ' W C 3 1 G @.&.#.$.#.$.*.*.*.*.*.*.*.#.&.&.&.&.*.*.*.*.*.*.*.*.*.E 5 8 G ] } } } [ } [ T a - G #.&.$.*.",
"&.@.&.W > e Y ` _ _ [ ` [ [ [ E g - B #.*.*.$.@.+.X.) Y H Z B b x b N Z H U ! { o.@.#.*.{ 4 p E { [ ] [ ) [ ` ` ` ) z - U *.*.*.",
"&.&. .6 t W } ) ` _ ` [ [ ` ` [ ] b : B ` J n d t 6 3 3 3 5 6 9 9 q 9 4 6 3 2 5 r g B I u e ( [ [ [ [ ] ) [ ) [ ` ` ` p 6 X.&.&.",
"&.%.k 6 W ' ` _ ` ` [ ` ` [ ] [ ` ] n * < 3 0 p l V H U W W ) Q ` ! ` W W Y L D x i 8 : % H [ [ ` ] ] ` ) ` ) ) ` ) ' T < M &.&.",
"&.W : D ' _ _ ` ` [ ` [ [ ` ` ` ` [ ] Z V Y ( ` ' ' ` ' _ } ` ` _ ` ` ` ` { { ` ` ` W P S W [ [ ` [ ` [ ) [ ` ) ) ` _ ' l 3 +.&.",
"*.x 5 ) [ [ [ [ ) ) ` ] ` ` ` [ ) ` ` ` [ ` ` ` ) ) ] [ ) ` ] [ ` ` [ ` [ [ ] ] ` ` ` ` ` ` ) [ [ ` ) ) [ ` [ ` ) ) ` [ I - R *.",
"#.r g } [ [ ` ) ) ) ` [ ) ] [ ` ` ` ` ` ` ` ` ) ) ` ` [ ) ` ` ` [ _ ` ` ` ` ` ` ` ` ` ` _ ` ) ` ` [ [ [ [ [ ] ` ` [ ` ) / 4 N &.",
"@.r k } ) ) ` ) [ [ [ ` ) [ ` [ _ ` _ ` ` ` ) ) [ [ ) ) ) [ ` [ ` [ ` [ ` _ ` ` ) _ ) ) ` ` [ [ ] [ ` [ ) ) ) ` ) [ ` ) } i g *.",
"#.i g } ) ) [ ) [ ` [ ) ) ` ` ] ) _ ` ) ` ` ` ` [ ` ` [ ` [ [ ` [ ` [ ` ) ` ` ` ` ) ) ` ` [ ` ) ` ) ) ` ) ) ` ] ) [ [ ` [ t k *.",
"*.j y ` [ ` ) ) ` [ [ ] ` [ ` [ ` ) ` ) ` ` ) [ ] ) ) ) ` [ ` [ [ ) [ ` ) ) ) ` ` ) [ ) ` ` [ ` ) [ ` ) [ [ ) [ _ ` _ _ _ 9 n *.",
"*.S 2 E ` [ ) ` ) ) ` ` [ ` [ ` ) ) ) ) [ ` ) [ ` ` [ ) [ ` [ ` [ ) ` [ ` ) ) ) [ ` ` ) [ [ ` [ ) ` ` ] ) ` ` [ ` ` _ _ T ; L &.",
"*.{ : V [ ` ) ) [ ) ) ) ] ` ` ` ) ) ) ` ] ` ` [ ` ] [ [ ` [ [ ` ] ` [ ` ` ) _ [ ` ` [ ` ` [ _ ` ) ) [ [ [ ` ` ) ` ` _ } V = } *.",
"#.#.x 5 W ) ) ] ] ) ` [ [ ` [ ` [ ` [ _ [ ` [ ` ` [ [ [ [ ` } _ ` [ ` [ [ ) ) ) ] [ [ [ ` ` _ _ [ ` ` [ ] [ [ ` [ ` _ / 6 f &.*.",
"#.#. .3 l ` _ _ ` ` ` ' ' ' ` ` ` ) ) ) } } ) ` _ _ / ! ` _ _ _ [ } } } ' ' ' } _ ) } } _ ' } } ) [ _ ` ] [ ) ) [ ` / d 5 { *.*.",
"#.#.%.P < h ! ' ` ` ' ' ` ` ` ` [ ) ) ) ] H v f y 7 7 9 q d l H P Z m k z k v H T ` W T Y K P P Y T W ( [ [ [ ] ) ) g : E &.*.*.",
"#.#.&.%.J 3 6 S W ! ` ` ' ` ` ` [ ] ` ) D $ X X X X X o X X X O - > 4 6 6 6 3 > 2 t 2 & $ @ @ @ $ $ - 9 Z [ { ] L u 1 I &.&.*.*.",
"*.*.*.&.#.( f < 6 y l v v v S ` [ [ [ ) v . O O O O O O O O O . 7 Y W W ! ! W K l $   o o o o o o o X   6 E J g 1 w ~ #.&.*.*.*.",
"*.*.*.&.#.*.+.` S f r 0 0 4 > E } ) ) } M X O O O O O O O + O X h } _ _ } } ' } _ 9 X + O O O O O O O X @ 3 > 0 F o.&.&.&.&.*.*.",
"*.*.*.*.#.&.#.#.#.%.O.o.X.Y > Y } ) ) } L O o + + O + O + O O X C } / H m n m K ` y . O O O O + O O O X 8 C R o.*.*.&.*.&.*.*.*.",
"*.*.*.*.*.*.*.*.*.#.*.*.*.W > T } ) _ [ Q 3 X O + + O O O O X * T } m , q 7 & 6 _ m X O O + + O O + o O W &.&.&.$.*.*.*.*.*.*.*.",
"*.*.*.*.*.*.*.*.*.*.*.*.*.P < W } ) } _ _ S $ X o o O O o X o b ' _ M ; K Q 3 h ` Y * . o o O O O o X i @.&.&.&.*.$.$.*.*.*.*.*.",
"*.*.*.*.$.$.$.$.$.$.$.$.*.B 5 ! _ [ [ [ ` ] H 4 @ o o O @ - k W } [ / a , 7 3 Y ` ` H 9 $ o X X   O q [ &.&.&.*.*.*.$.*.*.$.*.*.",
"*.*.*.*.$.$.$.$.$.$.#.*.#.j y ' ) ) [ ` ) ) [ ^ P C V V H W ` ` _ [ _ / t & P [ ) ` _ _ P M k a * N o.&.*.*.&.*.*.*.*.*.*.*.*.*.",
"*.*.*.*.*.*.*.*.$.*.#.#.o.5 c ` ) ) ) ) ) ) ) ) } } _ } [ [ [ ) } _ _ } M , W _ ) ) _ } ' ' } D 9 X.&.&.*.*.*.*.*.*.*.*.*.$.*.*.",
"*.*.*.*.*.*.*.$.$.*.*.*.E * J } [ [ ) ) ` ) [ ` _ ' [ _ ` ] [ ) ` ` H c e @ y k E _ _ ' ' ' ) e j &.&.&.*.$.*.*.*.*.*.*.*.*.*.*.",
"*.*.*.*.*.*.*.*.*.&.&.&.k 4 ( ` _ ) ) ) ) ` ` [ [ ` [ ` [ ` [ ` [ ` Z a p i f m Q ` [ ` ) _ S - W &.#.$.*.*.*.*.*.*.*.*.*.*.*.*.",
"*.$.*.$.*.*.*.*.*.&.&.} 1 N [ _ _ ) ) ) ` ] [ [ ` [ ` [ ` [ ) ) ` [ ` ` ` [ ` _ [ _ ` [ _ W 7 j @.*.*.$.*.*.*.*.*.*.*.*.*.*.$.*.",
"*.*.*.*.*.*.*.*.*.&.&.n 3 Q _ _ _ ) [ [ ) ) ) ) [ ` [ ` [ ` [ ` ` [ [ } } } } } ) [ ` ` ) g 6 } *.*.*.$.*.*.*.*.$.*.*.*.*.*.*.*.",
"*.*.*.*.*.$.*.*.*.*.} > c _ _ _ ) ` ` [ ) ) ` [ ` [ ` [ ] ` ` [ [ ` [ ` ) ) } ) ) [ [ / k 1 Y *.&.*.$.*.*.*.*.$.*.*.$.*.*.*.*.*.",
"*.*.*.*.*.*.*.*.*.%.j 4 Q ' _ _ ) ` ) ` ) ) ) ) ) ` [ _ ` ` ` ` ` [ ` [ [ ` [ ) [ } Y i 2 I &.&.*.$.$.*.*.*.*.*.*.*.*.*.$.*.*.*.",
"*.*.*.*.*.*.*.&.&.Y - C _ _ ` ` [ ` ) [ ` [ ) ) ) ) K T [ } [ ' ` [ [ ` ` [ } ) E n 2 8 E *.*.*.*.*.*.*.*.*.*.*.*.*.*.*.*.*.*.*.",
"*.*.*.*.*.&.&.&...9 i ` [ ` ` ` ` [ [ ` ) [ ] ) ] T q 1 p S P W ^ _ ) ` _ T F j > # c ..&.*.*.*.*.*.*.*.$.*.$.*.*.*.*.*.*.*.*.*.",
"*.*.*.*.*.&.%.%.x 2 T } ` ` [ _ [ ` ` [ ) [ ` ` ` ` Y v q 1 , 3 6 q q q 9 3 > 6 t * ( *.&.*.%.*.*.*.*.*.*.*.*.*.*.$.*.*.*.*.*.$.",
"*.*.*.&.&.&.&.D - Z [ ` ` ) ) [ ` [ ) ` [ [ ) ` ` [ [ [ ^ U S n c f f f h m K ( / 8 z @.&.*.*.*.*.*.$.*.*.*.*.*.*.*.*.*.*.*.*.$.",
"*.*.$.&.&.&.W > v ) [ ` [ ` ` [ [ [ [ ` ` ) ) ` [ ` [ ` [ ) _ _ _ ` ` } ' } } ` } Z : ] &.*.*.*.*.*.*.*.*.$.*.*.*.*.*.*.*.*.*.*.",
"*.*.*.*.&.) 3 i / _ ` ` ] [ [ ` [ Y W ) [ ` [ ] [ ` ` [ ` ` [ ` _ [ [ ` ` } } ' ` Y 6 g %.*.*.*.*.*.*.*.*.*.*.*.*.$.*.*.*.*.*.&.",
"&.&.*.%.o.y 3 W } _ ] [ [ [ ) ) [ k c ] ) ) ` [ ` ` [ ` ` [ ` [ ` [ [ ` ) ` ` } E h c > | &.*.*.*.*.$.$.*.*.*.*.*.*.*.*.*.*.*.@."
};
