/* XPM */
static char *result[] = {
/* columns rows colors chars-per-pixel */
"64 64 101 2 ",
"   c #141415",
".  c #181717",
"X  c #1B1B1B",
"o  c #232323",
"O  c #2C2C2C",
"+  c #353434",
"@  c #37393A",
"#  c #3B3B3B",
"$  c #3F4040",
"%  c #424242",
"&  c #46494B",
"*  c #4B4B4C",
"=  c #524D4F",
"-  c #4B4F51",
";  c #554F51",
":  c #4E5152",
">  c #535454",
",  c #555A56",
"<  c #545759",
"1  c #565A5B",
"2  c #5B5D5D",
"3  c #645C5E",
"4  c #5C5F61",
"5  c #5E6163",
"6  c #636464",
"7  c #636668",
"8  c #66696A",
"9  c #6A6C6C",
"0  c #6B6E70",
"q  c #6D7173",
"w  c #737575",
"e  c #787274",
"r  c #767876",
"t  c #757778",
"y  c #777B7D",
"u  c #7B7C7C",
"i  c #7D8081",
"p  c #838484",
"a  c #858887",
"s  c #848789",
"d  c #86898B",
"f  c #8B8C8C",
"g  c #8B8E91",
"h  c #8E9194",
"j  c #8F9599",
"k  c #949495",
"l  c #9A9294",
"z  c #969798",
"x  c #979A9B",
"c  c #9D9D9D",
"v  c #A39E9F",
"b  c #979EA1",
"n  c #9B9EA1",
"m  c #9DA2A4",
"M  c #A2A3A3",
"N  c #A5A9A7",
"B  c #A5A7A8",
"V  c #A6A8AA",
"C  c #ACACAC",
"Z  c #ADAFB1",
"A  c #AEB1B3",
"S  c #B3B4B4",
"D  c #B0B6B9",
"F  c #B6BBBC",
"G  c #BCBCBD",
"H  c #C1BEBF",
"J  c #BFC3BE",
"K  c #B9BEC0",
"L  c #BDC1C2",
"P  c #C3C3C3",
"I  c #C1C5C8",
"U  c #C5C9CB",
"Y  c #CCCCCD",
"T  c #CED0CD",
"R  c #C7CED1",
"E  c #C9CED2",
"W  c #D1CFD0",
"Q  c #CED2D4",
"!  c #D7D7D7",
"~  c #D9D6D6",
"^  c #D6D8D6",
"/  c #D9D8D7",
"(  c #D5D7D8",
")  c #D9D7D8",
"_  c #D7D9D9",
"`  c #D8D9D9",
"'  c #DADEE2",
"]  c #DCE1E4",
"[  c #DEE5E9",
"{  c #E2E4E6",
"}  c #E2E6EA",
"|  c #E6EAED",
" . c #E9ECEE",
".. c #EAEEF1",
"X. c #EDF2F5",
"o. c #EFF6FB",
"O. c #EFF8FE",
"+. c #F1F4F6",
"@. c #F1F7FC",
"#. c #F0F8FE",
"$. c #F8F9FA",
/* pixels */
"#.#.#.#.#.#.#.O.#.#.#.#.#.#.#.#.#.#.#.o.#.#.#.#.#.#.#.#.#.O.#.#.#.#.#.#.#.#.#.o.O.#.#.#.#.#.#.#.#.#.o.#.#.#.#.#.O.#.#.#.O.#.#.#.",
"#.#.O.#.#.#.#.#.#.#.#.#.#.O.#.#.#.#.#.#.#.#.#.#.#.O.#.#.#.#.#.#.@.#.#.#.#.#.#.#.#.#.#.#.O.@.#.#.#.#.#.#.#.#.#.#.#.#.#.#.#.#.#.#.",
"#.#.#.#.O.#.#.#.#.#.#.#.#.#.#.#.O.#.#.#.#.#.O.#.#.@.#.#.#.#.O.@.O.#.#.O.O.#.#.#.#.#.#.O.#.#.#.O.#.O.#.#.O.#.#.#.#.O.#.#.#.#.@.O.",
"#.#.#.#.#.#.#.#.#.#.O.#.#.O.#.#.#.#.#.#.#.#.#.#.#.#.O.#.#.#.#.#.#.#.#.#.#.#.#.#.#.#.#.@.#.#.#.#.#.#.#.#.#.@.#.O.#.@.#.#.#.#.#.#.",
"O.#.#.#.#.#.#.#.#.#.#.#.#.#.#.O.#.#.#.#.#.#.O.#.#.#.#.@.#.#.#.#.#.#.#.#.#.#.#.#.O.#.#.#.O.#.#.#.#.#.#.#.O.#.#.#.@.O.#.#.O.#.#.#.",
"#.#.#.#.O.#.O.#.#.O.#.#.#.#.#.#.#.#.@.O.@.#.#.#.#.O.#.#.#.O.#.#.#.#.O.#.#.#.O.#.#.#.#.#.#.#.#.#.#.#.#.#.#.@.#.#.#.#.#.#.#.#.#.#.",
"#.#.#.#.#.#.#.#.#.#.#.#.#.#.#.#.O.#.#.#.O.#.#.#.#.#.#.O.#.#.#.O.#.#.#.@.#.#.#.#.#.#.#.O.#.#.#.#.#.#.#.#.#.#.#.#.#.#.#.#.#.#.#.O.",
"#.#.#.O.#.#.#.#.#.#.#.#.O.#.#.#.#.#.#.#.#.#.#.#.#.#.#.#.#.#.#.#.#.#.#.O.#.#.#.#.#.#.#.#.#.@.O.#.#.O.#.#.#.O.#.#.#.#.#.O.#.#.#.@.",
"#.#.#.#.@.#.#.#.#.#.#.#.#.@.#.#.#.#.O.#.#.#.#.#.#.#.#.#.#.#.#.#.#.#.#.@.O.@.#.#.#.#.#.#.O.#.@.#.O.#.#.#.O.#.#.#.O.#.#.#.O.#.#.#.",
"#.#.#.#.O.#.#.#.@.O.#.#.#.O.#.#.#.#.#.#.#.#.#.O.#.#.O.#.#.#.#.O.O.#.O.#.#.#.#.#.O.#.#.#.#.#.#.#.#.#.#.#.#.#.#.#.#.#.#.#.#.#.#.#.",
"o.#.O.#.#.#.O.#.#.#.O.#.#.#.O.#.#.#.#.#.#.#.#.#.#.#.#.#.#.O.#.#.#.#.#.#.#.#.#.O.#.#.#.#.#.#.#.O.#.#.#.#.#.#.#.#.#.#.#.@.#.#.#.#.",
"#.#.#.#.#.#.#.#.#.#.#.#.#.#.#.#.#.#.O.#.#.O.@.#.#.#.#.#.#.#.#.#.#.#.#.#.#.#.#.#.#.#.@.O.#.#.#.#.#.#.O.@.#.#.#.O.#.#.#.O.#.#.@.O.",
"#.#.O.#.#.#.#.#.#.O.@.#.#.#.@.#.o.#.#.#.#.O.#.#.O.#.#.#.O.#.#.#.#.O.#.#.#.O.#.#.#.O.#.#.#.O.#.#.#.O.#.#.O.#.#.#.O.#.#.#.O.#.#.#.",
"#.#.#.#.O.@.#.#.#.#.#.#.#.O.#.#.#.#.#.#.#.@.#.#.#.#.O.@.#.#.#.#.#.#.#.#.#.#.#.#.#.#.#.#.#.#.#.#.#.@.#.#.#.#.#.@.#.#.#.#.#.#.#.#.",
"O.#.#.#.#.#.O.#.#.#.O.#.#.#.O.#.#.#.#.#.#.#.#.#.#.#.#.#.#.#.#.O.#.@.O.#.#.#.#.#.#.#.#.@.#.#.#.@.#.#.#.#.#.#.#.#.@.#.#.#.#.#.#.#.",
"#.#.#.#.#.#.#.#.#.#.#.#.#.#.#.#.#.#.#.O.#.#.#.O.#.#.#.#.#.#.#.#.#.#.#.#.#.#.@.O.#.#.#.O.#.#.#.O.#.#.#.O.#.#.#.O.#.#.#.O.#.#.@.O.",
"#.#.#.#.@.#.#.#.#.#.#.O.#.#.#.#.#.#.#.#.#.#.#.O.#.#.#.#.#.#.#.#.#.#.#.#.O.#.#.#.#.#.#.#.#.#.#.#.#.O.@.#.#.#.#.#.#.#.#.#.#.#.#.#.",
"#.#.#.#.O.#.#.#.#.#.#.#.#.#.#.#.#.O.#.#.#.#.#.#.#.#.#.O.#.#.#.#.#.#.#.O.#.#.#.#.#.#.O.#.#.#.#.#.#.#.#.#.#.#.#.#.#.#.O.#.#.#.O.#.",
"#.O.#.#.#.#.#.#.O.#.O.O.#.#.#.#.#.#.#.O.O.#.#.#.#.#.#.#.#.O.#.#.#.O.#.#.#.#.#.#.#.#.#.#.#.#.#.#.#.#.#.#.#.#.#.#.O.#.#.#.#.#.#.#.",
"#.#.@.#.#.#.O.#.O.O.O.O.#.#.O.#.#.#.#.#.#.#.#.#.O.#.#.#.#.#.#.#.@.@.#.#.#.#.O.#.#.#.#.#.#.O.#.#.#.@.@.#.#.#.@.@.#.#.#.#.@.o.@.@.",
"#.#.#.#.#.O.O.O.O.O.O.O.O.O.O.O.#.@.o.@.#.@.@.O.#.O.#.#.#.#.#.#.@.@.o.#.#.#.#.#.#.#.#.#.#.#.O.O.#.#.@.@.@.@.@.@.#.#.#.@.O.@.o.#.",
"#.#.#.#.#.@.#.#.O.O.O.$.O.O.O.O.#.#.#.#.#.#.#.#.#.#.#.#.#.#.#.#.O.#.#.#.#.#.#.#.O.#.#.#.#.#.O.#.#.#.#.$.$.#.#.#.#.@.@.@.@.@.o.@.",
"#.#.#.#.#.#.#.@.#.O.X.X.@.$.@.@.O.#.#.#.#.#.#.#.#.#.#.#.#.#.#.#.#.#.#.#.#.#.#.#.#.#.#.#.#.#.#.#.$.#.@.} ' ' ' | @.@.$.@.#.#.#.#.",
"#.#.#.@.#.$...W N g y i m Q ..$.@.@.@.#.#.O.#.#.#.#.#.#.#.#.#.#.#.#.#.#.#.#.#.#.#.#.#.O.#.@.#.#...K s 0 5 4 4 0 h I  .@.@.@.o.O.",
"#.#.@.@.X.R u > < 8 u w 1 > w U ..#.#.@.$.O.O.$.O.O.O.#.#.#.#.#.#.@.#.#.#.#.#.#.@.#.#.O.#.@.@.Q y : w c B Z M d 8 > u _ @.@.@.O.",
"#.#.#.} n - 8 v P ! ! ^ U C 9 * k [ @.@.@.$.O.@.O.O.#.#.#.$.$.#.@.#.$.@.$.#.#.#.O.O.#.#.#.X.D 1 8 A Q _ ) ` ) ( W C 6 3 R @.@.@.",
"@.#. .s & k W ! ! ^ ^ ! ` ` Y c : w ] @.#.#.#.#.#.X...[ ( E U L F K I Y Q ' } X.O.@.@.@.#.G : d E _ ^ ( ) ) ^ ~ ) ` U 0 1 ( $.O.",
"+.X.z * B ^ ) ) ! ! ! ! ! ( ) ) D , t _  .Q J N k u 9 6 2 < > < > > 1 < < 2 7 q a m L _ Q 1 d ^ _ ` ( ) ( ( ) ^ ) ! ) Y 6 r  .$.",
"$.K * M / ! ~ ( ! ! ! ! ! ! ^ ^ _ F 1 4 0 1 : 2 9 u f c C S F G H P H F S B z d w 2 < 1 - 2 Y ^ ) ) ^ ^ ) ^ ! ^ ! ! ^ ) S * A @.",
"| 9 u ^ ! ^ ^ ^ ! ! ) ! ! ) ) ^ _ _ F 0 a C J Y T ! ! / / / ` ` ! ! ! ` ^ _ _ ^ ( Y F N p c ! ) ( ^ ^ ) ! ! ! ) ) ! ( ^ ^ i 6  .",
"Z * P ` ) ^ ) ) ! ! ) ! ! ) ^ ^ _ ^ _ Q ^ / ^ ^ ! ! ! ! ` ! ! / ! ! ! ! ^ ` ^ ^ ( ( ^ ^ ^ ! ) ^ ! ! ^ ) ( ! ^ ) ^ ! ^ ) ` S * L ",
"y 5 ( ^ ` ^ ^ ^ ! ! ! ! ! ! ! ) ^ ^ ^ ^ ^ ^ ^ ^ ! ! ! ! ` ! ) ! ! ! ( ^ ) ^ ^ ^ ^ ^ ^ ^ ^ ! ! ^ ) ! ( ^ ^ ) ^ ^ ^ ) ^ ^ ` Q 2 j ",
"0 9 ( ) ` ! ! ! ) ! ) ! ^ ) ) ! ^ ^ ! ! ! ^ ~ ! ! ! ! ! ) ! ! ) ` ! ^ ^ ) ( ! ! ! ~ ~ ! ~ ! ! ! ! ^ ! ! ^ ! ! ! ) ^ ! ! ! ) u 7 ",
"q q ` ( ` ) ! ) ^ ! ^ ! ^ ^ ^ ^ ~ ~ ! ~ ^ ~ ~ ! ! ) ! ! ^ ! ! ! ! ! ) ! ^ ^ ! ! ! ! ! ! ~ ^ ! ^ / ^ ! ! ) ! ) ^ ) ^ ! ! ! ) i 4 ",
"i 5 ^ ) ! ! ! ! ^ ) ! ! ~ ( ! ) ! ^ ! ! ~ ! ! ! ) ^ ^ ( ! ! ( ! ! ^ ! ^ ! ! ! ! ! ! ! ! ! ! ! ! ! ! ! ! ! ! ^ ^ ^ ~ ( ! ~ ! u 9 ",
"b 4 Y ! ! ^ ! ! ( ^ ) ! ! ( ! ^ ~ ! ^ ^ ~ ^ ! ! ) ^ ) ^ ^ ) ( ~ ! ) ! ) ! ! ! ! ^ ) ! ( ^ ! ^ ~ / ! ! ! ( ^ ) ) ^ ~ ( ~ ~ ! 6 p ",
"R - Z _ ! ! ! ! ! ! ) ! ^ ( ! ) ^ ! ~ ^ ! ! ! ! ^ ( ! ! ) ^ ^ ^ ! ! ! ^ ! / ! ! ) ^ ^ ( ! ! ! ! ! ! ! ! ! / ! ! ! ! ) ! ~ H * S ",
"X.y 0 Q ! ! ! ) ! ! ! ! ) ^ ! ! ! ! ^ ! ! ! ! ^ ^ ) ) ) ^ ^ ) ^ ! ! ! ^ ! ! ! ! ^ ^ ~ ) / ! ! ^ ! ! ! ! ^ ^ ^ ) ) ! ! ( ) f - ' ",
"$.U * C ) ! ^ ^ ^ ) ! ) ) ^ / _ ! ! ! ! ! ! ! ~ ) ^ ` ) / ^ / / ^ ! ! ^ ` ! ! ! ^ ) ` ` ^ ! / ^ ) ! ! ` ) ^ ! ! ) ( ^ ) F > n $.",
"O.X.f 4 F ) ^ ) ( ) ^ ^ ^ ^ ^ ^ ! ^ / ! ! ! W U U P P G P Y T ^ ! ! ( W W W W ` ` ` ` / ` ` / / ` ` ` ` ) _ ! ! ^ ! ) P 4 u } #.",
"O.+.{ u > M ! / ^ ^ ^ ^ ^ ^ ^ ^ ! ! ! ) P u 6 * % # # # $ = 3 p v i e 6 6 3 6 u v P P C c z k k c v B F I ~ ( ~ ) ( K 5 8 ' o.o.",
"$.O.+.{ f : w N J T ^ ^ ^ T ^ ^ / ! ^ _ p . X X o o o o o X X . # 6 r u a a u 8 > = $ O o o o o o o o O * V _ ~ U c < 0 ' O.@.#.",
"O.O.@.@...J w , , 8 w r r r S _ ! ^ ) ) 0 X O O O O O O O O O X 6 ! ! ^ ) ` ! W J u . o O o O O o O o o   u F k 5 < j [ @.@.@.O.",
"O.O.#.@.@.O...( D k a p a : i ^ ) ^ ^ ` p X O O O O O O O O O X u ` ! ! ! ) ! ) ` C X O O O O O O O O O   @ < 5 j Q o.O.@.@.#.#.",
"O.O.O.o.O.@.@.$.O.+.o.+.X.i u ` ! ! ! ` M X O O O O O O O O O X z / W C f u p l Y F o O O O O O O O O O o x U ' +.#.#.O.@.O.#.@.",
"#.O.O.$.O.O.O.O.O.O.O.o.+.r i / ! / ! ! P * . O + O O + O O X $ P / C = e u 3 + S W * X O O O O O O O . < | @.@.@.@.#.#.#.#.#.#.",
"O.#.O.O.O.O.O.O.O.O.O.$.X.8 f / ! ! / ^ ! M + X o o o o o X o k ! ! H ; l ~ u 3 Y / f o X o O O O O o O C $.@.@.#.O.O.#.O.#.#.#.",
"#.#.O.O.O.O.O.O.O.O.O.@.[ > c / ! / ! ! ~ ~ C 6 # O O O # < k Q ` ) ~ v ; 3 ; C / / W z > + o X . . # l  .+.@.@.#.O.O.O.#.#.#.#.",
"#.#.#.O.#.#.#.#.#.O.o.O.Q * A / ! ) ! ! ) ! ` ! F Z C Z G Y ( ! ! ) ! ! v + v ) ! ! ! ) Y G v k w > U +.#.#.@.#.#.#.#.#.#.#.#.#.",
"#.#.#.#.#.#.#.O.#.O.O.@.A : U ^ ) ! ! ! ! ! ! ` ! / / / ) ( ) ! ! ! ! / H & S ~ ! ! ! ! ! ) / ) u d @.#.#.#.#.#.#.#.#.#.#.#.#.#.",
"#.#.#.#.#.#.#.#.#.@.@.X.y 9 ^ ` ! ! ! ! ) ! ! ! ! ! ! ! ^ ~ ( ~ ! ! G l p + 6 i S / ! ! ! ) / G ; L $.@.#.#.#.#.#.#.#.#.#.#.#.#.",
"O.#.#.#.#.O.#.#.#.@.$.( * v ` ! ! ! ! ! ! ! ) ! ) ! ! ! ) ^ ( ~ / ! S p r e u d H / ! ! ! ! ^ u 0 ..#.X.O.#.#.#.#.#.#.#.#.#.O.#.",
"#.#.#.#.#.#.#.#.#.@.@.h < Y ) ! ~ ! ! ! ) ^ ! ! ! / ! ) ! ! ! ^ ! ! / ^ ! ^ ! ^ ` ! ^ ! _ ` C * K #.#.O.#.#.#.#.#.#.@.O.#.#.#.O.",
"#.#.#.#.#.O.#.#.#.$._ : z ) ~ ~ ! ! ! ! ^ ^ ) ^ ! ! ! ! ^ / ! ! ! ! ! ) ` ` ^ ! ` / ! ^ _ P 2 s ..#.O.O.O.O.#.#.O.#.#.#.#.#.#.@.",
"#.#.O.#.#.#.#.O.#.$.x > P ~ ~ ~ ! ! ! ^ ( ! ! ) ! ! ! ! ) ^ ) ^ ^ ) ! ! ! ! _ ) ) ` ! ) P 6 0 ] $.#.O.O.O.#.#.#.#.#.#.#.#.#.#.#.",
"#.#.#.#.#.#.#.#.O.( ; l ) ~ ~ ~ ! ) ! ) ! ! ! ^ ! / ` ` ^ ^ ! ! ! ! ! ` ! ^ ! ` ` ` ( S 5 0 _ $.#.#.O.O.O.#.#.#.#.#.#.#.#.#.O.#.",
"#.#.O.#.#.#.@.o. .u 6 U ! ! ! ! / ! ! ) ^ ! ! ) ! ! P W ` ` ! ! ^ ! / / ^ ! ) ` _ P s - y ] @.@.#.O.#.#.#.#.#.#.#.#.#.#.#.#.#.O.",
"#.#.#.#.#.o.@.o.A & S / ! ! ! ! ) ! ! ! ) ! ! ! ! P 9 9 c H W ~ ) ` / ) ) ^ U S s * : V ..#.@.#.#.@.#.#.#.#.O.#.#.#.#.#.#.#.#.#.",
"#.#.#.#.@.@.$.( < a ! ` / ! / ! ! ! ) ! ^ ^ ( ! ! ! C w > > 6 q u f k f f r 3 * 2 @ k $.@.@.@.o.#.#.#.#.#.#.#.#.#.#.@.O.#.#.#.#.",
"#.#.#.X.$.@.{ w 6 U ` / ! ! ! ! ! ! ` ! ^ ) ! ! ! ~ ! ! H M d e 9 8 6 6 6 w f Z U s 5 { @.@.@.@.@.#.#.O.#.#.#.#.O.#.#.#.#.#.#.@.",
"O.#.O.#.@.+.f > G ` ! ! ! ! / ^ ! ! ! ! ^ ) ! ! ! ! ! ! ! ) ( ! ! W Y Y ! ! / / _ P - V $.#.#.#.#.#.#.#.#.#.#.#.#.#.#.#.#.#.#.#.",
"#.#.#.#.+.B * C ! ! / ! ) ! ! ( ! ~ ! ! ! ! / ! ! ^ ! ! ! ! ^ ! ^ ) ` ) ~ / ` ^ ` ` s 4 { #.#.#.#.#.#.#.#.#.O.#.#.#.#.#.#.O.#.#.",
"@.@.@.@.F * k ! ) ~ ! ! ^ / ! ! U f P ) ) ^ / ! ! ! ! ! ) ^ ~ ! ^ ^ ) ^ ^ ! ^ ! ! Z B - B #.@.#.#.#.#.#.#.#.#.#.#.#.#.#.#.#.#.#.",
"@.+.$.! > q ! / ! ~ E ! ) ! ! ) ! 9 a ^ ) ^ ! ! ! ! ! ! ! ! ( ^ ! ! ! ! ! ! ^ ` ) f p u 8  .$.@.@.@.O.O.#.#.#.#.#.#.#.#.#.#.#.X."
};
