/* XPM */
static char *result[] = {
/* columns rows colors chars-per-pixel */
"64 64 112 2 ",
"   c #151515",
".  c #171819",
"X  c #1C1C1C",
"o  c #201F1F",
"O  c #242424",
"+  c #252728",
"@  c #2C2C2C",
"#  c #343434",
"$  c #323738",
"%  c #353A3C",
"&  c #3D3D3D",
"*  c #403F3F",
"=  c #373E41",
"-  c #3E4142",
";  c #434545",
":  c #4C4447",
">  c #444648",
",  c #474A4B",
"<  c #4B4B4C",
"1  c #534C4F",
"2  c #4C4F51",
"3  c #4E5152",
"4  c #535454",
"5  c #5B5356",
"6  c #535759",
"7  c #555959",
"8  c #5A5B5C",
"9  c #605C5D",
"0  c #5A605B",
"q  c #5A5E61",
"w  c #5E6163",
"e  c #636464",
"r  c #646967",
"t  c #65696A",
"y  c #6A6C6C",
"u  c #6C6F71",
"i  c #6E7173",
"p  c #737474",
"a  c #797577",
"s  c #787C77",
"d  c #787778",
"f  c #75797A",
"g  c #7C7D7D",
"h  c #7D7E81",
"j  c #7F8282",
"k  c #838484",
"l  c #898586",
"z  c #848788",
"x  c #85888A",
"c  c #8B8C8C",
"v  c #8D908F",
"b  c #878D90",
"n  c #8D8F91",
"m  c #918F90",
"M  c #8F9191",
"N  c #939494",
"B  c #989495",
"V  c #959799",
"C  c #9C9698",
"Z  c #95989B",
"A  c #9B9C9C",
"S  c #A0979A",
"D  c #9C9FA0",
"F  c #9FA3A4",
"G  c #A4A3A4",
"H  c #A8A7A7",
"J  c #A6A9A7",
"K  c #A4A7A8",
"L  c #A6A9AB",
"P  c #ABABAC",
"I  c #B0AFAE",
"U  c #AAAEB1",
"Y  c #AEB1B2",
"T  c #B3B3B3",
"R  c #B3B7B9",
"E  c #BCB7B9",
"W  c #B6BABC",
"Q  c #BBBCBC",
"!  c #BABEC1",
"~  c #BDC1C3",
"^  c #BEC4C9",
"/  c #C3C4C4",
"(  c #C8C7C7",
")  c #C6CAC6",
"_  c #C1C6C8",
"`  c #C9C7C8",
"'  c #C5C9CB",
"]  c #CBCCCC",
"[  c #C9CED1",
"{  c #CDD1D2",
"}  c #D7D7D7",
"|  c #D9D6D6",
" . c #D6D8D6",
".. c #D9D8D7",
"X. c #D4D7D8",
"o. c #D9D7D9",
"O. c #D6D9DA",
"+. c #D9D9D9",
"@. c #DADEE1",
"#. c #DDE2E5",
"$. c #E1E5E7",
"%. c #E1E7EA",
"&. c #E4E9EC",
"*. c #E8ECEF",
"=. c #E7ECF1",
"-. c #EAEEF1",
";. c #EDF2F5",
":. c #EFF6FB",
">. c #EFF8FE",
",. c #F0F4F6",
"<. c #F1F7FC",
"1. c #F0F8FE",
/* pixels */
"1.1.1.1.1.1.1.1.>.1.1.1.1.1.1.1.1.1.1.1.1.1.1.1.1.1.>.1.1.1.1.>.1.1.1.1.1.1.1.>.1.1.>.1.1.1.1.1.1.1.1.1.1.1.>.1.1.1.1.1.1.1.>.1.",
"1.1.1.>.1.>.1.1.1.1.1.1.>.1.1.1.1.1.1.>.1.1.1.>.1.1.1.1.1.1.1.1.1.1.1.>.1.1.1.1.1.1.1.1.1.1.1.1.1.>.1.1.1.<.1.1.1.1.:.1.1.1.1.1.",
">.1.1.1.1.1.1.1.1.1.1.1.1.1.1.>.>.1.1.<.1.<.1.1.1.1.1.1.>.1.1.>.1.>.<.1.<.>.1.1.1.1.1.1.>.<.1.1.1.1.1.1.1.>.1.1.1.1.1.1.1.1.1.1.",
"1.1.1.1.1.1.1.>.1.1.>.1.1.1.1.1.1.1.1.>.1.>.1.1.1.>.<.1.1.1.<.1.1.1.1.1.1.1.1.1.1.>.<.1.1.1.1.>.1.1.<.>.1.1.1.1.>.1.1.1.1.>.1.1.",
"1.1.1.>.1.1.1.1.1.1.1.1.1.1.1.1.1.1.1.1.>.1.1.1.1.1.1.<.>.1.1.1.1.>.1.1.1.>.1.1.1.1.1.1.1.1.1.1.>.1.1.1.1.>.1.>.1.1.1.1.1.1.1.>.",
"1.1.1.1.1.1.1.1.>.1.1.1.1.>.1.1.1.>.1.1.<.1.1.1.1.>.1.1.1.1.1.1.1.1.1.<.1.1.1.1.1.1.1.>.1.>.1.1.1.1.1.1.1.<.1.1.>.1.1.1.1.1.1.1.",
"1.>.1.1.1.>.1.1.1.1.>.1.1.1.1.1.1.1.1.1.1.1.1.1.1.1.1.1.1.1.>.1.1.1.1.>.1.1.1.1.>.1.1.1.1.1.1.1.1.1.>.1.1.1.1.1.1.1.>.1.1.>.1.1.",
"1.1.1.1.1.1.1.1.1.1.1.1.1.1.1.>.1.1.1.1.>.1.>.1.1.1.1.>.1.1.1.1.1.1.1.1.1.1.>.1.1.1.1.>.<.1.1.1.1.1.1.1.1.>.1.1.1.1.1.1.1.<.1.1.",
"1.1.1.1.>.1.1.1.1.1.1.1.1.<.>.1.1.>.1.1.1.1.1.1.1.>.1.1.1.1.1.1.1.1.1.1.1.1.>.1.1.1.>.1.>.<.1.>.1.1.>.1.1.1.1.>.<.>.1.1.1.1.1.<.",
"1.>.1.1.<.1.1.1.>.1.1.1.1.1.1.1.1.1.1.1.>.1.1.1.1.1.1.1.1.>.1.1.>.1.1.1.1.1.1.1.1.1.1.1.1.1.1.1.1.1.1.1.1.1.1.1.1.1.1.1.>.1.>.1.",
"1.1.1.1.1.1.1.1.1.1.1.>.1.1.1.>.1.1.1.1.1.1.1.1.1.1.1.1.1.1.1.1.1.1.1.<.>.<.1.1.1.1.1.1.1.1.1.>.1.1.1.1.1.>.1.1.1.1.1.1.1.1.1.1.",
"<.1.1.1.>.1.>.1.1.1.1.1.1.1.1.1.1.1.>.1.<.1.>.1.1.1.1.>.1.1.1.>.>.1.1.>.1.1.1.1.1.:.1.1.1.1.1.1.1.>.1.1.1.1.1.1.1.1.>.1.>.1.1.1.",
">.1.1.>.1.1.1.1.1.1.1.>.1.1.1.1.>.1.1.1.1.1.1.1.1.1.1.1.1.1.1.1.1.1.1.1.>.1.>.1.1.1.1.1.1.1.1.1.1.1.1.1.1.1.1.1.1.1.1.1.1.1.1.1.",
"1.1.1.1.1.1.1.1.1.1.1.1.>.1.<.1.1.1.1.1.1.<.>.1.>.1.1.1.1.1.1.1.1.1.1.1.1.1.1.1.>.1.1.1.1.1.1.1.1.1.1.>.1.1.1.1.1.1.>.1.1.1.>.1.",
"1.1.1.1.1.1.1.1.1.>.1.1.1.1.>.1.1.1.1.1.1.>.>.1.1.1.1.>.1.1.1.1.1.1.1.1.1.1.1.1.1.1.1.>.>.<.1.1.1.<.1.1.1.1.:.1.1.1.1.1.1.1.1.<.",
"1.<.1.1.1.>.>.:.>.>.<.>.>.>.>.>.:.<.1.:.<.<.<.1.1.1.1.1.1.1.1.1.<.:.<.:.<.>.1.1.1.1.1.1.1.>.>.>.1.<.<.<.1.:.<.<.>.1.1.>.<.1.:.<.",
"1.<.1.1.1.>.>.>.>.>.>.>.>.>.>.>.<.<.1.1.1.1.1.1.1.1.1.1.1.1.1.1.1.1.1.1.1.1.1.1.>.1.1.1.1.1.1.1.1.<.<.<.<.1.1.1.1.1.<.<.<.1.1.1.",
">.1.<.1.1.1.1.1.1.>.1.1.1.>.<.<.1.>.1.1.1.>.1.1.1.1.1.1.1.1.1.1.1.1.1.1.1.1.1.1.1.1.1.1.1.>.>.1.1.1.<.<.1.1.1.<.<.<.<.<.<.1.1.1.",
"1.1.1.1.<.<.<.<.;.&.%.=.<.<.<.<.<.<.1.>.1.1.1.1.1.1.1.<.1.1.1.1.1.1.1.1.>.1.1.1.1.1.1.1.1.1.1.1.<.<.-.} ' ! _ O.-.<.<.<.1.<.1.1.",
"1.<.:.:.<.<.@.P z i w p F X.;.<.<.>.<.<.1.1.1.>.1.1.1.1.1.1.1.1.1.1.1.1.1.1.1.1.1.1.>.1.1.:.1.1.&.U a q 6 6 4 7 d T $.<.<.<.<.<.",
"1.>.>.1.&.L 8 : 8 p g t < 3 N #.<.<.:.<.1.<.1.1.1.1.1.1.1.1.1.<.1.1.1.1.<.1.1.1.1.1.1.1.:.<.<.{ a , u D P T U m y < i { <.<.<.<.",
"1.1.>.O.d : d P ` } X.{ W z < e ) :.:.<.<.<.<.1.1.1.1.1.1.1.1.1.1.1.1.1.>.>.1.1.1.>.1.1.>.:.~ w q L X.O.O.+.O.+.} P 0 8 ] <.<.<.",
"1.<.O.w 3 J } | | O.} ....} T w 2 W <.<.1.<.1.1.<.1.:.:.=.&.%.@.O.@.$.&.*.;.:.1.1.1.1.1.>.[ 6 i ~ O.O.O.} +.} } +.+./ e 0  .<.<.",
"<.&.p 3 R } } } } } } } ..} O.( i 3 ] ,.,.-.$. ./ P V k p t e 7 7 8 9 r u h M K !  .&.;.&.y y ] O.} } } } } } } | } } / 7 k ;.1.",
",.G < P | } } O.| } O.| } } +.+.) r 0 R F s 0 7 3 < 8 r p g k c v c c g d y 8 3 3 7 y b j 4 Q ..} +.} } } } +.} O.} } +.H : ~ <.",
"} 4 m ..} } } } } } } } } } } } O.^ 0 - 4 y j V J E ( { } } } | ....} } } { ] ~ Y M f 0 = p  .} } } } } } } } } | } } } X.t p ;.",
"z 0 ] +.} } } } | O.} ..O.| } }  .O.! A ~ { {  ..... . ...} ..O.} } } ..}  .}  . . .{ ) Y Q  .+.} } } +.+.} } } } | } } +.H > ] ",
"> N +.+.+.O.} ..} } } } } } } +. . . . . . . .| } |  .| } } } } } ..} } } O.} }  .} }  .+.+. . .+.} } } } } } +.O.} } } O.' 6 A ",
"$ Y +.+.+.+.} } } } +.} } } } }  . . . . . . . ...} } } } } | } } } } } O.} }  . . . . .+.} } } } } } o.} } } } } } } +.} } i u ",
"$ W +.+.+...} } | O.} } } } } }  . . . .| |  .| } } ..} } } } } } } ..} } .. .}  .| | | | } } +.} } +.} } +.} o.} } } } } +.M , ",
"% W ..+.+.} } +.} } } } +.} } }  . . . .| | |  .} } ..O.O.} } } } } } } } }  . . . .} | ..| } } } +.} } } } +.} +.} } } | O.D - ",
"% T +...} } } } } } +.} } } } +. . ...} |  . . .} } } } | } ..O.} ..} } .... . .} } } O.} } } } } } } } } } } } } } } } | } N 2 ",
"= L +.+.} } } } } } } } } } ..} } } } } } } } } } } } } } } } } } O.} } } O.} } } } } } } O.} ..O.} ..} } } } } } } } | | | k 8 ",
"6 z +.} } } ..O.} ..O.} } } } } O...} | } } } } } | O.} } ..} } ..} } } } ..| } O.....} } ..} } } } } } } } +.} } } } +.| | e p ",
"b 7 ] +.} } } } } ..+.}  .+.} } } | } O.} } } } } O.} ..} } | } } } } | } } } } } } } } } } } } } | } O.} +.} } +.} } } | ~ < L ",
"{ 3 A } } } } } } } } } } } } ..} } } } } } } } } ..+.+...O.....} } } O.O.} } } } } +.+.} } } +.} O.+.| } } } } } } } } +.N 2 } ",
";.z 0 ] ....} } +.} ..} +. . . .O.} } } } ..} } +.+.+.+. . ...| } ......+...| | } } ....} .. .+.} } } ....} O.} +.O.} o.Q 4 V 1.",
">.X.8 c { ..} ..} O.} }  . .+. .| } O.} | } ] ] / Q Q Q / ) { | | | | ] ] { X.+.} ....O.O.....+.+.+.+.| } +.} } } } } / e u $.1.",
"<.,.T , g ) O.} ..} } }  .+. . .} } | } T g 0 1 > & * & : 8 y B G k p r e e e l J ] ` T J G G S G P T Q ] +.+.} } +.] u 7 [ <.<.",
"<.<.,.H 3 e J ) } ..O.}  . . . .} } } X.8   X X X o X o o . . o * 4 e r u u e 4 : 8 4 # @ O + O O + # & 8 P +.} X.W u 4 ! ,.<.<.",
"1.<.<.,./ u < 8 s N A A A J {  .} } +.( & X @ @ @ @ @ @ @ @ +   p ` { { } X.] / G 8   o O O O O O O o X   h X.Q x 2 w ^ :.:.1.1.",
"1.<.,.<.<.&.W v r 7 7 7 3 , ~ +.} } } ] > o @ @ @ @ @ @ @ @ @ X m +.| | +.| } +.+.C X @ @ @ @ @ @ @ @ @   , y 2 6 Z @.:.:.1.1.1.",
"1.1.<.<.<.<.,.,.&. .{  .Q < Y +.} } } } 9 . # @ @ @ @ # # @ @ o H .. .{ / ( ( ] ..G X @ @ @ @ @ @ @ @ @   , a D { :.1.:.1.<.<.1.",
"1.1.<.1.<.<.<.<.1.,.<.1...4 T ..} | } ..k X + @ @ @ @ @ @ @ o # Q +.E a 9 5 1 t ) Q + O @ @ @ # @ @ @ O @ _ ,.,.>.>.1.:.<.1.<.>.",
"1.1.1.1.1.<.<.1.>.>.>.<.} 3 T ..} } } ..E # X @ @ # @ @ @ + . y } | m : C G y * / ] < X @ @ @ @ @ @ @ X e *.<.<.1.1.>.>.1.1.1.>.",
"1.1.>.>.>.>.>.>.>.>.>.<._ < Q  .| O.} } } m @ . o O O o X . * T ..| E 1 S | e p } ..N + . o O O @ O X @ T <.,.<.1.>.>.>.1.1.1.1.",
"1.1.>.>.>.>.>.>.>.>.>.1.Y < ( } ..} .... .{ A 7 # @ O @ ; e H } +.} | m : 5 1 E } } ] Z 4 # o X X   & V -.<.,.<.1.1.>.>.>.1.1.1.",
"1.>.1.1.>.1.1.>.>.>.1.<.Z 8 X.} } } | .... . .] T J G P Q ] } } ..+.| | l # H | } } } ..` T C c u < / -.<.1.1.1.1.1.1.1.1.1.1.1.",
"1.1.1.1.1.1.1.1.>.>.<.;.s f O.} | O.} } O.| O...+.+.+.+.+.+.} } } ..+.+.I : / +.} } O.| o.| | o.l h <.<.>.1.1.1.1.1.1.1.1.>.1.1.",
"1.1.1.>.1.>.1.1.:.>.,.#.3 A } O.} } } | } } } ..} } | O.} +.} } } ..` E A & m H ) ..} } | | o.` 6 U <.<.1.1.1.1.1.>.1.1.1.1.1.1.",
">.1.1.1.1.1.1.1.1.<.1.R > Q O.} } } } } } O.| } O.} } } } } +.} ..} A e 8 * 4 e R } } +.} +.} A 5 @.<.<.1.1.1.1.1.1.1.1.1.1.1.1.",
"1.1.1.1.1.1.1.>.<.<.,.s e } | } } } | O.} } } } } } ..} } } } } } } ( T T T W / } | } | ..| ] 8 n <.<.<.>.1.1.1.1.1.1.>.1.1.>.1.",
"1.1.1.>.1.1.1.1.1.<.{ , G | | | } } } | } } } | | } } } } } } } } } +.+.+.+.+.+.| } } } } } N 3 X.1.1.>.1.1.1.>.>.1.1.1.1.>.1.1.",
"1.1.1.1.1.1.1.1.<.<.N 5 [ | | | +.} } } O...} O.O.} +.} +.} } } } } +.+.} +.O.+.} } } } } T 2 D ,.1.1.>.>.1.1.1.1.1.1.1.1.1.1.1.",
"1.>.1.1.1.>.1.1.<.@.5 x | | | | ..} O.} } | } } | } } } } } } } } } } O.} +.+.+.+.+.} } E 7 g &.<.1.1.>.>.1.1.1.1.1.1.1.1.1.1.1.",
"1.1.1.1.1.1.1.1.<.C 1 / | | | | } } | } } } } } } } +.} } } } } O.} } ..} } } } +.O.} T 8 u +.<.1.<.1.1.>.1.1.1.1.1.>.1.<.>.1.1.",
"1.1.1.1.1.<.<.1.X.3 v ..} } } } ..} O.| } } } }  .} { } ..} ....} | ..} } } } +.+.] M 2 u @.1.1.1.1.>.1.1.<.1.1.1.1.1.1.>.1.1.1.",
"1.1.1.1.1.<.<.-.h 8 ` } } } } ..} } } } | O.} } ..I i B / } O.+.+.+.....+.+.} ` G w > b @.>.:.1.1.1.1.1.1.>.1.1.<.>.1.1.1.1.1.1.",
"1.1.1.1.<.<.1.! > G  .} ..} } } } } } } } } } } ..Q p : 3 p B G T E Q Q E J k 7 ; + V ;.1.1.1.<.1.1.1.1.1.1.1.1.1.>.1.1.1.1.>.<.",
"1.1.<.<.<.<.#.e i } ..} } } } } } } +.} } } +.} ..+.{ I k e < > < 3 4 4 3 < 4 p G 8 x ;.,.1.:.:.<.1.1.1.1.>.1.>.1.1.1.1.1.1.>.<.",
"1.1.1.1.1.,.c 2 Q ..} | } | } } } } +.} } } } O...} } ..} ] Q T J A C Z G I / } O.A 3 X.<.<.1.1.1.1.1.1.1.1.1.1.>.1.1.1.1.>.1.1.",
"1.1.1.,.<.W : G } O.} } O.} } } +.+.} } } } | } ..O.} } } } +.+.+.O...+...+.O.} o.' 4 D <.<.1.1.1.1.1.1.1.1.1.1.1.1.1.1.1.1.1.1.",
"1.1.1.<.{ 4 g } | } } } } } O.| | ] } } O...} | ..} O.| } } } } ..} } } } +.....} } x 6 #.<.1.1.1.1.1.1.1.>.>.1.1.1.1.1.1.1.1.1.",
"<.<.<.*.p 4 / ....} O...} } } +.P N } } } } } } O.} } } } } } } } ..} } } } } ..X.P H < T <.1.1.1.>.1.1.<.1.1.1.1.1.>.1.1.1.1.1."
};
